<?xml version="1.0" encoding="UTF-8"?>
<svg xmlns="http://www.w3.org/2000/svg" width="20" height="22" viewBox="0 0 20 22" fill="none">
  <g id="Capa 2">
    <g id="ELEMENTS">
      <path id="Vector" d="M5.09839 19.5858C5.09839 19.2338 5.09839 18.8817 5.09839 18.5297C5.1009 18.5153 5.10039 18.5005 5.09691 18.4863C5.09342 18.4721 5.08704 18.4588 5.07815 18.4472C5.06925 18.4355 5.05805 18.4258 5.04521 18.4186C5.03238 18.4114 5.01819 18.4069 5.00353 18.4054C4.12288 18.1575 3.31004 17.7159 2.6256 17.1134C2.12691 16.6639 1.71169 16.1312 1.39885 15.5395C0.957897 14.6848 0.664439 13.763 0.530638 12.8122C0.364857 11.6197 0.307282 10.4148 0.358603 9.21198C0.369858 8.65123 0.398798 8.09685 0.46311 7.53611C0.565676 6.47052 0.836965 5.42758 1.26701 4.44561C1.79803 3.23825 2.76139 2.26842 3.97133 1.72311C4.79554 1.3494 5.66264 1.07658 6.55345 0.910665C7.42704 0.746715 8.31153 0.646087 9.19989 0.609581C10.0007 0.581522 10.8023 0.593219 11.6019 0.644627C12.7464 0.692489 13.8804 0.880298 14.9783 1.20378C15.7923 1.43628 16.5667 1.78798 17.2759 2.24722C17.9668 2.71719 18.5256 3.35367 18.8997 4.09674C19.3395 4.96461 19.6385 5.89575 19.7856 6.85588C19.8812 7.42591 19.944 8.00086 19.9737 8.57795C20.0156 9.29323 20.0107 10.0117 19.9834 10.7238C19.9561 11.4359 19.895 12.1272 19.8065 12.825C19.6948 13.8723 19.3699 14.8862 18.8515 15.8056C18.1768 16.9686 17.0959 17.8469 15.8128 18.2748C14.9354 18.5792 14.0294 18.7959 13.1084 18.9215C12.4348 19.0139 11.7595 19.0808 11.081 19.1079C10.5617 19.1318 10.0424 19.1255 9.52306 19.1175C9.22883 19.1175 8.93621 19.0888 8.64359 19.0633C8.61486 19.058 8.58518 19.0611 8.55828 19.0725C8.53138 19.0838 8.50847 19.1028 8.49246 19.127C7.90079 19.8312 7.28661 20.5162 6.66761 21.198C6.55485 21.3224 6.4243 21.4297 6.28013 21.5166C6.18548 21.5781 6.07757 21.6167 5.96509 21.6293C5.85261 21.6419 5.73873 21.6281 5.63263 21.589C5.52653 21.5499 5.43119 21.4867 5.3543 21.4044C5.27742 21.3221 5.22115 21.223 5.19004 21.1152C5.12877 20.9235 5.09838 20.7235 5.1 20.5225C5.09839 20.2071 5.09839 19.8965 5.09839 19.5858ZM5.81386 20.9224L5.88943 20.8523L7.23194 19.3756C7.74858 18.8074 8.26469 18.2387 8.78025 17.6694C8.8056 17.6347 8.83979 17.6073 8.87933 17.5899C8.91888 17.5725 8.96236 17.5659 9.00534 17.5706C9.18059 17.5882 9.35585 17.5945 9.5327 17.5961C10.1437 17.5961 10.7546 17.5961 11.3656 17.5531C11.9203 17.5101 12.4734 17.4432 13.0232 17.3572C13.6153 17.2551 14.2013 17.1216 14.779 16.9573C16.0652 16.6148 17.0604 15.882 17.6859 14.6952C18.0551 13.9655 18.2867 13.1752 18.3692 12.363C18.4669 11.5975 18.5254 10.8276 18.5444 10.0563C18.5729 9.08732 18.5061 8.1179 18.345 7.16174C18.2334 6.469 18.0323 5.79334 17.7469 5.15133C17.3836 4.35481 16.8691 3.69529 16.0764 3.27155C14.8609 2.62159 13.5458 2.33165 12.1904 2.1835C11.8061 2.14208 11.4219 2.11978 11.036 2.10544C10.2459 2.06508 9.45411 2.06934 8.66449 2.11819C8.09662 2.15994 7.53181 2.23548 6.97309 2.3444C6.15143 2.4928 5.35655 2.76123 4.61445 3.14092C4.18422 3.35631 3.7939 3.64232 3.46005 3.98682C2.91897 4.58602 2.52207 5.29899 2.29922 6.0721C2.03484 6.9725 1.89052 7.9033 1.86993 8.8408C1.8182 9.7783 1.83002 10.7182 1.90531 11.6541C1.95215 12.2111 2.04627 12.7632 2.18667 13.3045C2.39557 14.1481 2.80082 14.9315 3.37001 15.5921C3.98451 16.2661 4.77874 16.7542 5.66112 17.0003C5.77206 17.0338 5.8219 17.072 5.8219 17.1963C5.81226 17.6551 5.8219 18.1139 5.8219 18.5727L5.81386 20.9224Z" fill="white"></path>
      <path id="Vector_2" d="M4.68876 6.69353C4.67751 6.34466 4.86883 6.09136 5.10036 5.86356C5.40571 5.57374 5.74213 5.31786 6.10362 5.1005C6.26846 4.99977 6.46446 4.96139 6.65558 4.99241C6.8467 5.02344 7.02009 5.12178 7.14387 5.26936C7.58125 5.72489 7.97272 6.22161 8.31274 6.75247C8.48112 6.99127 8.60826 7.25614 8.68897 7.53625C8.72122 7.64556 8.72332 7.76144 8.69504 7.87182C8.66677 7.98221 8.60915 8.08307 8.52819 8.16391C8.3427 8.34431 8.14502 8.51196 7.93652 8.66571C7.83146 8.74867 7.75334 8.86041 7.71189 8.98703C7.67044 9.11364 7.66748 9.24953 7.70338 9.3778C7.83215 9.98009 8.12394 10.5363 8.54748 10.9868C9.06213 11.6093 9.72522 12.0949 10.4768 12.3998C10.6615 12.4939 10.8731 12.5225 11.0765 12.481C11.1879 12.4509 11.2869 12.3868 11.3595 12.2978C11.4721 12.1561 11.5943 12.0191 11.6955 11.8677C11.8269 11.6789 12.0275 11.5485 12.2546 11.5041C12.4816 11.4598 12.7172 11.5051 12.911 11.6304C13.456 11.9437 13.9706 12.3063 14.4481 12.7136C14.5606 12.8092 14.678 12.9016 14.7906 12.9988C14.9237 13.0994 15.0199 13.2405 15.0643 13.4005C15.1088 13.5605 15.099 13.7305 15.0366 13.8845C14.9372 14.1434 14.7924 14.3829 14.6089 14.5918C14.3808 14.9059 14.0902 15.1705 13.7551 15.3692C13.5949 15.4624 13.4149 15.5172 13.2296 15.5291C13.0442 15.541 12.8586 15.5097 12.6876 15.4377C11.3867 14.9188 10.1713 14.2106 9.08127 13.3365C8.01514 12.4669 7.08343 11.4471 6.31585 10.3097C5.66999 9.36814 5.15616 8.34402 4.78845 7.26543C4.74929 7.13498 4.71709 7.00257 4.69198 6.86877C4.68483 6.81062 4.68375 6.7519 4.68876 6.69353Z" fill="white"></path>
      <path id="Vector_3" d="M10.2397 4.99856C11.328 5.01849 12.3748 5.41627 13.1975 6.12253C14.0202 6.82879 14.5666 7.79873 14.7415 8.86327C14.8119 9.2503 14.8496 9.64249 14.854 10.0357C14.854 10.1281 14.8299 10.195 14.7302 10.2046C14.6306 10.2142 14.6048 10.1297 14.6048 10.0453C14.6198 9.24985 14.455 8.46117 14.1225 7.73699C13.8425 7.14194 13.4277 6.61891 12.9105 6.2086C12.3932 5.7983 11.7873 5.51178 11.14 5.37133C10.7978 5.29282 10.4478 5.25222 10.0966 5.25026C10.0624 5.25084 10.0282 5.24655 9.99527 5.23751C9.9672 5.22967 9.9433 5.21134 9.9286 5.18637C9.9139 5.16141 9.90956 5.13177 9.91649 5.1037C9.9167 5.09038 9.91958 5.07724 9.92496 5.06503C9.93035 5.05283 9.93813 5.04181 9.94786 5.03262C9.95758 5.02342 9.96906 5.01624 9.98162 5.01149C9.99418 5.00673 10.0076 5.0045 10.021 5.00493C10.0933 4.99537 10.1673 4.99856 10.2397 4.99856Z" fill="white"></path>
      <path id="Vector_4" d="M13.3433 9.31873C13.3379 8.87616 13.2279 8.441 13.0222 8.04816C12.8164 7.65532 12.5206 7.31572 12.1584 7.05662C11.7357 6.76244 11.2443 6.57986 10.7307 6.52614C10.6438 6.51499 10.557 6.51021 10.4686 6.50065C10.3802 6.49109 10.3271 6.45445 10.3352 6.36524C10.3432 6.27603 10.3995 6.24417 10.4959 6.25054C11.9204 6.33657 13.1327 7.13468 13.5057 8.62098C13.574 8.90757 13.608 9.20111 13.607 9.49556C13.607 9.52264 13.607 9.54972 13.607 9.57521C13.607 9.65486 13.5556 9.70743 13.4768 9.70584C13.4593 9.70526 13.4422 9.70115 13.4263 9.69377C13.4105 9.6864 13.3964 9.6759 13.3848 9.66293C13.3732 9.64996 13.3644 9.63479 13.3589 9.61833C13.3535 9.60188 13.3515 9.5845 13.353 9.56724C13.3401 9.49237 13.3433 9.41591 13.3433 9.31873Z" fill="white"></path>
      <path id="Vector_5" d="M10.8475 7.54398C11.6289 7.59655 12.1739 7.97569 12.3235 8.79929C12.3416 8.9048 12.3545 9.01113 12.3621 9.1179C12.3621 9.20392 12.3428 9.2772 12.2479 9.2772C12.153 9.2772 12.1209 9.21348 12.1177 9.1179C12.1168 8.80219 12.0186 8.49428 11.8363 8.23535C11.6447 8.00084 11.3697 7.84804 11.0678 7.80842C11.0003 7.79591 10.9321 7.7874 10.8636 7.78293C10.751 7.78293 10.6883 7.72718 10.7028 7.64115C10.7173 7.55513 10.7848 7.5392 10.8475 7.54398Z" fill="white"></path>
    </g>
  </g>
</svg>
