<?xml version="1.0" encoding="UTF-8"?>
<svg xmlns="http://www.w3.org/2000/svg" width="60" height="60" viewBox="0 0 60 60" fill="none">
  <g id="Frame" opacity="0.6" clip-path="url(#clip0_839_3941)">
    <path id="Vector" d="M14.5145 60.0006C13.1195 59.5626 12.4925 58.5456 12.1007 57.1845C8.15083 42.9628 4.15397 28.7412 0.172776 14.5195C-0.328791 12.7516 0.219798 11.234 1.61478 10.3892C3.07246 9.51303 4.70256 9.73206 6.06619 10.9837C6.09754 11.015 6.12889 11.0306 6.17591 11.0463C6.84989 10.4205 7.5082 9.74771 8.21353 9.15318C10.8154 6.96283 13.8875 5.85201 17.2261 5.42959C20.596 5.00716 23.9345 5.32007 27.2888 5.60169C30.5019 5.86766 33.7151 6.14927 36.9283 6.21185C40.2982 6.25879 43.5584 5.57039 46.364 3.56779C47.5082 2.73858 48.5113 1.70599 49.5145 0.704684C50.0944 0.125806 50.7527 -0.155811 51.3953 0.125806C52.0693 0.423068 52.3671 1.01759 52.2888 1.70599C52.0693 3.58343 51.8969 5.47652 51.5207 7.32268C50.69 11.5626 49.7653 15.7868 48.8405 20.0111C48.7621 20.3553 48.8405 20.543 49.0913 20.7464C51.9126 23.2653 55.0004 25.4087 58.3703 27.161C60.1728 28.0997 60.5176 29.6956 59.201 31.2914C57.9314 32.8246 56.4424 34.1076 54.7182 35.1089C51.8185 36.7829 48.6367 37.4713 45.3295 37.4557C42.4769 37.44 39.6399 37.221 36.7872 37.0019C33.3389 36.736 29.9063 36.2979 26.4267 36.5952C22.0693 36.9863 18.3703 38.6604 15.549 42.0867C15.2982 42.3996 15.2668 42.6656 15.3609 43.0411C16.5364 47.2184 17.712 51.4113 18.8875 55.5886C19.4988 57.7477 18.6994 59.1558 16.5364 59.766C16.2856 59.8442 16.0192 59.9381 15.7684 60.0163C15.3765 60.0006 14.9377 60.0006 14.5145 60.0006ZM50.1258 3.27053C50.0787 3.25488 50.0317 3.23923 49.969 3.22359C49.8906 3.28617 49.8279 3.33311 49.7496 3.39569C46.6461 6.43089 42.8374 7.80768 38.5584 8.13624C34.7182 8.4335 30.9095 7.94849 27.1007 7.58865C23.8562 7.29139 20.596 6.99412 17.3358 7.41655C13.3232 7.93285 9.96901 9.63819 7.38281 12.7829C7.11635 13.1115 7.085 13.3931 7.19472 13.7842C9.26369 21.1532 11.3327 28.5222 13.3859 35.8911C13.7778 37.2679 14.154 38.6447 14.5458 40.0215C15.4392 39.2549 16.2386 38.4883 17.1164 37.8312C20.3452 35.4061 24.0756 34.5769 28.0098 34.483C32.3201 34.3735 36.5834 35.0463 40.8624 35.3592C43.6211 35.5469 46.364 35.6095 49.0913 35.0619C52.4455 34.3892 55.2511 32.7933 57.4769 30.1806C58.0881 29.4609 58.0568 29.2731 57.2574 28.8507C53.6994 26.9733 50.4392 24.6734 47.4455 21.9824C46.7872 21.3879 46.5991 20.6682 46.7872 19.8233C47.6493 15.8494 48.527 11.8755 49.3577 7.88591C49.7182 6.35266 49.8906 4.80377 50.1258 3.27053ZM3.54268 11.8598C2.36713 11.8442 1.77152 12.7673 2.13202 14.0658C5.31384 25.4087 8.49566 36.7673 11.6775 48.1102C12.5082 51.0984 13.3389 54.071 14.1853 57.0593C14.4204 57.9042 14.7966 58.1232 15.596 57.9198C15.7684 57.8729 15.9408 57.8259 16.0975 57.779C17.1007 57.4974 17.2888 57.1688 17.0066 56.1519C13.7308 44.4648 10.4706 32.7777 7.19472 21.0906C6.44237 18.4152 5.69002 15.7242 4.93767 13.0489C4.70256 12.2666 4.23234 11.8755 3.54268 11.8598Z" fill="#13122D"></path>
  </g>
  <defs>
    <clipPath id="clip0_839_3941">
      <rect width="60" height="60" fill="white"></rect>
    </clipPath>
  </defs>
</svg>
