<?xml version="1.0" encoding="UTF-8"?>
<svg xmlns="http://www.w3.org/2000/svg" width="64" height="64" viewBox="0 0 64 64" fill="none">
  <g id="Frame" opacity="0.6" clip-path="url(#clip0_839_3927)">
    <path id="Vector" d="M38.3764 63.9995C38.3764 56.9033 38.3931 49.7903 38.3931 42.694C38.3931 41.6588 38.3931 40.6236 38.3931 39.5216C39.1109 39.5216 39.7786 39.5216 40.5131 39.5216C40.5131 40.1895 40.5131 40.8407 40.5131 41.5586C41.2476 41.5586 41.9153 41.5586 42.6164 41.5586C42.6331 41.3917 42.6665 41.2247 42.6665 41.0744C42.6665 35.9484 42.6832 30.8224 42.6665 25.6964C42.6498 22.023 40.3962 19.0008 36.8407 18.3664C33.6691 17.8154 30.3806 17.8154 27.209 18.3664C23.7202 18.9841 21.4333 21.9395 21.3832 25.5127C21.3331 30.7556 21.3665 36.0152 21.3665 41.2581C21.3665 41.3416 21.3832 41.4251 21.3999 41.5586C22.0676 41.5586 22.7353 41.5586 23.4698 41.5586C23.4698 40.8908 23.4698 40.2396 23.4698 39.5216C24.2043 39.5216 24.872 39.5216 25.6399 39.5216C25.6399 47.6865 25.6399 55.8347 25.6399 63.9995C24.9388 63.9995 24.221 63.9995 23.5199 63.9995C23.5199 62.981 23.5032 61.9625 23.5032 60.944C23.5032 55.484 23.5032 50.0241 23.5032 44.5641C23.5032 44.3137 23.5032 44.0799 23.5032 43.746C22.0676 43.746 20.6821 43.746 19.2966 43.746C19.2799 43.579 19.2465 43.4788 19.2465 43.3786C19.2465 37.3176 19.1798 31.2565 19.2966 25.1955C19.3801 20.3533 23.2027 16.3794 28.0436 16.0789C30.8981 15.8952 33.8026 15.9119 36.6571 16.179C41.0473 16.5798 44.7197 20.6205 44.7864 25.0285C44.8866 31.1229 44.8365 37.2341 44.8365 43.3452C44.8365 43.4621 44.8031 43.579 44.7864 43.7627C43.4009 43.7627 42.0321 43.7627 40.5632 43.7627C40.5632 44.0632 40.5632 44.297 40.5632 44.5474C40.5632 50.7921 40.5632 57.0536 40.5632 63.2983C40.5632 63.5487 40.5465 63.7992 40.5465 64.0496C39.7953 63.9995 39.0775 63.9995 38.3764 63.9995Z" fill="#13122D"></path>
    <path id="Vector_2" d="M57.6235 63.9999C57.6235 57.3377 57.6235 50.6756 57.6068 44.0134C57.6068 43.9466 57.6235 43.8965 57.6402 43.7964C58.3079 43.7964 58.9923 43.7964 59.7101 43.7964C59.7101 44.4642 59.7101 45.1321 59.7101 45.8334C60.4279 45.8334 61.1123 45.8334 61.8301 45.8334C61.8468 45.6664 61.8635 45.4828 61.8635 45.2991C61.8635 40.9746 61.8802 36.6333 61.8635 32.3088C61.8635 30.0046 60.912 28.218 58.792 27.2328C57.9908 26.8655 57.0393 26.7152 56.1379 26.6985C53.3335 26.6317 50.5124 26.6818 47.708 26.6818C47.4743 26.6818 47.2573 26.6818 46.9902 26.6818C46.9902 25.9639 46.9902 25.2793 46.9902 24.6448C47.0403 24.6114 47.057 24.5947 47.0737 24.5947C50.5291 24.6114 53.9845 24.4778 57.4399 24.6782C60.9788 24.8952 63.9 27.9675 63.9668 31.5073C64.0836 36.9839 64.0001 42.4606 64.0001 48.004C62.6146 48.004 61.2291 48.004 59.7602 48.004C59.7602 53.3972 59.7602 58.7069 59.7602 64.0333C59.0424 63.9999 58.3246 63.9999 57.6235 63.9999Z" fill="#13122D"></path>
    <path id="Vector_3" d="M9.11858e-05 31.1239C0.41741 30.0219 0.684494 28.8364 1.30213 27.8513C2.57077 25.8309 4.50713 24.6621 6.8942 24.5786C10.2327 24.4785 13.588 24.5452 16.9933 24.5452C16.9933 25.2131 16.9933 25.881 16.9933 26.6324C16.7763 26.6324 16.5426 26.6324 16.3256 26.6324C13.5379 26.6324 10.7502 26.6324 7.96253 26.6324C6.04287 26.6324 4.40698 27.2168 3.2051 28.7863C2.48731 29.738 2.12007 30.8067 2.12007 31.9755C2.10338 36.5171 2.10338 41.0587 2.12007 45.5836C2.12007 45.6504 2.13676 45.7005 2.15346 45.8007C2.82117 45.8007 3.50557 45.8007 4.22336 45.8007C4.22336 45.1328 4.22336 44.4649 4.22336 43.7636C4.94114 43.7636 5.60885 43.7636 6.32664 43.7636C6.34334 43.8304 6.37672 43.9139 6.37672 43.9807C6.37672 50.6428 6.37672 57.305 6.36003 63.9671C5.65893 63.9671 4.94114 63.9671 4.24005 63.9671C4.24005 58.6407 4.24005 53.3311 4.24005 47.9713C2.77109 47.9713 1.38559 47.9713 -0.0166016 47.9713C9.11858e-05 42.3778 9.11858e-05 36.7508 9.11858e-05 31.1239Z" fill="#13122D"></path>
    <path id="Vector_4" d="M14.873 64.0004C14.8897 63.7332 14.9231 63.4661 14.9231 63.1989C14.9231 56.9876 14.9231 50.793 14.9231 44.5816C14.9231 44.3312 14.9231 44.0807 14.9231 43.7969C15.6409 43.7969 16.3253 43.7969 17.0431 43.7969C17.0431 44.4648 17.0431 45.1326 17.0431 45.8506C18.4787 45.8506 19.8642 45.8506 21.2831 45.8506C21.2831 46.602 21.2831 47.2699 21.2831 47.9878C19.8809 47.9878 18.5121 47.9878 17.1099 47.9878C17.0932 48.1882 17.0598 48.3552 17.0598 48.5055C17.0598 53.4979 17.0598 58.507 17.0598 63.4995C17.0598 63.6664 17.0932 63.8334 17.1099 63.9837C16.3754 64.0004 15.6242 64.0004 14.873 64.0004Z" fill="#13122D"></path>
    <path id="Vector_5" d="M46.8735 64.0014C46.8902 63.8345 46.9236 63.6675 46.9236 63.5172C46.9236 58.5415 46.9236 53.5658 46.9236 48.59C46.9236 48.423 46.9069 48.2561 46.8902 48.0223C45.488 48.0223 44.1025 48.0223 42.6836 48.0223C42.6836 47.3043 42.6836 46.6365 42.6836 45.9018C44.0691 45.9018 45.4546 45.9018 46.9069 45.9018C46.9069 45.1504 46.9069 44.4825 46.9069 43.7812C47.6413 43.7812 48.3091 43.7812 49.0602 43.7812C49.0602 44.0651 49.0602 44.3156 49.0602 44.5827C49.0602 50.794 49.0602 56.9887 49.0602 63.2C49.0602 63.4671 49.0936 63.7343 49.1103 64.0014C48.3758 64.0014 47.6246 64.0014 46.8735 64.0014Z" fill="#13122D"></path>
    <path id="Vector_6" d="M30.8652 63.9986C30.8819 63.7315 30.9153 63.4643 30.9153 63.1971C30.9153 56.9858 30.9153 50.7912 30.9153 44.5799C30.9153 44.3127 30.9153 44.0456 30.9153 43.7617C31.6498 43.7617 32.3175 43.7617 33.052 43.7617C33.052 44.0456 33.052 44.3127 33.052 44.5799C33.052 50.7912 33.052 56.9858 33.052 63.1971C33.052 63.4643 33.0854 63.7315 33.1021 63.9986C32.3676 63.9986 31.6164 63.9986 30.8652 63.9986Z" fill="#13122D"></path>
    <path id="Vector_7" d="M9.63184 64.0004C9.63184 58.6907 9.63184 53.3978 9.63184 48.0547C10.3162 48.0547 11.0006 48.0547 11.7518 48.0547C11.7518 53.3811 11.7518 58.6907 11.7518 64.0004C11.034 64.0004 10.3329 64.0004 9.63184 64.0004Z" fill="#13122D"></path>
    <path id="Vector_8" d="M52.248 64.0004C52.248 58.6907 52.248 53.3978 52.248 48.0547C52.9658 48.0547 53.6335 48.0547 54.368 48.0547C54.368 53.3811 54.368 58.6907 54.368 64.0004C53.6669 64.0004 52.9491 64.0004 52.248 64.0004Z" fill="#13122D"></path>
    <path id="Vector_9" d="M31.9832 14.9273C27.8601 14.9273 24.5049 11.5545 24.5215 7.44697C24.5382 3.33948 27.9269 -0.0166351 32.0333 6.2034e-05C36.123 0.0167591 39.4616 3.37288 39.4616 7.46367C39.4783 11.5712 36.1063 14.9273 31.9832 14.9273ZM31.9665 12.7733C34.8877 12.8067 37.2748 10.4358 37.3249 7.49706C37.375 4.62516 34.9545 2.17069 32.0333 2.13729C29.1454 2.1039 26.725 4.50828 26.6749 7.43027C26.6081 10.3189 29.0286 12.7566 31.9665 12.7733Z" fill="#13122D"></path>
    <path id="Vector_10" d="M46.9395 17.0474C46.9395 13.5577 49.8774 10.6357 53.3495 10.6524C56.8383 10.6691 59.7429 13.5911 59.7429 17.0641C59.7262 20.5371 56.8049 23.4591 53.3328 23.4591C49.8274 23.4591 46.9228 20.5371 46.9395 17.0474ZM49.0762 17.0808C49.0929 19.4184 50.9959 21.3386 53.3162 21.3386C55.6364 21.3386 57.5728 19.4184 57.5895 17.0975C57.6062 14.7766 55.6198 12.7896 53.2995 12.823C50.9458 12.8397 49.0595 14.7432 49.0762 17.0808Z" fill="#13122D"></path>
    <path id="Vector_11" d="M17.0602 17.0797C17.0436 20.5694 14.139 23.4746 10.6502 23.4746C7.17814 23.458 4.24021 20.536 4.25691 17.063C4.25691 13.59 7.19483 10.668 10.6669 10.668C14.1724 10.668 17.0769 13.59 17.0602 17.0797ZM14.9236 17.0797C14.9403 14.7421 13.054 12.8386 10.7003 12.8052C8.38002 12.7718 6.37689 14.7588 6.39358 17.0797C6.41027 19.4006 8.34663 21.3207 10.6669 21.3207C12.9872 21.3374 14.9069 19.4173 14.9236 17.0797Z" fill="#13122D"></path>
  </g>
  <defs>
    <clipPath id="clip0_839_3927">
      <rect width="64" height="64" fill="white"></rect>
    </clipPath>
  </defs>
</svg>
