<?xml version="1.0" encoding="UTF-8"?>
<svg xmlns="http://www.w3.org/2000/svg" width="59" height="61" viewBox="0 0 59 61" fill="none">
  <g id="Frame" opacity="0.6" clip-path="url(#clip0_893_9033)">
    <path id="Vector" d="M9.35135 21.4787C8.92319 20.5381 8.47791 19.5463 8.0155 18.5373C4.81288 11.389 9.21434 3.53953 15.6538 1.00855C24.1142 -2.32619 33.311 2.97519 34.6297 11.9704C34.9551 14.1423 34.5955 16.2286 33.7392 18.1953C32.9513 20.008 32.0094 21.7523 31.1188 23.5137C31.0161 23.719 30.8962 23.9242 30.7249 24.2491C31.4442 23.8729 32.0437 23.5479 32.6773 23.2743C33.2425 23.0349 33.8248 22.8297 34.4071 22.6758C35.2463 22.4535 36.0512 22.5561 36.8561 22.9494C37.4213 23.223 38.0207 23.4453 38.6201 23.6505C39.0312 23.8045 39.4422 23.736 39.682 23.2914C40.7609 21.1367 42.7133 20.2645 44.9226 19.9225C48.4335 19.3923 51.7902 19.9738 54.873 21.701C58.6065 23.7874 59.8567 27.3957 58.4352 31.7052C57.459 34.6808 55.695 37.2118 53.6741 39.5718C53.2974 40.0164 53.1946 40.3242 53.5029 40.8715C54.1023 41.9317 54.068 43.1288 53.7426 44.2746C53.383 45.5572 52.9035 46.7885 52.5781 48.0711C52.2013 49.5247 52.5438 50.3113 53.8111 51.1493C54.3592 51.5084 54.9586 51.7991 55.4724 52.1925C55.9862 52.5858 56.5342 52.9962 56.8939 53.5264C58.0927 55.2707 57.8872 56.9637 56.3458 58.4173C54.9757 59.717 53.246 60.3497 51.4306 60.5721C46.7037 61.1193 41.9598 61.2903 37.25 60.3668C36.4451 60.2129 35.6402 60.0248 34.8866 59.7341C32.1293 58.6396 29.2349 58.3489 26.3064 58.1437C23.0695 57.9043 19.8326 57.6306 16.5958 57.2886C15.4312 57.1689 14.2837 56.7927 13.1534 56.4678C11.5606 56.0231 10.6016 54.9458 10.2419 53.3211C9.84801 51.4913 9.48836 49.6444 9.00882 47.8317C8.47791 45.8137 7.65585 43.8984 6.32 42.2396C5.4123 41.1109 4.28197 40.29 2.84336 39.9822C2.82624 39.9822 2.80911 39.9651 2.79199 39.9651C0.822464 39.3837 0.599823 37.588 0.137413 36.0147C-0.187986 34.8689 0.411434 33.9797 1.31913 33.2614C1.49039 33.1246 1.59315 32.7997 1.57602 32.5774C1.45614 31.2948 1.23349 30.0293 1.14786 28.7467C1.02798 27.1221 0.856717 25.4804 0.993727 23.8729C1.19924 21.188 3.20302 19.7686 5.85759 20.3671C7.00505 20.6236 8.16963 21.0854 9.35135 21.4787ZM15.8765 31.2948C15.8593 31.2606 15.8079 31.1751 15.7566 31.0896C14.3522 29.0545 12.965 27.0195 11.5606 24.9844C11.475 24.8647 11.3894 24.745 11.2866 24.6766C9.40273 23.565 7.51884 22.4364 5.32667 22.043C3.92232 21.7865 3.01463 22.4022 2.89474 23.8216C2.79199 24.8818 2.86049 25.9763 2.94612 27.0537C3.10026 28.8835 3.34003 30.6962 3.49416 32.5261C3.56267 33.4324 3.27152 34.202 2.43233 34.715C2.22682 34.8347 2.0213 35.2452 2.07268 35.4504C2.24394 36.1173 2.48371 36.7843 2.79199 37.3828C2.929 37.6564 3.27152 37.913 3.56267 37.9814C5.25817 38.4089 6.61114 39.3153 7.74148 40.6149C8.92319 41.9659 9.81376 43.5221 10.3275 45.2323C10.9612 47.3528 11.5264 49.5076 11.9032 51.6965C12.2114 53.4408 13.0506 54.4669 14.7804 54.7918C16.0991 55.0484 17.4178 55.3904 18.7537 55.5272C21.6309 55.8008 24.5081 55.9718 27.3853 56.1599C30.1426 56.3481 32.8657 56.7072 35.486 57.699C36.6677 58.1437 37.918 58.4002 39.1682 58.6054C42.3708 59.1356 45.6077 59.0671 48.8445 58.8448C50.5058 58.7251 52.2184 58.6738 53.7426 57.8872C54.4448 57.528 55.147 57.0321 55.6779 56.4507C56.3287 55.7324 56.1403 54.7405 55.3868 54.1249C55.1127 53.8855 54.7873 53.7145 54.4791 53.5093C53.6741 52.9791 52.8349 52.5174 52.0814 51.9359C51.0538 51.1664 50.54 50.0719 50.6599 48.7893C50.7284 47.9856 50.8997 47.1818 51.1052 46.3951C51.3792 45.3349 51.8074 44.3088 52.0471 43.2314C52.2698 42.2738 52.0643 41.3674 51.2765 40.6662C50.814 40.2387 50.814 39.8112 51.208 39.3324C51.6532 38.8022 52.1328 38.2892 52.5781 37.759C54.3078 35.6556 55.8834 33.4324 56.6884 30.7817C57.8016 27.105 56.5 24.2149 52.9891 22.6587C51.1908 21.8549 49.2898 21.4274 47.3374 21.4274C44.7685 21.4274 42.3023 21.7694 40.8808 24.4201C40.367 25.3607 39.3737 25.6343 38.3119 25.3265C37.6782 25.1384 37.0445 24.9673 36.4622 24.6766C35.6573 24.2833 34.8524 24.232 34.0988 24.6424C32.5574 25.4804 31.0503 26.3867 29.5432 27.276C29.0466 27.5667 28.4985 27.8403 28.156 28.2679C27.3682 29.2597 26.7003 30.32 25.981 31.3632C26.0323 31.3974 26.0666 31.4145 26.1008 31.4316C26.255 31.4829 26.4091 31.5171 26.5804 31.5684C28.1902 32.0301 29.7316 32.6287 30.9304 33.8429C32.3519 35.2965 32.4204 37.1605 30.9647 38.5628C30.2796 39.2297 29.4405 39.8283 28.5499 40.2045C23.9087 42.1199 19.1647 42.1027 14.3865 40.6491C13.102 40.2558 11.9203 39.6402 10.9783 38.6483C9.55686 37.1776 9.53973 35.3649 10.9783 33.9113C11.475 33.4153 12.0573 32.9536 12.691 32.6458C13.7014 32.1156 14.7975 31.7394 15.8765 31.2948ZM20.8602 34.9031C22.6927 32.4235 24.4738 30.0977 26.1522 27.7035C28.3786 24.5398 30.4509 21.2906 31.9238 17.6993C32.6602 15.9037 33.0027 14.0568 32.7458 12.073C31.8553 5.38646 25.0904 0.649424 18.4283 2.05172C11.6805 3.45402 6.57689 11.0641 9.95077 18.2637C11.7833 22.1798 14.0611 25.7882 16.5786 29.2597C17.9316 31.1238 19.3531 32.9365 20.8602 34.9031ZM20.7403 40.0506C22.1789 39.8625 23.6175 39.7428 25.039 39.4863C26.5461 39.1955 28.019 38.7167 29.2007 37.6735C30.2283 36.7843 30.2111 35.895 29.1836 34.9886C29.0123 34.8347 28.841 34.6637 28.6355 34.5953C27.4196 34.1165 26.2036 33.6548 25.0048 33.193C24.6622 33.0562 24.4567 33.193 24.2341 33.4666C23.3949 34.544 22.5386 35.6214 21.6823 36.6817C21.1171 37.3657 20.5862 37.3657 20.0039 36.7159C19.3188 35.9292 18.6509 35.1255 17.983 34.3388C16.8527 33.022 16.8527 33.0049 15.1914 33.535C14.0782 33.8942 12.9821 34.3217 12.1258 35.1426C11.3037 35.9292 11.2695 36.7501 12.1087 37.5196C12.6053 37.9643 13.1876 38.3405 13.787 38.6312C15.9963 39.6402 18.3426 39.9138 20.7403 40.0506Z" fill="#13122D"></path>
    <path id="Vector_2" d="M20.8254 7.62891C24.302 7.62891 27.1107 10.3993 27.1278 13.8708C27.145 17.2911 24.2849 20.147 20.8425 20.147C17.4173 20.147 14.54 17.2911 14.54 13.8879C14.54 10.4335 17.3659 7.62891 20.8254 7.62891ZM20.8425 18.3514C23.3258 18.3514 25.3467 16.3334 25.3296 13.8708C25.3125 11.4254 23.3258 9.44163 20.8596 9.44163C18.4277 9.44163 16.3897 11.4425 16.3725 13.8708C16.3554 16.3505 18.3421 18.3514 20.8425 18.3514Z" fill="#13122D"></path>
  </g>
  <defs>
    <clipPath id="clip0_893_9033">
      <rect width="59" height="61" fill="white"></rect>
    </clipPath>
  </defs>
</svg>
