<?xml version="1.0" encoding="UTF-8"?>
<svg xmlns="http://www.w3.org/2000/svg" width="18" height="18" viewBox="0 0 18 18" fill="none">
  <g id="Frame" clip-path="url(#clip0_890_4493)">
    <g id="Group">
      <path id="Vector" d="M11.9897 0.5C12.0574 0.565806 12.0574 0.631613 11.9671 0.675484C11.6059 0.894839 11.2221 1.13613 10.8608 1.35548C10.7931 1.39935 10.7254 1.39935 10.6577 1.39935C10.2513 1.39935 9.8449 1.39935 9.50626 1.39935C9.68687 1.59677 9.86748 1.81613 10.0707 2.03548C11.1543 3.17613 11.3124 5.01871 10.4093 6.29097C10.0932 6.75161 9.66429 7.08065 9.23534 7.43161C9.03215 7.6071 8.82897 7.80452 8.67093 8.00194C8.30971 8.46258 8.37744 9.0329 8.87412 9.44968C9.30307 9.80064 9.7546 10.1297 10.2061 10.5026C10.7028 10.8974 11.1543 11.3361 11.4478 11.9284C11.9445 12.9374 11.8768 13.9465 11.3575 14.9335C10.8157 15.9426 9.91263 16.5787 8.85154 16.9955C7.54211 17.5 6.18753 17.6097 4.81037 17.4561C3.99763 17.3684 3.20745 17.1929 2.48501 16.7761C1.58195 16.2497 0.972393 15.5258 0.92724 14.4729C0.882088 13.5516 1.28846 12.8058 1.94318 12.1697C2.48501 11.6652 3.1623 11.3361 3.88474 11.1168C4.81037 10.8316 5.73601 10.7219 6.70679 10.6561C6.79709 10.6561 6.8874 10.6342 7.02286 10.6342C6.39072 9.93226 6.09723 9.16452 6.54875 8.30903C6.21011 8.30903 5.89404 8.33097 5.57797 8.30903C4.06535 8.15548 2.93654 7.49742 2.32697 6.11548C1.87545 5.10645 1.96575 4.09742 2.46243 3.11032C3.00427 2.05742 3.88474 1.37742 4.99099 0.93871C5.62312 0.675484 6.30041 0.565806 7.00028 0.521935C7.06801 0.521935 7.11316 0.5 7.18089 0.5C8.78381 0.5 10.3867 0.5 11.9897 0.5ZM6.84225 16.5568C7.45181 16.5568 7.99364 16.491 8.53547 16.3155C9.09988 16.1181 9.61914 15.8329 9.93521 15.3065C10.4996 14.429 10.3642 13.3323 9.57399 12.6303C9.07731 12.1697 8.5129 11.7968 7.97106 11.3581C7.81303 11.2265 7.655 11.1826 7.47438 11.2045C6.90998 11.2484 6.34557 11.2703 5.80373 11.3361C5.05871 11.4458 4.35885 11.6652 3.74929 12.1477C3.09457 12.6742 2.82365 13.3542 2.93654 14.1658C3.04942 15.0432 3.59125 15.6135 4.38142 16.0084C5.14902 16.4252 6.00692 16.5568 6.84225 16.5568ZM9.00958 5.41355C8.987 5.12839 8.96442 4.84323 8.91927 4.58C8.73866 3.61484 8.40002 2.73742 7.67757 2.03548C7.24862 1.59677 6.70679 1.35548 6.07465 1.35548C4.99098 1.37742 4.15566 2.18903 4.06535 3.26387C3.99763 4.16323 4.15566 4.99677 4.51688 5.80839C4.7878 6.42258 5.1716 6.97097 5.78116 7.34387C6.61648 7.84839 7.88076 7.65097 8.5129 6.90516C8.8967 6.48839 9.00958 5.96194 9.00958 5.41355Z" fill="#13122D"></path>
      <path id="Vector_2" d="M15.6013 8.44205C16.2786 8.44205 16.9559 8.44205 17.6106 8.44205C17.8815 8.44205 17.8815 8.44205 17.8815 8.70527C17.8815 8.92463 17.8815 9.12205 17.8815 9.3414C17.8815 9.56076 17.8815 9.56076 17.6557 9.56076C17.0462 9.56076 16.4366 9.56076 15.8045 9.56076C15.7368 9.56076 15.6916 9.56076 15.6013 9.56076C15.6013 9.62656 15.6013 9.69237 15.6013 9.75817C15.6013 10.3724 15.6013 10.9646 15.6013 11.5788C15.6013 11.7762 15.5787 11.7982 15.3755 11.7982C15.1498 11.7982 14.924 11.7982 14.7208 11.7982C14.5176 11.7982 14.4951 11.7762 14.4951 11.5788C14.4951 10.9208 14.4951 10.2627 14.4951 9.56076C14.4273 9.56076 14.3596 9.56076 14.2919 9.56076C13.6823 9.56076 13.0502 9.56076 12.4406 9.56076C12.2826 9.56076 12.2148 9.51688 12.2148 9.3414C12.2148 9.12205 12.2148 8.90269 12.2148 8.68334C12.2148 8.46398 12.2148 8.44205 12.4632 8.44205C13.0727 8.44205 13.6823 8.44205 14.3144 8.44205C14.3822 8.44205 14.4273 8.44205 14.5176 8.44205C14.5176 8.3543 14.5176 8.26656 14.5176 8.20076C14.5176 7.6085 14.5176 7.03818 14.5176 6.44592C14.5176 6.2485 14.5402 6.22656 14.7434 6.22656C14.9692 6.22656 15.1949 6.22656 15.3981 6.22656C15.6239 6.22656 15.6239 6.2485 15.6239 6.44592C15.6239 7.03818 15.6239 7.63043 15.6239 8.24463C15.6013 8.2885 15.6013 8.3543 15.6013 8.44205Z" fill="#13122D"></path>
    </g>
  </g>
  <defs>
    <clipPath id="clip0_890_4493">
      <rect width="17" height="17" fill="white" transform="translate(0.904297 0.5)"></rect>
    </clipPath>
  </defs>
</svg>
