<?xml version="1.0" encoding="UTF-8"?>
<svg xmlns="http://www.w3.org/2000/svg" width="55" height="55" viewBox="0 0 55 55" fill="none">
  <g id="Frame" opacity="0.6" clip-path="url(#clip0_839_3939)">
    <path id="Vector" d="M25.67 0C26.8903 0 28.1106 0 29.3309 0C29.4744 0.0286982 29.6036 0.0860945 29.7472 0.0860945C32.3745 0.286981 34.9299 0.817897 37.3562 1.82233C46.8315 5.73963 52.6172 12.7276 54.6128 22.8007C54.7994 23.7477 54.8856 24.7091 55.0291 25.6561C55.0291 26.9045 55.0291 28.1672 55.0291 29.4156C55.0004 29.5447 54.9573 29.6882 54.9286 29.8174C54.6989 31.2379 54.5554 32.7015 54.2108 34.0934C50.6647 48.3851 36.6097 57.2959 22.1669 54.4547C10.251 52.1302 1.17765 42.1576 0.129622 30.1187C-0.588207 21.911 1.89548 14.7078 7.49454 8.66684C11.6292 4.20428 16.7689 1.4923 22.7556 0.430472C23.7175 0.243934 24.6937 0.143491 25.67 0ZM41.534 26.6175C41.4622 22.3559 40.8161 18.2233 39.5097 14.1769C35.8344 15.167 32.1304 15.6692 28.3833 15.7409C28.3833 19.4143 28.3833 23.0016 28.3833 26.6175C32.7621 26.6175 37.1121 26.6175 41.534 26.6175ZM15.4337 14.263C14.1703 18.2664 13.4956 22.3846 13.4812 26.6032C17.8887 26.6032 22.2531 26.6032 26.6031 26.6032C26.6031 22.9729 26.6031 19.3856 26.6031 15.827C24.7224 15.6548 22.8704 15.5544 21.0328 15.2961C19.1808 15.0378 17.3431 14.6217 15.4337 14.263ZM13.4669 28.3825C13.5243 32.6154 14.1703 36.7049 15.4624 40.737C19.1521 39.7326 22.8417 39.2304 26.5888 39.1586C26.5888 35.5283 26.5888 31.9554 26.5888 28.3825C22.21 28.3825 17.86 28.3825 13.4669 28.3825ZM39.5527 40.6366C40.8018 36.6762 41.4765 32.6011 41.5052 28.3968C37.0978 28.3968 32.7477 28.3968 28.3977 28.3968C28.3977 31.9984 28.3977 35.5714 28.3977 39.0725C30.2928 39.2447 32.1591 39.3595 33.9968 39.6178C35.82 39.8761 37.6433 40.2779 39.5527 40.6366ZM7.63811 11.0775C3.96282 15.5544 1.98162 20.7344 1.7232 26.6032C5.09699 26.6032 8.399 26.6032 11.6292 26.6032C11.8589 24.4078 12.0025 22.2267 12.3614 20.0744C12.706 17.9363 13.2802 15.827 13.7396 13.7608C11.7584 12.8998 9.73416 12.0102 7.63811 11.0775ZM53.2633 26.6175C52.9905 20.7057 51.0093 15.5257 47.3484 11.0775C45.2379 12.0102 43.228 12.8998 41.1607 13.8182C42.4815 17.922 43.185 22.2124 43.2424 26.6175C46.6018 26.6175 49.9038 26.6175 53.2633 26.6175ZM13.7971 41.0814C12.4906 36.9919 11.8015 32.7302 11.7441 28.3968C8.37029 28.3968 5.05392 28.3968 1.7232 28.3968C1.99598 34.2656 3.96282 39.4169 7.58068 43.8508C9.66238 42.9181 11.701 42.0141 13.7971 41.0814ZM41.1894 41.0814C43.2855 42.0141 45.3241 42.9181 47.4201 43.8508C51.0524 39.3882 53.0192 34.2225 53.2633 28.3825C49.8895 28.3825 46.5875 28.3825 43.2424 28.3825C43.1706 32.7733 42.4815 37.0206 41.1894 41.0814ZM28.3833 53.192C28.613 53.1633 28.8284 53.149 29.0294 53.1059C30.465 52.8189 31.7284 52.1732 32.8769 51.2836C35.2601 49.4182 36.8537 46.9645 38.1315 44.2669C38.4186 43.6499 38.677 43.0042 38.9641 42.3298C35.4468 41.3971 31.9581 40.8949 28.3833 40.8662C28.3833 45.013 28.3833 49.0882 28.3833 53.192ZM26.6031 53.192C26.6031 49.0882 26.6031 45.013 26.6031 40.8949C23.014 40.9236 19.511 41.4258 16.0367 42.3585C16.9268 44.6543 18.0035 46.7493 19.4823 48.6434C20.6739 50.1644 22.0521 51.4845 23.7892 52.3598C24.665 52.7902 25.5838 53.1346 26.6031 53.192ZM26.6031 1.79363C25.2393 1.92278 24.0477 2.41064 22.9422 3.1281C20.5016 4.7065 18.8219 6.9593 17.4867 9.48474C16.9699 10.4605 16.5248 11.4936 16.0367 12.498C18.2189 13.3016 25.1675 14.2343 26.6031 13.933C26.6031 9.90086 26.6031 5.86877 26.6031 1.79363ZM38.8923 12.498C38.0166 10.2739 36.9255 8.17897 35.4468 6.28489C34.2695 4.79259 32.92 3.50117 31.2116 2.64023C30.3215 2.19541 29.4027 1.86538 28.3833 1.79363C28.3833 5.86877 28.3833 9.92956 28.3833 13.976C30.6086 14.1625 37.3849 13.2011 38.8923 12.498ZM40.6295 42.7315C39.1651 46.4193 37.2844 49.6621 34.4275 52.2737C38.9785 51.011 42.8691 48.6864 46.2573 45.1709C44.3191 44.3386 42.4958 43.5494 40.6295 42.7315ZM14.4 42.832C12.4332 43.4633 10.6099 44.2382 8.85841 45.2426C11.1698 48.0981 17.9748 52.1589 20.6021 52.2306C17.6877 49.6765 15.8357 46.4193 14.4 42.832ZM46.1424 9.75737C43.3572 6.61492 36.8968 2.79807 34.3557 2.74067C35.82 4.00339 37.0547 5.42395 38.0022 7.0454C38.9498 8.65249 39.7681 10.3313 40.7156 12.1106C42.4528 11.3645 44.2617 10.5753 46.1424 9.75737ZM14.2708 12.1106C15.2327 10.3026 16.0654 8.62379 17.0129 7.0167C17.9605 5.39525 19.1951 4.00339 20.5734 2.72632C16.0511 3.97469 12.1891 6.28489 8.81534 9.75737C10.7248 10.5896 12.5337 11.3645 14.2708 12.1106Z" fill="#13122D"></path>
  </g>
  <defs>
    <clipPath id="clip0_839_3939">
      <rect width="55" height="55" fill="white"></rect>
    </clipPath>
  </defs>
</svg>
