<?xml version="1.0" encoding="UTF-8"?>
<svg xmlns="http://www.w3.org/2000/svg" width="47" height="59" viewBox="0 0 47 59" fill="none">
  <g id="Frame" clip-path="url(#clip0_448_348)">
    <g id="Group">
      <path id="Vector" d="M23.5283 0C35.0436 0.0192308 44.9302 8.44231 46.693 19.8846C47.7851 26.9808 46.0415 33.3654 41.4048 38.8654C35.9633 45.3269 30.426 51.7115 24.927 58.1346C23.9307 59.3077 23.1068 59.3077 22.1104 58.1346C16.554 51.6538 10.9783 45.2115 5.47936 38.7115C-5.05876 26.2692 0.306104 6.67308 15.6534 1.36538C18.3359 0.442308 20.9033 0 23.5283 0ZM23.49 55.25C23.7582 54.9423 23.969 54.7308 24.1606 54.4808C29.1231 48.6923 34.0856 42.9231 39.0289 37.1154C43.11 32.3077 44.7386 26.7308 43.819 20.5192C42.152 9.07692 31.4989 1.30769 20.0603 3.28846C12.3004 4.63462 6.87806 9.17308 4.19563 16.5962C1.5132 24.0385 2.91189 30.9615 7.93187 37.0769C10.4227 40.1154 13.0285 43.0577 15.596 46.0385C18.2209 49.0962 20.8075 52.1346 23.49 55.25Z" fill="#D6B46F"></path>
      <path id="Vector_2" d="M23.4505 13.2685C29.0069 13.1916 33.682 17.7878 33.7778 23.4416C33.8736 29.1147 29.2943 33.8455 23.6037 33.9224C17.9515 33.9993 13.2764 29.3839 13.1998 23.6724C13.1423 18.0185 17.7216 13.3647 23.4505 13.2685ZM23.4313 30.9608C27.5507 30.9608 30.808 27.7301 30.8271 23.5955C30.8271 19.5185 27.5699 16.2493 23.4888 16.2493C19.4651 16.2493 16.1887 19.4993 16.1696 23.557C16.1504 27.6339 19.3885 30.9608 23.4313 30.9608Z" fill="#D6B46F"></path>
    </g>
  </g>
  <defs>
    <clipPath id="clip0_448_348">
      <rect width="47" height="59" fill="white"></rect>
    </clipPath>
  </defs>
</svg>
