<?xml version="1.0" encoding="UTF-8"?>
<svg xmlns="http://www.w3.org/2000/svg" width="169" height="42" viewBox="0 0 169 42" fill="none">
  <g id="Logo" clip-path="url(#clip0_387_106)">
    <path id="Vector" d="M50.8594 29.3534H62.8114V25.7534H55.1074V12.1934H50.8594V29.3534Z" fill="#1A1414"></path>
    <path id="Vector_2" d="M69.8938 26.9545C68.1898 26.9545 67.3018 25.4665 67.3018 23.2345C67.3018 21.0025 68.1898 19.4905 69.8938 19.4905C71.5978 19.4905 72.5098 21.0025 72.5098 23.2345C72.5098 25.4665 71.5978 26.9545 69.8938 26.9545ZM69.9178 29.7385C73.8778 29.7385 76.4698 26.9305 76.4698 23.2345C76.4698 19.5385 73.8778 16.7305 69.9178 16.7305C65.9818 16.7305 63.3418 19.5385 63.3418 23.2345C63.3418 26.9305 65.9818 29.7385 69.9178 29.7385Z" fill="#1A1414"></path>
    <path id="Vector_3" d="M83.3245 33.6011C85.1485 33.6011 86.7565 33.1931 87.8365 32.2331C88.8205 31.3451 89.4685 30.0011 89.4685 28.1531V17.0651H85.7245V18.3851H85.6765C84.9565 17.3531 83.8526 16.7051 82.2206 16.7051C79.1726 16.7051 77.0605 19.2491 77.0605 22.8491C77.0605 26.6171 79.6285 28.6811 82.3885 28.6811C83.8765 28.6811 84.8125 28.0811 85.5325 27.2651H85.6285V28.4891C85.6285 29.9771 84.9326 30.8411 83.2766 30.8411C81.9806 30.8411 81.3325 30.2891 81.1165 29.6411H77.3245C77.7085 32.2091 79.9405 33.6011 83.3245 33.6011ZM83.3005 25.7771C81.8365 25.7771 80.8765 24.5771 80.8765 22.7291C80.8765 20.8571 81.8365 19.6571 83.3005 19.6571C84.9325 19.6571 85.7965 21.0491 85.7965 22.7051C85.7965 24.4331 85.0045 25.7771 83.3005 25.7771Z" fill="#1A1414"></path>
    <path id="Vector_4" d="M97.1653 26.9545C95.4613 26.9545 94.5733 25.4665 94.5733 23.2345C94.5733 21.0025 95.4613 19.4905 97.1653 19.4905C98.8693 19.4905 99.7813 21.0025 99.7813 23.2345C99.7813 25.4665 98.8693 26.9545 97.1653 26.9545ZM97.1893 29.7385C101.149 29.7385 103.741 26.9305 103.741 23.2345C103.741 19.5385 101.149 16.7305 97.1893 16.7305C93.2533 16.7305 90.6133 19.5385 90.6133 23.2345C90.6133 26.9305 93.2533 29.7385 97.1893 29.7385Z" fill="#1A1414"></path>
    <path id="Vector_5" d="M104.885 29.3534H108.797V17.0654H104.885V29.3534ZM104.885 15.3614H108.797V12.1934H104.885V15.3614Z" fill="#1A1414"></path>
    <path id="Vector_6" d="M110.494 33.4091H114.406V28.0811H114.454C115.222 29.1131 116.35 29.7371 117.934 29.7371C121.15 29.7371 123.286 27.1931 123.286 23.2091C123.286 19.5131 121.294 16.7051 118.03 16.7051C116.35 16.7051 115.15 17.4491 114.31 18.5531H114.238V17.0651H110.494V33.4091ZM116.926 26.7131C115.246 26.7131 114.286 25.3451 114.286 23.3531C114.286 21.3611 115.15 19.8491 116.854 19.8491C118.534 19.8491 119.326 21.2411 119.326 23.3531C119.326 25.4411 118.414 26.7131 116.926 26.7131Z" fill="#1A1414"></path>
    <path id="Vector_7" d="M129.656 29.7371C132.872 29.7371 135.248 28.3451 135.248 25.6571C135.248 22.5131 132.704 21.9611 130.544 21.6011C128.984 21.3131 127.592 21.1931 127.592 20.3291C127.592 19.5611 128.336 19.2011 129.296 19.2011C130.376 19.2011 131.12 19.5371 131.264 20.6411H134.864C134.672 18.2171 132.8 16.7051 129.32 16.7051C126.416 16.7051 124.016 18.0491 124.016 20.6411C124.016 23.5211 126.296 24.0971 128.432 24.4571C130.064 24.7451 131.552 24.8651 131.552 25.9691C131.552 26.7611 130.808 27.1931 129.632 27.1931C128.336 27.1931 127.52 26.5931 127.376 25.3691H123.68C123.8 28.0811 126.056 29.7371 129.656 29.7371Z" fill="#1A1414"></path>
    <path id="Vector_8" d="M140.56 29.7144C142.264 29.7144 143.344 29.0424 144.232 27.8424H144.304V29.3544H148.048V17.0664H144.136V23.9304C144.136 25.3944 143.32 26.4024 141.976 26.4024C140.728 26.4024 140.128 25.6584 140.128 24.3144V17.0664H136.24V25.1304C136.24 27.8664 137.728 29.7144 140.56 29.7144Z" fill="#1A1414"></path>
    <path id="Vector_9" d="M149.75 29.3531H153.662V22.4651C153.662 21.0011 154.382 19.9691 155.606 19.9691C156.782 19.9691 157.334 20.7371 157.334 22.0571V29.3531H161.246V22.4651C161.246 21.0011 161.942 19.9691 163.19 19.9691C164.366 19.9691 164.918 20.7371 164.918 22.0571V29.3531H168.83V21.3611C168.83 18.6011 167.438 16.7051 164.654 16.7051C163.07 16.7051 161.75 17.3771 160.79 18.8651H160.742C160.118 17.5451 158.894 16.7051 157.286 16.7051C155.51 16.7051 154.334 17.5451 153.566 18.8171H153.494V17.0651H149.75V29.3531Z" fill="#1A1414"></path>
    <path id="Vector_10" fill-rule="evenodd" clip-rule="evenodd" d="M20.6842 0.962891C31.946 0.962891 41.0755 10.0924 41.0755 21.3542C41.0755 32.6161 31.946 41.7456 20.6842 41.7456C9.42234 41.7456 0.292847 32.6161 0.292847 21.3542C0.292847 10.0924 9.42234 0.962891 20.6842 0.962891ZM40.2928 21.3542C40.2928 10.5247 31.5137 1.74551 20.6842 1.74551C19.8106 1.74551 18.9505 1.80263 18.1071 1.91334C18.652 1.8657 19.2034 1.84138 19.7606 1.84138C30.1088 1.84138 38.4977 10.2303 38.4977 20.5785C38.4977 30.9266 30.1088 39.3155 19.7606 39.3155C9.96366 39.3155 1.92284 31.7966 1.09401 22.2145C1.54426 32.6449 10.1428 40.9629 20.6842 40.9629C31.5137 40.9629 40.2928 32.1838 40.2928 21.3542ZM37.715 20.5785C37.715 10.6625 29.6766 2.62401 19.7606 2.62401C18.9555 2.62401 18.1627 2.67701 17.3856 2.7797C17.8641 2.73944 18.3482 2.7189 18.8371 2.7189C28.2717 2.7189 35.9199 10.3672 35.9199 19.8017C35.9199 29.2363 28.2717 36.8845 18.8371 36.8845C9.91648 36.8845 2.59287 30.0468 1.8215 21.3266C2.21369 30.8956 10.0953 38.5329 19.7606 38.5329C29.6766 38.5329 37.715 30.4944 37.715 20.5785ZM18.8371 3.50153C27.8394 3.50153 35.1373 10.7994 35.1373 19.8017C35.1373 28.804 27.8394 36.1018 18.8371 36.1018C10.0434 36.1018 2.87602 29.1382 2.54867 20.4245C3.25542 28.2895 9.86471 34.4534 17.9137 34.4534C26.434 34.4534 33.3412 27.5463 33.3412 19.0259C33.3412 10.5055 26.434 3.59837 17.9137 3.59837C17.4729 3.59837 17.0364 3.61686 16.605 3.65309C17.3348 3.55316 18.0799 3.50153 18.8371 3.50153ZM32.5585 19.0259C32.5585 10.9378 26.0018 4.381 17.9137 4.381C17.2303 4.381 16.5578 4.4278 15.8994 4.51838C16.2589 4.49024 16.6223 4.47591 16.9891 4.47591C24.5959 4.47591 30.7624 10.6424 30.7624 18.2492C30.7624 25.8559 24.5959 32.0224 16.9891 32.0224C9.82947 32.0224 3.94576 26.5595 3.27885 19.5746C3.56738 27.4085 10.0092 33.6708 17.9137 33.6708C26.0018 33.6708 32.5585 27.1141 32.5585 19.0259ZM16.9891 5.25853C24.1636 5.25853 29.9797 11.0747 29.9797 18.2492C29.9797 25.4237 24.1636 31.2398 16.9891 31.2398C9.95594 31.2398 4.2282 25.6506 4.00526 18.6716C4.60739 24.8018 9.77718 29.5914 16.0656 29.5914C22.7588 29.5914 28.1846 24.1655 28.1846 17.4724C28.1846 10.7793 22.7588 5.35342 16.0656 5.35342C15.7587 5.35342 15.4544 5.36483 15.1532 5.38725C15.753 5.30241 16.3659 5.25853 16.9891 5.25853ZM27.402 17.4724C27.402 11.2115 22.3265 6.13605 16.0656 6.13605C15.4941 6.13605 14.9325 6.17834 14.3837 6.25996C14.6342 6.24202 14.8871 6.23289 15.1422 6.23289C20.9211 6.23289 25.6059 10.9177 25.6059 16.6966C25.6059 22.4756 20.9211 27.1603 15.1422 27.1603C9.72697 27.1603 5.27257 23.0468 4.73324 17.774C4.89313 23.8955 9.90561 28.8088 16.0656 28.8088C22.3265 28.8088 27.402 23.7333 27.402 17.4724ZM15.1422 7.01552C20.4889 7.01552 24.8232 11.3499 24.8232 16.6966C24.8232 22.0434 20.4889 26.3777 15.1422 26.3777C9.86348 26.3777 5.57156 22.153 5.46317 16.9003C5.9508 21.3042 9.68475 24.7293 14.2187 24.7293C19.084 24.7293 23.0281 20.7852 23.0281 15.9199C23.0281 11.0546 19.084 7.11041 14.2187 7.11041C14.0326 7.11041 13.8479 7.11618 13.6647 7.12755C14.1464 7.05378 14.6398 7.01552 15.1422 7.01552ZM22.2455 15.9199C22.2455 11.4868 18.6518 7.89304 14.2187 7.89304C13.7735 7.89304 13.3368 7.92928 12.9113 7.99897C13.0381 7.99229 13.1657 7.98891 13.2942 7.98891C17.2458 7.98891 20.4493 11.1924 20.4493 15.1441C20.4493 19.0958 17.2458 22.2993 13.2942 22.2993C9.64023 22.2993 6.626 19.5603 6.19252 16.0235C6.24802 20.4089 9.8202 23.9467 14.2187 23.9467C18.6518 23.9467 22.2455 20.353 22.2455 15.9199ZM13.2942 8.77153C16.8136 8.77153 19.6667 11.6246 19.6667 15.1441C19.6667 18.6636 16.8136 21.5166 13.2942 21.5166C9.77471 21.5166 6.92163 18.6636 6.92163 15.1441C6.92163 15.1357 6.92165 15.1272 6.92168 15.1188C7.2881 17.8008 9.58806 19.8673 12.3707 19.8673C15.4082 19.8673 17.8706 17.4049 17.8706 14.3674C17.8706 11.3298 15.4082 8.86742 12.3707 8.86742C12.302 8.86742 12.2336 8.86867 12.1655 8.87117C12.5318 8.8057 12.909 8.77153 13.2942 8.77153ZM17.0879 14.3674C17.0879 11.7621 14.976 9.65004 12.3707 9.65004C9.7654 9.65004 7.6534 11.7621 7.6534 14.3674C7.6534 16.9726 9.7654 19.0846 12.3707 19.0846C14.976 19.0846 17.0879 16.9726 17.0879 14.3674Z" fill="#1A1414"></path>
  </g>
  <defs>
    <clipPath id="clip0_387_106">
      <rect width="169" height="42" fill="white"></rect>
    </clipPath>
  </defs>
</svg>
