<?xml version="1.0" encoding="UTF-8"?>
<svg xmlns="http://www.w3.org/2000/svg" width="155" height="40" viewBox="0 0 155 40" fill="none">
  <g id="Logo" clip-path="url(#clip0_387_573)">
    <path id="Vector" d="M51.5821 10.2852H48V26.4485H57.9164V23.2814H51.5821V10.2852Z" fill="#243A5A"></path>
    <path id="Vector_2" d="M58.2578 20.9656C58.2578 24.4167 60.5731 26.7101 64.0678 26.7101C67.5407 26.7101 69.856 24.4167 69.856 20.9656C69.856 17.5145 67.5407 15.1992 64.0678 15.1992C60.5731 15.1992 58.2578 17.5145 58.2578 20.9656ZM61.6433 20.9437C61.6433 19.3056 62.6044 18.2135 64.0678 18.2135C65.5094 18.2135 66.4705 19.3056 66.4705 20.9437C66.4705 22.6038 65.5094 23.6959 64.0678 23.6959C62.6044 23.6959 61.6433 22.6038 61.6433 20.9437Z" fill="#243A5A"></path>
    <path id="Vector_3" d="M70.3972 20.7915C70.3972 24.0896 72.5378 26.3175 75.5738 26.3175C77.0373 26.3175 78.3041 25.7933 78.9375 24.9415V26.4487C78.9375 27.9558 77.9983 28.9604 76.3383 28.9604C74.853 28.9604 73.8264 28.2615 73.7609 27.0166H70.3535C70.6593 30.009 72.9746 32.0183 76.1417 32.0183C79.8767 32.0183 82.2357 29.5939 82.2357 25.7496V15.5275H79.1996L79.0249 16.6414C78.4133 15.7459 77.1246 15.1562 75.6394 15.1562C72.5814 15.1562 70.3972 17.4496 70.3972 20.7915ZM73.8046 20.7041C73.8046 19.1314 74.853 18.083 76.1854 18.083C77.7362 18.083 78.872 19.1096 78.872 20.7041C78.872 22.2986 77.758 23.3907 76.2072 23.3907C74.8749 23.3907 73.8046 22.2986 73.8046 20.7041Z" fill="#243A5A"></path>
    <path id="Vector_4" d="M83.2166 20.9656C83.2166 24.4167 85.5319 26.7101 89.0267 26.7101C92.4996 26.7101 94.8148 24.4167 94.8148 20.9656C94.8148 17.5145 92.4996 15.1992 89.0267 15.1992C85.5319 15.1992 83.2166 17.5145 83.2166 20.9656ZM86.6022 20.9437C86.6022 19.3056 87.5632 18.2135 89.0267 18.2135C90.4682 18.2135 91.4293 19.3056 91.4293 20.9437C91.4293 22.6038 90.4682 23.6959 89.0267 23.6959C87.5632 23.6959 86.6022 22.6038 86.6022 20.9437Z" fill="#243A5A"></path>
    <path id="Vector_5" d="M97.7149 13.8224C98.7633 13.8224 99.6152 12.9705 99.6152 11.9003C99.6152 10.83 98.7633 10 97.7149 10C96.6446 10 95.7928 10.83 95.7928 11.9003C95.7928 12.9705 96.6446 13.8224 97.7149 13.8224ZM96.0112 26.4472H99.3968V15.5261H96.0112V26.4472Z" fill="#243A5A"></path>
    <path id="Vector_6" d="M101.367 31.6885H104.687V25.3543C105.32 26.1843 106.762 26.7522 108.269 26.7522C111.523 26.7522 113.489 24.2622 113.402 20.8111C113.314 17.2945 111.283 15.1758 108.247 15.1758C106.696 15.1758 105.233 15.8529 104.621 16.8577L104.446 15.5253H101.367V31.6885ZM104.752 20.9858C104.752 19.3477 105.844 18.2556 107.417 18.2556C109.011 18.2556 110.016 19.3695 110.016 20.9858C110.016 22.6022 109.011 23.7161 107.417 23.7161C105.844 23.7161 104.752 22.624 104.752 20.9858Z" fill="#243A5A"></path>
    <path id="Vector_7" d="M113.762 22.9953C113.849 25.2014 115.597 26.7303 118.349 26.7303C120.992 26.7303 122.827 25.3324 122.827 23.0827C122.827 21.4664 121.866 20.3961 120.074 19.9592L118.131 19.4787C117.432 19.304 116.995 19.1292 116.995 18.5613C116.995 17.9934 117.453 17.6221 118.131 17.6221C118.895 17.6221 119.397 18.1245 119.376 18.8671H122.412C122.324 16.5955 120.599 15.1758 118.196 15.1758C115.772 15.1758 113.959 16.6174 113.959 18.8016C113.959 20.265 114.767 21.4664 116.929 22.0343L118.851 22.5366C119.419 22.6895 119.659 22.9516 119.659 23.3229C119.659 23.869 119.157 24.2185 118.305 24.2185C117.322 24.2185 116.798 23.7598 116.798 22.9953H113.762Z" fill="#243A5A"></path>
    <path id="Vector_8" d="M127.974 26.7323C129.307 26.7323 130.639 26.1207 131.316 25.2252L131.535 26.4484H134.702V15.5273H131.338V21.2063C131.338 22.8444 130.858 23.7399 129.307 23.7399C128.105 23.7399 127.319 23.1939 127.319 21.1626V15.5273H123.955V22.3857C123.955 24.985 125.397 26.7323 127.974 26.7323Z" fill="#243A5A"></path>
    <path id="Vector_9" d="M140.036 26.4487V20.4858C140.036 18.651 141.019 18.1267 141.98 18.1267C143.05 18.1267 143.749 18.782 143.749 20.1362V26.4487H147.069V20.4858C147.069 18.6292 148.03 18.1049 148.991 18.1049C150.061 18.1049 150.782 18.7601 150.782 20.1362V26.4487H154.059V19.3062C154.059 16.8162 152.748 15.1562 149.93 15.1562C148.358 15.1562 147.069 15.9206 146.501 17.1001C145.846 15.9206 144.71 15.1562 142.897 15.1562C141.696 15.1562 140.582 15.7022 139.927 16.5759L139.796 15.5275H136.65V26.4487H140.036Z" fill="#243A5A"></path>
    <path id="Vector_10" d="M0 20C0 10.5719 0 5.85786 2.92893 2.92893C5.85786 0 10.5719 0 20 0C29.4281 0 34.1421 0 37.0711 2.92893C40 5.85786 40 10.5719 40 20C40 29.4281 40 34.1421 37.0711 37.0711C34.1421 40 29.4281 40 20 40C10.5719 40 5.85786 40 2.92893 37.0711C0 34.1421 0 29.4281 0 20Z" fill="#243A5A"></path>
    <path id="Vector_11" d="M24.0007 26C24.553 26 25.0108 26.4521 24.9011 26.9934C24.7072 27.9494 24.2362 28.8355 23.5362 29.5355C22.5986 30.4732 21.3268 31 20.0007 31C18.6746 31 17.4029 30.4732 16.4652 29.5355C15.7652 28.8355 15.2942 27.9494 15.1004 26.9934C14.9906 26.4521 15.4484 26 16.0007 26H24.0007Z" fill="#2DF8BB"></path>
    <path id="Vector_12" d="M26.1027 17.7765C25.5692 17.9194 25.2425 18.4775 25.513 18.959C25.7977 19.4658 26.1915 19.9081 26.6706 20.2514C27.4228 20.7904 28.3386 21.052 29.2621 20.9914C30.1855 20.9309 31.0594 20.5521 31.7348 19.9195C32.4103 19.2869 32.8454 18.4396 32.9662 17.5221C33.087 16.6046 32.886 15.6736 32.3973 14.8877C31.9086 14.1019 31.1625 13.5098 30.2862 13.2123C29.4099 12.9148 28.4576 12.9304 27.5915 13.2564C27.0399 13.464 26.5451 13.7893 26.1389 14.2051C25.753 14.6002 25.9241 15.2239 26.4024 15.5L26.9097 15.7929C27.6812 16.2384 27.5291 17.3943 26.6685 17.6249L26.1027 17.7765Z" fill="#2DF8BB"></path>
    <path id="Vector_13" d="M13.8978 17.7765C14.4313 17.9194 14.758 18.4775 14.4875 18.959C14.2028 19.4658 13.809 19.9081 13.33 20.2514C12.5778 20.7904 11.6619 21.052 10.7385 20.9914C9.81502 20.9309 8.94113 20.5521 8.2657 19.9195C7.59027 19.2869 7.15508 18.4396 7.03429 17.5221C6.9135 16.6046 7.11457 15.6736 7.60326 14.8877C8.09194 14.1019 8.838 13.5098 9.71431 13.2123C10.5906 12.9148 11.543 12.9304 12.4091 13.2564C12.9606 13.464 13.4555 13.7893 13.8617 14.2051C14.2476 14.6002 14.0764 15.2239 13.5981 15.5L13.0908 15.7929C12.3193 16.2384 12.4715 17.3943 13.332 17.6249L13.8978 17.7765Z" fill="#2DF8BB"></path>
  </g>
  <defs>
    <clipPath id="clip0_387_573">
      <rect width="155" height="40" fill="white"></rect>
    </clipPath>
  </defs>
</svg>
