<?xml version="1.0" encoding="UTF-8"?>
<svg xmlns="http://www.w3.org/2000/svg" width="161" height="44" viewBox="0 0 161 44" fill="none">
  <g id="Logo">
    <path id="Vector" d="M54.1953 29.0014H57.7143V12.4414H54.1953V29.0014Z" fill="#55AE36"></path>
    <path id="Vector_2" d="M64.9333 29.3674C68.6133 29.3674 71.0283 26.9984 71.0283 22.8124C71.0283 18.7644 68.6823 16.2344 64.9333 16.2344C61.2533 16.2344 58.8613 18.6034 58.8613 22.8124C58.8613 26.8834 61.1843 29.3674 64.9333 29.3674ZM64.9333 26.5154C63.3463 26.5154 62.4723 25.2044 62.4723 22.8124C62.4723 20.3974 63.3233 19.0864 64.9333 19.0864C66.5433 19.0864 67.4173 20.4204 67.4173 22.8124C67.4173 25.2274 66.5663 26.5154 64.9333 26.5154Z" fill="#55AE36"></path>
    <path id="Vector_3" d="M76.7529 29.0224C78.0869 29.0224 79.1909 28.4704 79.9729 27.3894V29.4594C79.9729 31.1844 79.1219 31.7594 77.8569 31.7594C76.6379 31.7594 75.6949 31.1614 75.5569 30.0574H72.0379C72.4749 33.0704 74.7519 34.4504 77.9029 34.4504C81.1459 34.4504 83.4919 32.7254 83.4919 29.4134V16.6254H79.9729V17.7754C79.2139 16.7634 78.1329 16.2344 76.7529 16.2344C73.6709 16.2344 71.6699 18.5344 71.6699 22.6514C71.6699 26.5844 73.6249 29.0224 76.7529 29.0224ZM77.6039 26.1704C76.0859 26.1704 75.2809 24.9054 75.2809 22.6514C75.2809 20.3284 76.0859 19.0864 77.6039 19.0864C79.1449 19.0864 79.9729 20.3514 79.9729 22.6284C79.9729 24.9284 79.1679 26.1704 77.6039 26.1704Z" fill="#55AE36"></path>
    <path id="Vector_4" d="M90.7322 29.3674C94.4122 29.3674 96.8272 26.9984 96.8272 22.8124C96.8272 18.7644 94.4812 16.2344 90.7322 16.2344C87.0522 16.2344 84.6602 18.6034 84.6602 22.8124C84.6602 26.8834 86.9832 29.3674 90.7322 29.3674ZM90.7322 26.5154C89.1452 26.5154 88.2712 25.2044 88.2712 22.8124C88.2712 20.3974 89.1222 19.0864 90.7322 19.0864C92.3422 19.0864 93.2162 20.4204 93.2162 22.8124C93.2162 25.2274 92.3652 26.5154 90.7322 26.5154Z" fill="#55AE36"></path>
    <path id="Vector_5" d="M97.998 15.3854H101.517V12.4414H97.998V15.3854ZM97.998 29.0014H101.517V16.6274H97.998V29.0014Z" fill="#55AE36"></path>
    <path id="Vector_6" d="M106.71 34.0824V27.7574C107.446 28.8154 108.504 29.3674 109.815 29.3674C112.966 29.3674 115.013 26.9984 115.013 22.7894C115.013 18.7414 113.012 16.2344 109.815 16.2344C108.527 16.2344 107.469 16.8324 106.71 17.9134V16.6254H103.191V34.0824H106.71ZM109.079 19.0864C110.574 19.0864 111.402 20.3974 111.402 22.7894C111.402 25.2044 110.597 26.5154 109.079 26.5154C107.538 26.5154 106.71 25.1814 106.71 22.7894C106.71 20.3974 107.515 19.0864 109.079 19.0864Z" fill="#55AE36"></path>
    <path id="Vector_7" d="M119.239 20.0524C119.239 19.3854 119.837 18.9254 120.757 18.9254C121.999 18.9254 122.735 19.4544 122.942 20.7194H126.438C126.093 17.5914 123.839 16.2344 120.872 16.2344C117.56 16.2344 115.881 18.1664 115.881 20.2364C115.881 25.2044 123.379 23.0654 123.379 25.4574C123.379 26.2164 122.758 26.6994 121.516 26.6994C120.205 26.6994 119.262 26.0784 119.101 24.9284H115.582C116.042 27.9874 118.296 29.3674 121.424 29.3674C124.644 29.3674 126.898 27.6884 126.898 25.2504C126.898 20.3514 119.239 22.4904 119.239 20.0524Z" fill="#55AE36"></path>
    <path id="Vector_8" d="M135.569 23.732C135.569 25.319 134.695 26.515 133.338 26.515C132.096 26.515 131.498 25.733 131.498 24.146V16.625H127.979V24.859C127.979 27.941 129.704 29.367 132.05 29.367C133.545 29.367 134.764 28.723 135.569 27.343V28.999H139.088V16.625H135.569V23.732Z" fill="#55AE36"></path>
    <path id="Vector_9" d="M140.787 28.9994H144.306V21.8924C144.306 20.3054 145.111 19.0864 146.33 19.0864C147.457 19.0864 148.009 19.8914 148.009 21.4554V28.9994H151.505V21.8924C151.505 20.3054 152.333 19.0864 153.552 19.0864C154.679 19.0864 155.208 19.8914 155.208 21.4554V28.9994H158.727V20.7424C158.727 17.6834 157.025 16.2344 154.725 16.2344C153.184 16.2344 151.873 16.8784 151.022 18.2814C150.401 16.9014 149.159 16.2344 147.687 16.2344C146.261 16.2344 145.088 16.8554 144.306 18.1894V16.6254H140.787V28.9994Z" fill="#55AE36"></path>
    <path id="Vector_10" d="M40.8504 34.0526C44.6624 30.6486 47 26.0548 47 21C47 10.5066 36.9264 2 24.5 2C12.0736 2 2 10.5066 2 21C2 31.4934 12.0736 40 24.5 40C28.0253 40 31.3613 39.3154 34.3316 38.0949C37.8208 40.2486 42.0957 41.7967 46.8169 41.4702C44.3227 40.8362 42.1773 38.2679 40.8504 34.0526Z" fill="#B6EFA2"></path>
    <path id="Vector_11" d="M41 21C41 28.732 33.6127 35 24.5 35C15.3873 35 8 28.732 8 21C8 13.268 15.3873 7 24.5 7C33.6127 7 41 13.268 41 21Z" fill="#88E169"></path>
    <path id="Vector_12" d="M35 21C35 25.9706 30.299 30 24.5 30C18.701 30 14 25.9706 14 21C14 16.0294 18.701 12 24.5 12C30.299 12 35 16.0294 35 21Z" fill="#55AE36"></path>
  </g>
</svg>
