<?xml version="1.0" encoding="UTF-8"?>
<svg xmlns="http://www.w3.org/2000/svg" width="168" height="41" viewBox="0 0 168 41" fill="none">
  <g id="Logo" clip-path="url(#clip0_387_74)">
    <path id="Vector" d="M49.2773 28.953H61.2293V25.353H53.5253V11.793H49.2773V28.953Z" fill="#3C2B1F"></path>
    <path id="Vector_2" d="M68.3098 26.5521C66.6058 26.5521 65.7178 25.0641 65.7178 22.8321C65.7178 20.6001 66.6058 19.0881 68.3098 19.0881C70.0138 19.0881 70.9258 20.6001 70.9258 22.8321C70.9258 25.0641 70.0138 26.5521 68.3098 26.5521ZM68.3338 29.3361C72.2938 29.3361 74.8858 26.5281 74.8858 22.8321C74.8858 19.1361 72.2938 16.3281 68.3338 16.3281C64.3978 16.3281 61.7578 19.1361 61.7578 22.8321C61.7578 26.5281 64.3978 29.3361 68.3338 29.3361Z" fill="#3C2B1F"></path>
    <path id="Vector_3" d="M81.7406 33.2007C83.5646 33.2007 85.1726 32.7927 86.2526 31.8327C87.2366 30.9447 87.8846 29.6007 87.8846 27.7527V16.6647H84.1406V17.9847H84.0926C83.3726 16.9527 82.2686 16.3047 80.6366 16.3047C77.5886 16.3047 75.4766 18.8487 75.4766 22.4487C75.4766 26.2167 78.0446 28.2807 80.8046 28.2807C82.2926 28.2807 83.2286 27.6807 83.9486 26.8647H84.0446V28.0887C84.0446 29.5767 83.3486 30.4407 81.6926 30.4407C80.3966 30.4407 79.7486 29.8887 79.5326 29.2407H75.7406C76.1246 31.8087 78.3566 33.2007 81.7406 33.2007ZM81.7166 25.3767C80.2526 25.3767 79.2926 24.1767 79.2926 22.3287C79.2926 20.4567 80.2526 19.2567 81.7166 19.2567C83.3486 19.2567 84.2126 20.6487 84.2126 22.3047C84.2126 24.0327 83.4206 25.3767 81.7166 25.3767Z" fill="#3C2B1F"></path>
    <path id="Vector_4" d="M95.5833 26.5521C93.8793 26.5521 92.9912 25.0641 92.9912 22.8321C92.9912 20.6001 93.8793 19.0881 95.5833 19.0881C97.2873 19.0881 98.1992 20.6001 98.1992 22.8321C98.1992 25.0641 97.2873 26.5521 95.5833 26.5521ZM95.6072 29.3361C99.5672 29.3361 102.159 26.5281 102.159 22.8321C102.159 19.1361 99.5672 16.3281 95.6072 16.3281C91.6712 16.3281 89.0312 19.1361 89.0312 22.8321C89.0312 26.5281 91.6712 29.3361 95.6072 29.3361Z" fill="#3C2B1F"></path>
    <path id="Vector_5" d="M103.303 28.953H107.215V16.665H103.303V28.953ZM103.303 14.961H107.215V11.793H103.303V14.961Z" fill="#3C2B1F"></path>
    <path id="Vector_6" d="M108.91 33.0087H112.822V27.6807H112.87C113.638 28.7127 114.766 29.3367 116.35 29.3367C119.566 29.3367 121.702 26.7927 121.702 22.8087C121.702 19.1127 119.71 16.3047 116.446 16.3047C114.766 16.3047 113.566 17.0487 112.726 18.1527H112.654V16.6647H108.91V33.0087ZM115.342 26.3127C113.662 26.3127 112.702 24.9447 112.702 22.9527C112.702 20.9607 113.566 19.4487 115.27 19.4487C116.95 19.4487 117.742 20.8407 117.742 22.9527C117.742 25.0407 116.83 26.3127 115.342 26.3127Z" fill="#3C2B1F"></path>
    <path id="Vector_7" d="M128.072 29.3367C131.288 29.3367 133.664 27.9447 133.664 25.2567C133.664 22.1127 131.12 21.5607 128.96 21.2007C127.4 20.9127 126.008 20.7927 126.008 19.9287C126.008 19.1607 126.752 18.8007 127.712 18.8007C128.792 18.8007 129.536 19.1367 129.68 20.2407H133.28C133.088 17.8167 131.216 16.3047 127.736 16.3047C124.832 16.3047 122.432 17.6487 122.432 20.2407C122.432 23.1207 124.712 23.6967 126.848 24.0567C128.48 24.3447 129.968 24.4647 129.968 25.5687C129.968 26.3607 129.224 26.7927 128.048 26.7927C126.752 26.7927 125.936 26.1927 125.792 24.9687H122.096C122.216 27.6807 124.472 29.3367 128.072 29.3367Z" fill="#3C2B1F"></path>
    <path id="Vector_8" d="M138.978 29.3121C140.682 29.3121 141.762 28.6401 142.65 27.4401H142.722V28.9521H146.466V16.6641H142.554V23.5281C142.554 24.9921 141.738 26.0001 140.394 26.0001C139.146 26.0001 138.546 25.2561 138.546 23.9121V16.6641H134.658V24.7281C134.658 27.4641 136.146 29.3121 138.978 29.3121Z" fill="#3C2B1F"></path>
    <path id="Vector_9" d="M148.168 28.9527H152.08V22.0647C152.08 20.6007 152.8 19.5687 154.024 19.5687C155.2 19.5687 155.752 20.3367 155.752 21.6567V28.9527H159.664V22.0647C159.664 20.6007 160.36 19.5687 161.608 19.5687C162.784 19.5687 163.336 20.3367 163.336 21.6567V28.9527H167.248V20.9607C167.248 18.2007 165.856 16.3047 163.072 16.3047C161.488 16.3047 160.168 16.9767 159.208 18.4647H159.16C158.536 17.1447 157.312 16.3047 155.704 16.3047C153.928 16.3047 152.752 17.1447 151.984 18.4167H151.912V16.6647H148.168V28.9527Z" fill="#3C2B1F"></path>
    <path id="Vector_10" d="M25.4109 1.97573L21.4779 0.921875L18.1635 13.2914L15.1712 2.12411L11.2381 3.17797L14.4711 15.2434L6.41844 7.19085L3.53925 10.07L12.372 18.9028L1.37222 15.9554L0.318359 19.8884L12.337 23.1088C12.1994 22.5153 12.1266 21.8969 12.1266 21.2615C12.1266 16.7639 15.7726 13.1179 20.2702 13.1179C24.7678 13.1179 28.4138 16.7639 28.4138 21.2615C28.4138 21.8928 28.3419 22.5074 28.206 23.0974L39.1287 26.0241L40.1825 22.0911L28.1161 18.8579L39.1166 15.9103L38.0627 11.9773L25.9968 15.2103L34.0494 7.15779L31.1702 4.2786L22.46 12.9888L25.4109 1.97573Z" fill="#F97316"></path>
    <path id="Vector_11" d="M28.1939 23.1445C27.8567 24.5701 27.1448 25.8508 26.168 26.8769L34.081 34.79L36.9602 31.9108L28.1939 23.1445Z" fill="#F97316"></path>
    <path id="Vector_12" d="M26.0881 26.9609C25.0995 27.9706 23.8502 28.7241 22.4492 29.1124L25.3286 39.8584L29.2616 38.8045L26.0881 26.9609Z" fill="#F97316"></path>
    <path id="Vector_13" d="M22.3023 29.1503C21.6523 29.3174 20.971 29.4062 20.2689 29.4062C19.5167 29.4062 18.7883 29.3042 18.0968 29.1133L15.2148 39.8691L19.1478 40.9229L22.3023 29.1503Z" fill="#F97316"></path>
    <path id="Vector_14" d="M17.9588 29.0739C16.5792 28.6663 15.3521 27.9032 14.3837 26.8906L6.45117 34.8231L9.33036 37.7023L17.9588 29.0739Z" fill="#F97316"></path>
    <path id="Vector_15" d="M14.3163 26.819C13.3645 25.8 12.6712 24.5364 12.3412 23.1328L1.38281 26.0691L2.43666 30.0021L14.3163 26.819Z" fill="#F97316"></path>
  </g>
  <defs>
    <clipPath id="clip0_387_74">
      <rect width="168" height="41" fill="white"></rect>
    </clipPath>
  </defs>
</svg>
