<?xml version="1.0" encoding="UTF-8"?>
<svg xmlns="http://www.w3.org/2000/svg" width="160" height="46" viewBox="0 0 160 46" fill="none">
  <g id="Logo">
    <path id="Vector" fill-rule="evenodd" clip-rule="evenodd" d="M26.6041 3.72499C25.1103 2.23186 22.689 2.23235 21.1959 3.7261L8.73456 16.1926L8.72394 16.1895L8.68456 16.1937C8.70078 16.2015 8.7167 16.2092 8.7323 16.217C6.54632 16.446 5.61884 17.1029 5.60834 17.9465C5.61204 18.2603 5.74079 18.5992 5.97728 18.951L5.96591 18.9624C7.95319 21.9597 17.7981 25.9136 24.7631 23.2347C19.5431 25.8447 7.24976 26.362 3.63901 21.2944C2.85487 22.1427 2.52679 23.2575 2.65034 24.3288C3.6042 29.5862 14.2684 31.0205 24.9327 23.4032L27.2404 25.7109C24.3688 28.6611 20.1271 45.7976 26.4298 43.1812C26.5793 43.0797 26.7062 42.9889 26.8788 42.8583L27.1597 42.5931C27.1435 42.5971 27.1274 42.6009 27.1114 42.6047L43.9914 26.669C45.5587 25.1893 45.5942 22.7074 44.0697 21.1835L26.6041 3.72499ZM24.7659 8.91828L25.3428 6.61059L25.9197 8.91828L27.6505 9.49521L25.9197 10.0722L25.3428 12.3799L24.7659 10.0722L23.0351 9.49521L24.7659 8.91828ZM17.625 16.4517L18.0096 14.9132L18.3942 16.4517L19.5481 16.8363L18.3942 17.2209L18.0096 18.7594L17.625 17.2209L16.4712 16.8363L17.625 16.4517ZM31.0206 29.4286L30.636 30.967L29.4822 31.3517L30.636 31.7363L31.0206 33.2747L31.4052 31.7363L32.5591 31.3517L31.4052 30.967L31.0206 29.4286Z" fill="#4845D2"></path>
    <path id="Vector_2" d="M54.8985 12.2754H51.3164V28.4386H61.2328V25.2715H54.8985V12.2754Z" fill="#4845D2"></path>
    <path id="Vector_3" d="M61.5742 22.9577C61.5742 26.4088 63.8895 28.7022 67.3842 28.7022C70.8572 28.7022 73.1724 26.4088 73.1724 22.9577C73.1724 19.5066 70.8572 17.1914 67.3842 17.1914C63.8895 17.1914 61.5742 19.5066 61.5742 22.9577ZM64.9598 22.9359C64.9598 21.2977 65.9208 20.2056 67.3842 20.2056C68.8258 20.2056 69.7869 21.2977 69.7869 22.9359C69.7869 24.5959 68.8258 25.688 67.3842 25.688C65.9208 25.688 64.9598 24.5959 64.9598 22.9359Z" fill="#4845D2"></path>
    <path id="Vector_4" d="M73.7137 22.7818C73.7137 26.0799 75.8543 28.3078 78.8903 28.3078C80.3538 28.3078 81.6206 27.7836 82.254 26.9318V28.4389C82.254 29.946 81.3148 30.9508 79.6548 30.9508C78.1695 30.9508 77.143 30.2518 77.0774 29.0068H73.6701C73.9758 31.9992 76.2911 34.0087 79.4582 34.0087C83.1933 34.0087 85.5522 31.5842 85.5522 27.7399V17.5178H82.5161L82.3414 18.6317C81.7298 17.7362 80.4411 17.1465 78.9559 17.1465C75.898 17.1465 73.7137 19.4399 73.7137 22.7818ZM77.1211 22.6944C77.1211 21.1218 78.1696 20.0733 79.5019 20.0733C81.0527 20.0733 82.1885 21.0999 82.1885 22.6944C82.1885 24.2889 81.0746 25.381 79.5238 25.381C78.1914 25.381 77.1211 24.2889 77.1211 22.6944Z" fill="#4845D2"></path>
    <path id="Vector_5" d="M86.5332 22.9577C86.5332 26.4088 88.8484 28.7022 92.3432 28.7022C95.8161 28.7022 98.1314 26.4088 98.1314 22.9577C98.1314 19.5066 95.8161 17.1914 92.3432 17.1914C88.8484 17.1914 86.5332 19.5066 86.5332 22.9577ZM89.9187 22.9359C89.9187 21.2977 90.8798 20.2056 92.3432 20.2056C93.7848 20.2056 94.7458 21.2977 94.7458 22.9359C94.7458 24.5959 93.7848 25.688 92.3432 25.688C90.8798 25.688 89.9187 24.5959 89.9187 22.9359Z" fill="#4845D2"></path>
    <path id="Vector_6" d="M101.032 15.8146C102.08 15.8146 102.932 14.9628 102.932 13.8925C102.932 12.8222 102.08 11.9922 101.032 11.9922C99.9613 11.9922 99.1094 12.8222 99.1094 13.8925C99.1094 14.9628 99.9613 15.8146 101.032 15.8146ZM99.3278 28.4394H102.714V17.5183H99.3278V28.4394Z" fill="#4845D2"></path>
    <path id="Vector_7" d="M104.684 33.6807H108.004V27.3465C108.638 28.1765 110.079 28.7444 111.587 28.7444C114.841 28.7444 116.807 26.2544 116.719 22.8033C116.632 19.2867 114.601 17.168 111.565 17.168C110.014 17.168 108.551 17.8451 107.939 18.8499L107.764 17.5175H104.684V33.6807ZM108.07 22.978C108.07 21.3399 109.162 20.2478 110.735 20.2478C112.329 20.2478 113.334 21.3617 113.334 22.978C113.334 24.5944 112.329 25.7083 110.735 25.7083C109.162 25.7083 108.07 24.6162 108.07 22.978Z" fill="#4845D2"></path>
    <path id="Vector_8" d="M117.076 24.9875C117.163 27.1936 118.911 28.7225 121.663 28.7225C124.306 28.7225 126.141 27.3246 126.141 25.0749C126.141 23.4586 125.179 22.3883 123.388 21.9515L121.444 21.4709C120.745 21.2962 120.309 21.1215 120.309 20.5536C120.309 19.9857 120.767 19.6143 121.444 19.6143C122.209 19.6143 122.711 20.1167 122.689 20.8594H125.726C125.638 18.5878 123.913 17.168 121.51 17.168C119.085 17.168 117.273 18.6096 117.273 20.7938C117.273 22.2573 118.081 23.4586 120.243 24.0265L122.165 24.5288C122.733 24.6817 122.973 24.9438 122.973 25.3152C122.973 25.8612 122.471 26.2107 121.619 26.2107C120.636 26.2107 120.112 25.752 120.112 24.9875H117.076Z" fill="#4845D2"></path>
    <path id="Vector_9" d="M131.29 28.7226C132.623 28.7226 133.955 28.1111 134.632 27.2155L134.851 28.4387H138.018V17.5176H134.654V23.1966C134.654 24.8347 134.173 25.7303 132.623 25.7303C131.421 25.7303 130.635 25.1842 130.635 23.1529V17.5176H127.271V24.376C127.271 26.9753 128.713 28.7226 131.29 28.7226Z" fill="#4845D2"></path>
    <path id="Vector_10" d="M143.353 28.4389V22.476C143.353 20.6412 144.336 20.117 145.297 20.117C146.367 20.117 147.066 20.7723 147.066 22.1265V28.4389H150.386V22.476C150.386 20.6194 151.347 20.0952 152.308 20.0952C153.378 20.0952 154.099 20.7504 154.099 22.1265V28.4389H157.376V21.2965C157.376 18.8065 156.065 17.1465 153.247 17.1465C151.675 17.1465 150.386 17.911 149.818 19.0904C149.163 17.911 148.027 17.1465 146.214 17.1465C145.013 17.1465 143.899 17.6925 143.244 18.5662L143.113 17.5178H139.967V28.4389H143.353Z" fill="#4845D2"></path>
    <path id="Vector_11" fill-rule="evenodd" clip-rule="evenodd" d="M45.2912 5.25C41.6825 5.25 38.2602 6.85291 35.9499 9.62521L27.7309 19.4881L32.4769 12.369L24.5989 15.7453C23.5984 16.1741 23.3474 17.4776 24.117 18.2473L26.6522 20.7824L25.3578 22.3357L28.2055 25.1833L29.7587 23.8889L32.2939 26.4241C33.0635 27.1937 34.3671 26.9427 34.7958 25.9423L38.1721 18.0643L31.0531 22.8103L40.916 14.5912C43.6883 12.281 45.2912 8.85872 45.2912 5.25ZM37.4603 13.0811C38.2466 13.8674 39.5215 13.8674 40.3079 13.0811C41.0942 12.2947 41.0942 11.0198 40.3079 10.2335C39.5215 9.44713 38.2466 9.44713 37.4603 10.2335C36.6739 11.0198 36.6739 12.2947 37.4603 13.0811Z" fill="#A3A2FF"></path>
    <path id="Vector_12" opacity="0.6" d="M3.54883 21.1602C5.43429 27.62 16.8975 27.2832 24.7623 23.2341C19.4959 25.8657 7.03785 26.3683 3.54883 21.1602Z" fill="#424242"></path>
    <path id="Vector_13" opacity="0.6" d="M26.4311 43.1792C21.1203 45.3838 23.2963 33.5634 25.8307 28.0234C23.9833 32.9476 22.4063 43.8027 27.161 42.5911L26.8801 42.8563C26.7075 42.9869 26.5806 43.0777 26.4311 43.1792Z" fill="#424242"></path>
  </g>
</svg>
