<?xml version="1.0" encoding="UTF-8"?>
<svg xmlns="http://www.w3.org/2000/svg" width="147" height="46" viewBox="0 0 147 46" fill="none">
  <g id="Logo">
    <path id="Vector" fill-rule="evenodd" clip-rule="evenodd" d="M72.6763 7.40796C74.0641 6.02026 76.3141 6.02026 77.7019 7.40796C79.0897 8.79576 79.0897 11.0458 77.7019 12.4336L69.241 20.8945C66.8118 17.6389 67.0757 13.0087 70.0327 10.0517L72.6763 7.40796Z" fill="#4F9E91"></path>
    <path id="Vector_2" fill-rule="evenodd" clip-rule="evenodd" d="M84.7713 26.4967C86.1593 27.8844 86.1593 30.1345 84.7713 31.5222C83.3843 32.91 81.1339 32.91 79.7461 31.5222L71.2852 23.0614C74.5408 20.6322 79.171 20.896 82.128 23.853L84.7713 26.4967Z" fill="#EBE1C5"></path>
    <path id="Vector_3" fill-rule="evenodd" clip-rule="evenodd" d="M65.6816 38.5919C64.2939 39.9797 62.0438 39.9797 60.6561 38.5919C59.2683 37.2041 59.2683 34.9541 60.6561 33.5663L69.1169 25.1055C71.5461 28.3611 71.2823 32.9913 68.3253 35.9482L65.6816 38.5919Z" fill="#EBCC6E"></path>
    <path id="Vector_4" fill-rule="evenodd" clip-rule="evenodd" d="M53.5858 19.504C52.198 18.1162 52.198 15.8661 53.5858 14.4783C54.9736 13.0905 57.2236 13.0905 58.6114 14.4783L67.0723 22.9392C63.8167 25.3684 59.1864 25.1045 56.2295 22.1476L53.5858 19.504Z" fill="#ED834E"></path>
    <path id="Vector_5" fill-rule="evenodd" clip-rule="evenodd" d="M70.7852 37.5568C72.8315 35.2816 73.7826 32.3703 73.6383 29.5039L77.7017 33.5673C77.7118 33.5774 77.722 33.5875 77.7322 33.5976V36.4986C77.7322 38.4612 76.1412 40.0522 74.1786 40.0522C72.5845 40.0522 71.2356 39.0026 70.7852 37.5568Z" fill="#ED834E"></path>
    <path id="Vector_6" fill-rule="evenodd" clip-rule="evenodd" d="M54.6224 24.6055C56.8975 26.6519 59.8088 27.603 62.6752 27.4587L58.6119 31.5221C58.6017 31.5322 58.5916 31.5424 58.5816 31.5525H55.6806C53.718 31.5526 52.127 29.9615 52.127 27.9989C52.127 26.4049 53.1766 25.0559 54.6224 24.6055Z" fill="#4F9E91"></path>
    <path id="Vector_7" fill-rule="evenodd" clip-rule="evenodd" d="M83.7342 21.3944C81.4593 19.348 78.548 18.3969 75.6816 18.5411L79.7449 14.4778C79.7551 14.4677 79.7651 14.4575 79.7752 14.4473H82.6763C84.6392 14.4473 86.2302 16.0384 86.2302 18.001C86.2302 19.5951 85.1802 20.944 83.7342 21.3944Z" fill="#EBCC6E"></path>
    <path id="Vector_8" fill-rule="evenodd" clip-rule="evenodd" d="M67.574 8.44472C65.5276 10.7198 64.5766 13.6311 64.7208 16.4976L60.6575 12.4342C60.6473 12.4241 60.6372 12.414 60.627 12.4039V9.50292C60.627 7.54032 62.218 5.94922 64.1806 5.94922C65.7747 5.94922 67.1236 6.99892 67.574 8.44472Z" fill="#EBE1C5"></path>
    <path id="Vector_9" fill-rule="evenodd" clip-rule="evenodd" d="M64.18 3.05664C60.6206 3.05664 57.7351 5.94214 57.7351 9.50154V10.755C55.5937 10.1955 53.2205 10.7547 51.5424 12.4328C49.0255 14.9497 49.0255 19.0304 51.5424 21.5473L52.4287 22.4336C50.5189 23.5522 49.2363 25.6257 49.2363 27.9988C49.2363 31.5582 52.1218 34.4437 55.6812 34.4437H56.9346C56.3751 36.5851 56.9343 38.9583 58.6124 40.6363C61.1293 43.1532 65.21 43.1532 67.7269 40.6363L70.3705 37.9927C72.7026 35.6606 73.7918 32.5562 73.6381 29.5028L77.7016 33.5662C80.2185 36.0831 84.2993 36.0831 86.8163 33.5662C89.3333 31.0493 89.3333 26.9686 86.8163 24.4518L85.9303 23.5656C87.8393 22.447 89.1223 20.3735 89.1223 18.0004C89.1223 14.441 86.2363 11.5555 82.6773 11.5555H81.4238C81.9834 9.41404 81.4241 7.04084 79.746 5.36274C77.2292 2.84584 73.1485 2.84584 70.6316 5.36274L67.9879 8.00644C65.6558 10.3385 64.5666 13.4428 64.7203 16.4962L60.6569 12.4328C60.6467 12.4227 60.6366 12.4126 60.6264 12.4025V9.50154C60.6264 7.53894 62.2174 5.94794 64.18 5.94794C65.7741 5.94794 67.123 6.99754 67.5734 8.44334C67.7069 8.29494 67.8451 8.14924 67.9879 8.00644L69.7452 6.24904C68.6266 4.33924 66.5531 3.05664 64.18 3.05664ZM79.7763 14.4468C79.7662 14.4569 79.7562 14.4671 79.746 14.4772L75.6827 18.5405C78.5492 18.3963 81.4604 19.3473 83.7353 21.3938C85.1813 20.9434 86.2313 19.5944 86.2313 18.0004C86.2313 16.0378 84.6403 14.4468 82.6773 14.4468H79.7763ZM58.582 31.5524C58.5921 31.5422 58.6022 31.532 58.6124 31.5219L62.6757 27.4585C59.8093 27.6028 56.8981 26.6517 54.623 24.6054C53.1772 25.0558 52.1275 26.4047 52.1275 27.9988C52.1275 29.9614 53.7186 31.5524 55.6812 31.5524H58.582ZM74.1785 42.9426C71.8053 42.9426 69.7318 41.6599 68.6132 39.7501L70.3705 37.9927C70.5134 37.8499 70.6515 37.7042 70.785 37.5558C71.2354 39.0016 72.5843 40.0513 74.1785 40.0513C76.1411 40.0513 77.7321 38.4603 77.7321 36.4977V33.5967C78.5649 34.4186 79.5659 34.9678 80.6234 35.2441V36.4977C80.6234 40.0571 77.7379 42.9426 74.1785 42.9426ZM77.7016 7.40714C76.3138 6.01944 74.0638 6.01944 72.676 7.40714L70.0323 10.0508C67.0754 13.0078 66.8115 17.638 69.2407 20.8936L77.7016 12.4327C79.0894 11.0449 79.0894 8.79494 77.7016 7.40714ZM84.7713 31.5218C86.1593 30.134 86.1593 27.884 84.7713 26.4962L82.1279 23.8525C79.171 20.8956 74.5407 20.6317 71.2851 23.0609L79.746 31.5218C81.1338 32.9096 83.3843 32.9096 84.7713 31.5218ZM65.6824 38.5919C64.2946 39.9797 62.0446 39.9797 60.6568 38.5919C59.2691 37.2041 59.2691 34.9541 60.6568 33.5663L69.1177 25.1054C71.5469 28.361 71.283 32.9913 68.3261 35.9482L65.6824 38.5919ZM53.5868 14.4772C52.1991 15.865 52.1991 18.115 53.5868 19.5028L56.2305 22.1465C59.1875 25.1034 63.8177 25.3673 67.0733 22.9381L58.6124 14.4772C57.2246 13.0895 54.9746 13.0895 53.5868 14.4772Z" fill="#3D3A2C"></path>
    <path id="Vector_10" d="M1.5332 16.0898H4.6938V25.911H10.1222V28.5716H1.5332V16.0898Z" fill="#3D3A2C"></path>
    <path id="Vector_11" d="M15.8598 28.8393C14.8003 28.8393 13.8717 28.6488 13.0741 28.2679C12.2765 27.875 11.6575 27.3393 11.217 26.6608C10.7885 25.9703 10.5742 25.1787 10.5742 24.2858C10.5742 23.393 10.7885 22.6073 11.217 21.9288C11.6575 21.2383 12.2765 20.7026 13.0741 20.3217C13.8717 19.9288 14.8003 19.7324 15.8598 19.7324C16.9193 19.7324 17.8478 19.9288 18.6454 20.3217C19.443 20.7026 20.0561 21.2383 20.4846 21.9288C20.9251 22.6073 21.1453 23.393 21.1453 24.2858C21.1453 25.1787 20.9251 25.9703 20.4846 26.6608C20.0561 27.3393 19.443 27.875 18.6454 28.2679C17.8478 28.6488 16.9193 28.8393 15.8598 28.8393ZM15.8598 26.3929C16.4907 26.3929 16.9907 26.2084 17.3597 25.8394C17.7407 25.4584 17.9311 24.9406 17.9311 24.2858C17.9311 23.6311 17.7407 23.1192 17.3597 22.7502C16.9907 22.3692 16.4907 22.1788 15.8598 22.1788C15.2288 22.1788 14.7229 22.3692 14.342 22.7502C13.9729 23.1192 13.7884 23.6311 13.7884 24.2858C13.7884 24.9406 13.9729 25.4584 14.342 25.8394C14.7229 26.2084 15.2288 26.3929 15.8598 26.3929Z" fill="#3D3A2C"></path>
    <path id="Vector_12" d="M27.049 32.6785C26.4776 32.6785 25.9002 32.6249 25.3169 32.5178C24.7455 32.4106 24.2513 32.2678 23.8347 32.0892V29.9107C24.7751 30.3154 25.8466 30.5178 27.049 30.5178C27.918 30.5178 28.543 30.3392 28.9239 29.9821C29.3168 29.625 29.5131 29.1012 29.5131 28.4107V27.8929C29.1679 28.1905 28.7393 28.4226 28.2274 28.5893C27.7274 28.756 27.1918 28.8393 26.6203 28.8393C25.7156 28.8393 24.9181 28.6488 24.2276 28.2679C23.5372 27.8869 22.9954 27.3512 22.6026 26.6608C22.2216 25.9703 22.0312 25.1787 22.0312 24.2858C22.0312 23.3811 22.2216 22.5835 22.6026 21.8931C22.9835 21.2026 23.5192 20.6728 24.2097 20.3038C24.9001 19.9229 25.6919 19.7324 26.5847 19.7324C27.8109 19.7324 28.8227 20.1074 29.6203 20.8574V20.0002H32.656V27.9822C32.656 29.4702 32.1976 30.625 31.281 31.4464C30.3763 32.2678 28.9656 32.6785 27.049 32.6785ZM27.406 26.4108C27.8941 26.4108 28.3287 26.2858 28.7096 26.0358C29.0906 25.7858 29.3583 25.4525 29.5131 25.0358V23.5359C29.3464 23.1192 29.0726 22.7918 28.6917 22.5537C28.3107 22.3038 27.8822 22.1788 27.406 22.1788C26.7632 22.1788 26.2454 22.3692 25.8526 22.7502C25.4597 23.1192 25.2633 23.6251 25.2633 24.268C25.2633 24.9227 25.4597 25.4465 25.8526 25.8394C26.2454 26.2203 26.7632 26.4108 27.406 26.4108Z" fill="#3D3A2C"></path>
    <path id="Vector_13" d="M38.7387 28.8393C37.6792 28.8393 36.7507 28.6488 35.9531 28.2679C35.1555 27.875 34.5364 27.3393 34.096 26.6608C33.6674 25.9703 33.4531 25.1787 33.4531 24.2858C33.4531 23.393 33.6674 22.6073 34.096 21.9288C34.5364 21.2383 35.1555 20.7026 35.9531 20.3217C36.7507 19.9288 37.6792 19.7324 38.7387 19.7324C39.7982 19.7324 40.7267 19.9288 41.5243 20.3217C42.3219 20.7026 42.935 21.2383 43.3636 21.9288C43.804 22.6073 44.0243 23.393 44.0243 24.2858C44.0243 25.1787 43.804 25.9703 43.3636 26.6608C42.935 27.3393 42.3219 27.875 41.5243 28.2679C40.7267 28.6488 39.7982 28.8393 38.7387 28.8393ZM38.7387 26.3929C39.3696 26.3929 39.8696 26.2084 40.2387 25.8394C40.6196 25.4584 40.8101 24.9406 40.8101 24.2858C40.8101 23.6311 40.6196 23.1192 40.2387 22.7502C39.8696 22.3692 39.3696 22.1788 38.7387 22.1788C38.1078 22.1788 37.6018 22.3692 37.2209 22.7502C36.8518 23.1192 36.6673 23.6311 36.6673 24.2858C36.6673 24.9406 36.8518 25.4584 37.2209 25.8394C37.6018 26.2084 38.1078 26.3929 38.7387 26.3929Z" fill="#3D3A2C"></path>
    <path id="Vector_14" d="M94.4316 16.0898H97.5926V28.5716H94.4316V16.0898Z" fill="#3D3A2C"></path>
    <path id="Vector_15" d="M99.1934 20.0002H102.229V20.8574C103.026 20.1074 104.038 19.7324 105.264 19.7324C106.157 19.7324 106.949 19.9229 107.639 20.3038C108.33 20.6728 108.865 21.2026 109.246 21.8931C109.627 22.5716 109.818 23.3633 109.818 24.268C109.818 25.1608 109.627 25.9584 109.246 26.6608C108.865 27.3512 108.33 27.8869 107.639 28.2679C106.961 28.6488 106.169 28.8393 105.264 28.8393C104.693 28.8393 104.145 28.75 103.622 28.5714C103.11 28.4048 102.681 28.1726 102.336 27.875V32.482H99.1934V20.0002ZM104.443 26.3929C105.086 26.3929 105.604 26.2025 105.996 25.8215C106.389 25.4406 106.586 24.9227 106.586 24.268C106.586 23.6132 106.389 23.1014 105.996 22.7323C105.604 22.3514 105.086 22.1609 104.443 22.1609C103.967 22.1609 103.538 22.2859 103.157 22.5359C102.776 22.774 102.503 23.1014 102.336 23.518V25.0358C102.503 25.4525 102.776 25.7858 103.157 26.0358C103.538 26.2739 103.967 26.3929 104.443 26.3929Z" fill="#3D3A2C"></path>
    <path id="Vector_16" d="M114.502 28.8393C113.812 28.8393 113.092 28.7679 112.342 28.625C111.592 28.4941 110.996 28.3036 110.556 28.0536V25.7501C111.044 26.0358 111.627 26.2739 112.306 26.4644C112.996 26.6429 113.627 26.7322 114.199 26.7322C114.615 26.7322 114.919 26.7024 115.109 26.6429C115.3 26.5834 115.395 26.4644 115.395 26.2858C115.395 26.1429 115.33 26.0298 115.199 25.9465C115.08 25.8513 114.853 25.756 114.52 25.6608C114.199 25.5537 113.824 25.4406 113.395 25.3215C112.669 25.1072 112.098 24.887 111.681 24.6608C111.264 24.4346 110.955 24.1489 110.752 23.8037C110.55 23.4585 110.449 23.024 110.449 22.5002C110.449 21.5716 110.812 20.8812 111.538 20.4288C112.276 19.9645 113.282 19.7324 114.556 19.7324C115.175 19.7324 115.824 19.7979 116.502 19.9288C117.193 20.0598 117.71 20.2324 118.056 20.4467V22.7145C117.699 22.4764 117.222 22.2799 116.627 22.1252C116.044 21.9704 115.496 21.8931 114.984 21.8931C114.58 21.8931 114.264 21.9347 114.038 22.018C113.812 22.0895 113.699 22.2204 113.699 22.4109C113.699 22.5895 113.812 22.7264 114.038 22.8216C114.264 22.9168 114.669 23.0359 115.252 23.1787C115.633 23.274 115.794 23.3156 115.734 23.3037C116.496 23.5061 117.085 23.7323 117.502 23.9823C117.919 24.2323 118.21 24.5299 118.377 24.8751C118.556 25.2084 118.645 25.637 118.645 26.1608C118.645 26.9822 118.288 27.6369 117.574 28.125C116.871 28.6012 115.847 28.8393 114.502 28.8393Z" fill="#3D3A2C"></path>
    <path id="Vector_17" d="M123.338 28.8391C122.16 28.8391 121.273 28.5117 120.678 27.857C120.095 27.2022 119.803 26.3392 119.803 25.2678V20H122.946V24.9106C122.946 25.8987 123.392 26.3927 124.285 26.3927C124.69 26.3927 125.059 26.2975 125.392 26.107C125.725 25.9165 125.999 25.6368 126.213 25.2678V20H129.356V28.5712H126.321V27.6427C125.952 28.0355 125.505 28.3331 124.981 28.5355C124.458 28.7379 123.91 28.8391 123.338 28.8391Z" fill="#3D3A2C"></path>
    <path id="Vector_18" d="M130.965 20.0002H133.876V20.9288C134.233 20.5479 134.644 20.2562 135.108 20.0538C135.572 19.8395 136.066 19.7324 136.59 19.7324C137.233 19.7324 137.745 19.8276 138.126 20.0181C138.519 20.2086 138.834 20.4943 139.072 20.8752C139.429 20.5181 139.864 20.2383 140.376 20.036C140.888 19.8336 141.406 19.7324 141.929 19.7324C143.06 19.7324 143.864 20.0241 144.34 20.6074C144.816 21.1788 145.054 22.0061 145.054 23.0894V28.5714H142.054V23.5359C142.054 23.0597 141.965 22.7145 141.786 22.5002C141.608 22.2859 141.31 22.1788 140.894 22.1788C140.358 22.1788 139.923 22.3692 139.59 22.7502C139.602 22.9525 139.608 23.2621 139.608 23.6787V28.5714H136.608V23.4109C136.608 22.9704 136.531 22.6549 136.376 22.4645C136.221 22.274 135.947 22.1788 135.555 22.1788C134.947 22.1788 134.424 22.518 133.983 23.1966V28.5714H130.965V20.0002Z" fill="#3D3A2C"></path>
  </g>
</svg>
