<?xml version="1.0" encoding="UTF-8"?>
<svg xmlns="http://www.w3.org/2000/svg" width="97" height="50" viewBox="0 0 97 50" fill="none">
  <g id="Logo">
    <path id="Vector" d="M24.5781 24.5772L24.7767 24.5352H41.2949L47.5018 30.7421H30.7432L24.5781 24.5772Z" fill="black"></path>
    <path id="Vector_2" d="M19.2607 24.5352L2.50195 24.5353L8.70883 30.7422H19.2605L19.2607 24.5352Z" fill="black"></path>
    <path id="Vector_3" d="M53.2695 6.70508H55.8436V14.7036H60.2647V16.8705H53.2695V6.70508Z" fill="black"></path>
    <path id="Vector_4" d="M64.9397 17.0886C64.0768 17.0886 63.3209 16.9335 62.6708 16.6232C62.0213 16.3033 61.5172 15.8671 61.1584 15.3144C60.8093 14.7521 60.6348 14.1074 60.6348 13.3802C60.6348 12.6531 60.8093 12.0132 61.1584 11.4606C61.5172 10.8983 62.0213 10.462 62.6708 10.1518C63.3209 9.8318 64.0768 9.67188 64.9397 9.67188C65.8026 9.67188 66.5591 9.8318 67.2086 10.1518C67.858 10.462 68.3573 10.8983 68.7063 11.4606C69.0651 12.0132 69.2445 12.6531 69.2445 13.3802C69.2445 14.1074 69.0651 14.7521 68.7063 15.3144C68.3573 15.8671 67.858 16.3033 67.2086 16.6232C66.5591 16.9335 65.8026 17.0886 64.9397 17.0886ZM64.9397 15.0963C65.4535 15.0963 65.861 14.946 66.1614 14.6455C66.4715 14.3352 66.6266 13.9135 66.6266 13.3802C66.6266 12.847 66.4715 12.4301 66.1614 12.1295C65.861 11.8193 65.4535 11.6642 64.9397 11.6642C64.4258 11.6642 64.0142 11.8193 63.7034 12.1295C63.403 12.4301 63.2528 12.847 63.2528 13.3802C63.2528 13.9135 63.403 14.3352 63.7034 14.6455C64.0142 14.946 64.4258 15.0963 64.9397 15.0963Z" fill="black"></path>
    <path id="Vector_5" d="M74.0513 20.2153C73.5861 20.2153 73.116 20.1717 72.6404 20.0844C72.1752 19.9972 71.7733 19.8808 71.434 19.7354V17.9612C72.1996 18.2908 73.0722 18.4557 74.0513 18.4557C74.7591 18.4557 75.2681 18.3102 75.5782 18.0193C75.8981 17.7285 76.058 17.302 76.058 16.7396V16.3178C75.7771 16.5602 75.4281 16.7493 75.0115 16.885C74.6041 17.0208 74.1674 17.0886 73.7022 17.0886C72.9658 17.0886 72.3157 16.9335 71.7539 16.6232C71.1913 16.3131 70.7505 15.8767 70.4299 15.3144C70.1198 14.7521 69.9648 14.1074 69.9648 13.3802C69.9648 12.6434 70.1198 11.9938 70.4299 11.4315C70.7408 10.8692 71.1767 10.4378 71.7393 10.1372C72.3011 9.82701 72.9464 9.67188 73.673 9.67188C74.6722 9.67188 75.4962 9.97728 76.1456 10.588V9.89001H78.6176V16.3906C78.6176 17.6025 78.2449 18.5429 77.4981 19.2119C76.761 19.8808 75.6123 20.2153 74.0513 20.2153ZM74.3419 15.1108C74.7397 15.1108 75.0936 15.009 75.4037 14.8054C75.7138 14.6018 75.9322 14.3304 76.058 13.991V12.7695C75.9224 12.4301 75.6992 12.1635 75.3891 11.9696C75.079 11.766 74.7299 11.6642 74.3419 11.6642C73.819 11.6642 73.397 11.8193 73.0771 12.1295C72.7572 12.4301 72.5973 12.8422 72.5973 13.3657C72.5973 13.8989 72.7572 14.3255 73.0771 14.6455C73.397 14.9557 73.819 15.1108 74.3419 15.1108Z" fill="black"></path>
    <path id="Vector_6" d="M83.5724 17.0886C82.7095 17.0886 81.953 16.9335 81.3035 16.6232C80.6541 16.3033 80.15 15.8671 79.7912 15.3144C79.4421 14.7521 79.2676 14.1074 79.2676 13.3802C79.2676 12.6531 79.4421 12.0132 79.7912 11.4606C80.15 10.8983 80.6541 10.462 81.3035 10.1518C81.953 9.8318 82.7095 9.67188 83.5724 9.67188C84.4353 9.67188 85.1912 9.8318 85.8413 10.1518C86.4908 10.462 86.99 10.8983 87.3391 11.4606C87.6979 12.0132 87.8773 12.6531 87.8773 13.3802C87.8773 14.1074 87.6979 14.7521 87.3391 15.3144C86.99 15.8671 86.4908 16.3033 85.8413 16.6232C85.1912 16.9335 84.4353 17.0886 83.5724 17.0886ZM83.5724 15.0963C84.0863 15.0963 84.4931 14.946 84.7941 14.6455C85.1043 14.3352 85.2593 13.9135 85.2593 13.3802C85.2593 12.847 85.1043 12.4301 84.7941 12.1295C84.4931 11.8193 84.0863 11.6642 83.5724 11.6642C83.0586 11.6642 82.6462 11.8193 82.3361 12.1295C82.0357 12.4301 81.8855 12.847 81.8855 13.3802C81.8855 13.9135 82.0357 14.3352 82.3361 14.6455C82.6462 14.946 83.0586 15.0963 83.5724 15.0963Z" fill="black"></path>
    <path id="Vector_7" d="M53.2695 20.6113H55.8436V30.7767H53.2695V20.6113Z" fill="black"></path>
    <path id="Vector_8" d="M57.1465 23.7962H59.6185V24.4942C60.268 23.8835 61.0927 23.5781 62.0912 23.5781C62.8178 23.5781 63.4631 23.7332 64.0249 24.0435C64.5874 24.344 65.0234 24.7754 65.3342 25.3377C65.6444 25.8903 65.7994 26.5351 65.7994 27.2719C65.7994 27.999 65.6444 28.6486 65.3342 29.2206C65.0234 29.7829 64.5874 30.2193 64.0249 30.5294C63.4728 30.8397 62.8275 30.9948 62.0912 30.9948C61.6253 30.9948 61.1796 30.9221 60.7533 30.7767C60.3361 30.641 59.9871 30.4519 59.7062 30.2095V33.9616H57.1465V23.7962ZM61.4223 29.0025C61.9458 29.0025 62.3672 28.8474 62.6871 28.5371C63.0069 28.2269 63.1669 27.8051 63.1669 27.2719C63.1669 26.7387 63.0069 26.3218 62.6871 26.0212C62.3672 25.711 61.9458 25.5559 61.4223 25.5559C61.0343 25.5559 60.6852 25.6577 60.3751 25.8613C60.0649 26.0551 59.8417 26.3218 59.7062 26.6611V27.8972C59.8417 28.2366 60.0649 28.508 60.3751 28.7116C60.6852 28.9056 61.0343 29.0025 61.4223 29.0025Z" fill="black"></path>
    <path id="Vector_9" d="M69.616 30.9948C69.0534 30.9948 68.4666 30.9366 67.8561 30.8203C67.2456 30.7137 66.7602 30.5586 66.4021 30.355V28.479C66.7991 28.7116 67.2741 28.9056 67.8269 29.0607C68.3894 29.2061 68.9032 29.2788 69.3684 29.2788C69.7078 29.2788 69.9553 29.2545 70.1104 29.2061C70.2654 29.1576 70.3426 29.0607 70.3426 28.9152C70.3426 28.7989 70.2898 28.7068 70.1827 28.639C70.086 28.5614 69.9018 28.4838 69.6306 28.4062C69.3684 28.319 69.0632 28.2269 68.7141 28.1299C68.1224 27.9554 67.6572 27.776 67.3179 27.5918C66.9785 27.4076 66.7268 27.175 66.562 26.8938C66.3972 26.6127 66.3145 26.2587 66.3145 25.8321C66.3145 25.076 66.61 24.5136 67.2017 24.1453C67.8025 23.7671 68.6223 23.5781 69.6591 23.5781C70.1632 23.5781 70.6917 23.6314 71.2445 23.738C71.807 23.8447 72.2284 23.9853 72.51 24.1598V26.0067C72.2186 25.8128 71.8313 25.6528 71.3467 25.5268C70.8711 25.4008 70.4253 25.3377 70.0081 25.3377C69.6786 25.3377 69.422 25.3716 69.2377 25.4395C69.0534 25.4977 68.9617 25.6044 68.9617 25.7595C68.9617 25.9049 69.0534 26.0164 69.2377 26.0939C69.422 26.1715 69.7516 26.2685 70.2265 26.3848C70.5366 26.4623 70.668 26.4963 70.6193 26.4866C71.2396 26.6514 71.7194 26.8356 72.0587 27.0392C72.398 27.2429 72.6358 27.4852 72.7714 27.7664C72.9168 28.0378 72.9898 28.3868 72.9898 28.8134C72.9898 29.4824 72.6991 30.0157 72.1171 30.4131C71.5448 30.8009 70.7111 30.9948 69.616 30.9948Z" fill="black"></path>
    <path id="Vector_10" d="M76.811 30.9955C75.8514 30.9955 75.129 30.7289 74.6443 30.1957C74.1694 29.6624 73.9316 28.9596 73.9316 28.087V23.7969H76.4912V27.7961C76.4912 28.6008 76.8548 29.0032 77.5815 29.0032C77.9117 29.0032 78.2121 28.9256 78.4833 28.7705C78.7552 28.6154 78.9777 28.3875 79.1522 28.087V23.7969H81.7118V30.7774H79.2398V30.0211C78.9394 30.3411 78.5758 30.5835 78.1488 30.7483C77.7226 30.9131 77.2762 30.9955 76.811 30.9955Z" fill="black"></path>
    <path id="Vector_11" d="M83.0232 23.7962H85.3936V24.5524C85.6842 24.2422 86.0187 24.0047 86.397 23.8398C86.7752 23.6653 87.1778 23.5781 87.6041 23.5781C88.1276 23.5781 88.5449 23.6556 88.855 23.8107C89.1748 23.9659 89.4314 24.1985 89.6254 24.5088C89.9161 24.2179 90.27 23.9901 90.6872 23.8253C91.1037 23.6605 91.5258 23.5781 91.952 23.5781C92.8734 23.5781 93.5277 23.8156 93.9157 24.2906C94.3037 24.756 94.4977 25.4298 94.4977 26.3121V30.7767H92.0542V26.6757C92.0542 26.2879 91.9812 26.0067 91.8359 25.8321C91.6906 25.6577 91.4479 25.5704 91.1086 25.5704C90.6726 25.5704 90.3187 25.7256 90.0475 26.0357C90.0572 26.2006 90.0621 26.4527 90.0621 26.792V30.7767H87.6187V26.5739C87.6187 26.2151 87.5554 25.9582 87.4295 25.8031C87.3037 25.648 87.0805 25.5704 86.7606 25.5704C86.2662 25.5704 85.8393 25.8467 85.4812 26.3993V30.7767H83.0232V23.7962Z" fill="black"></path>
    <path id="Vector_12" d="M24.7765 24.5345L24.5778 24.5766L30.7426 30.7414V47.5H25.4667L19.2598 41.2931H24.5357V24.5344H19.2598V19.2587H24.5357V2.5L30.7426 8.70689V19.2586L24.5357 19.2587V24.5344L24.7765 24.5345Z" fill="#555555"></path>
    <path id="Vector_13" d="M41.2949 24.5337L47.5018 30.7406V25.4647L41.2949 19.2578V24.5337Z" fill="#555555"></path>
    <path id="Vector_14" d="M53.6348 35.5488H57.4013C58.4676 35.5488 59.2964 35.8009 59.8882 36.3051C60.4889 36.8092 60.79 37.5557 60.79 38.5446C60.79 39.5432 60.4938 40.2898 59.9028 40.7843C59.311 41.2787 58.4773 41.5259 57.4013 41.5259H54.7691V45.7142H53.6348V35.5488ZM57.3141 40.5661C58.0413 40.5661 58.6136 40.4207 59.0301 40.1298C59.4473 39.8293 59.6552 39.3009 59.6552 38.5446C59.6552 37.7787 59.4473 37.2503 59.0301 36.9595C58.6136 36.6589 58.0413 36.5087 57.3141 36.5087H54.7691V40.5661H57.3141Z" fill="#555555"></path>
    <path id="Vector_15" d="M62.2403 34.9668H63.3598V45.7139H62.2403V34.9668Z" fill="#555555"></path>
    <path id="Vector_16" d="M68.2143 45.9331C67.2833 45.9331 66.5657 45.681 66.0615 45.1768C65.5671 44.6727 65.3203 43.9989 65.3203 43.1554V38.7344H66.4398V43.2136C66.4398 44.4352 67.0746 45.046 68.345 45.046C68.8784 45.046 69.3435 44.9296 69.7413 44.697C70.1481 44.4642 70.5117 44.0958 70.8316 43.5917V38.7344H71.9518V45.7149H70.8608V44.6678C70.2308 45.5113 69.3484 45.9331 68.2143 45.9331Z" fill="#555555"></path>
    <path id="Vector_17" d="M76.4147 45.9324C75.9586 45.9324 75.4691 45.8645 74.9455 45.7288C74.4219 45.6027 74.0151 45.4428 73.7238 45.2488V44.3036C74.0923 44.5266 74.5144 44.7059 74.9893 44.8416C75.4739 44.9774 75.9391 45.0452 76.3855 45.0452C76.9863 45.0452 77.4181 44.9628 77.6796 44.798C77.9514 44.6235 78.087 44.3666 78.087 44.0273C78.087 43.7655 78.0286 43.5619 77.9125 43.4165C77.7957 43.2613 77.6024 43.1256 77.3305 43.0093C77.0593 42.8929 76.6373 42.7572 76.0657 42.6021C75.5032 42.447 75.0526 42.287 74.7132 42.1222C74.3837 41.9476 74.1312 41.7295 73.9567 41.4677C73.7822 41.206 73.6953 40.8715 73.6953 40.4643C73.6953 39.8341 73.947 39.3542 74.4511 39.0246C74.965 38.6852 75.6436 38.5156 76.4871 38.5156C76.9425 38.5156 77.3694 38.5592 77.7672 38.6464C78.174 38.724 78.5133 38.8355 78.7852 38.981V39.9262C78.5035 39.7711 78.1642 39.6499 77.7672 39.5626C77.3694 39.4657 76.9571 39.4172 76.5309 39.4172C75.9683 39.4172 75.5421 39.4996 75.2507 39.6644C74.9601 39.8293 74.8148 40.0959 74.8148 40.4643C74.8148 40.7164 74.8634 40.9103 74.9601 41.046C75.0672 41.1817 75.2556 41.3078 75.5275 41.4241C75.8084 41.5308 76.2548 41.6665 76.8653 41.8313C77.738 42.0737 78.3436 42.3597 78.6829 42.6894C79.032 43.0093 79.2065 43.4553 79.2065 44.0273C79.2065 44.6186 78.9743 45.084 78.5084 45.4234C78.053 45.7627 77.3548 45.9324 76.4147 45.9324Z" fill="#555555"></path>
  </g>
</svg>
