<?xml version="1.0" encoding="UTF-8"?>
<svg xmlns="http://www.w3.org/2000/svg" width="127" height="39" viewBox="0 0 127 39" fill="none">
  <g id="Logo">
    <path id="Vector" d="M19.5 2C17.2019 2 14.9262 2.4527 12.803 3.3321C10.6798 4.2116 8.7507 5.5006 7.1256 7.1256C5.5006 8.7507 4.2116 10.6798 3.3321 12.803C2.4527 14.9262 2 17.2019 2 19.5C2 21.7981 2.4527 24.0738 3.3321 26.197C4.2116 28.3202 5.5006 30.2493 7.1256 31.8744C8.7507 33.4994 10.6798 34.7884 12.803 35.6679C14.9262 36.5473 17.2019 37 19.5 37V28.25C18.3509 28.25 17.2131 28.0237 16.1515 27.5839C15.0899 27.1442 14.1253 26.4997 13.3128 25.6872C12.5003 24.8747 11.8558 23.9101 11.4161 22.8485C10.9763 21.7869 10.75 20.6491 10.75 19.5C10.75 18.3509 10.9763 17.2131 11.4161 16.1515C11.8558 15.0899 12.5003 14.1253 13.3128 13.3128C14.1253 12.5003 15.0899 11.8558 16.1515 11.4161C17.2131 10.9763 18.3509 10.75 19.5 10.75V2Z" fill="#0F52FF"></path>
    <path id="Vector_2" d="M19.4993 25.3346C22.721 25.3346 25.3326 22.723 25.3326 19.5013C25.3326 16.2796 22.721 13.668 19.4993 13.668C16.2776 13.668 13.666 16.2796 13.666 19.5013C13.666 22.723 16.2776 25.3346 19.4993 25.3346Z" fill="#0F52FF"></path>
    <path id="Vector_3" d="M2 19.5C2 21.7981 2.4527 24.0738 3.3321 26.197C4.2116 28.3202 5.5006 30.2493 7.1256 31.8744C8.7507 33.4994 10.6798 34.7884 12.803 35.6679C14.9262 36.5473 17.2019 37 19.5 37C21.7981 37 24.0738 36.5473 26.197 35.6679C28.3202 34.7884 30.2493 33.4994 31.8744 31.8744C33.4994 30.2493 34.7884 28.3202 35.6679 26.197C36.5473 24.0738 37 21.7981 37 19.5H28.25C28.25 20.6491 28.0237 21.7869 27.5839 22.8485C27.1442 23.9101 26.4997 24.8747 25.6872 25.6872C24.8747 26.4997 23.9101 27.1442 22.8485 27.5839C21.7869 28.0237 20.6491 28.25 19.5 28.25C18.3509 28.25 17.2131 28.0237 16.1515 27.5839C15.0899 27.1442 14.1253 26.4997 13.3128 25.6872C12.5003 24.8747 11.8558 23.9101 11.4161 22.8485C10.9763 21.7869 10.75 20.6491 10.75 19.5H2Z" fill="#5BD0F4"></path>
    <path id="Vector_4" d="M25.3327 19.5014C25.3327 17.9543 24.7181 16.4706 23.6242 15.3766C22.5302 14.2826 21.0465 13.668 19.4994 13.668C17.9523 13.668 16.4686 14.2826 15.3746 15.3766C14.2806 16.4706 13.666 17.9543 13.666 19.5014H19.4994H25.3327Z" fill="#5BD0F4"></path>
    <path id="Vector_5" d="M46.1403 12.9258H43.9668V25.0008H46.1403V12.9258Z" fill="#0F52FF"></path>
    <path id="Vector_6" d="M47.5586 20.7226C47.5586 23.5171 49.4906 25.2421 52.0436 25.2421C54.5966 25.2421 56.5286 23.5171 56.5286 20.7226C56.5286 17.9281 54.5966 16.2031 52.0436 16.2031C49.4906 16.2031 47.5586 17.9281 47.5586 20.7226ZM49.7321 20.7226C49.7321 19.0666 50.6981 18.1006 52.0436 18.1006C53.3891 18.1006 54.3551 19.0666 54.3551 20.7226C54.3551 22.3786 53.3891 23.3446 52.0436 23.3446C50.6981 23.3446 49.7321 22.3786 49.7321 20.7226Z" fill="#0F52FF"></path>
    <path id="Vector_7" d="M64.2952 16.4446V17.6003H64.1227C63.6052 16.8586 62.7772 16.2031 61.2937 16.2031C59.2582 16.2031 57.4297 17.9281 57.4297 20.5846C57.4297 23.2411 59.2582 24.9661 61.2937 24.9661C62.7772 24.9661 63.6052 24.2933 64.0882 23.6206H64.2607V24.4486C64.2607 26.1046 63.2947 26.8636 61.8802 26.8636C60.4657 26.8636 59.7412 26.1046 59.4479 25.1213L57.4987 25.9666C57.9472 27.2603 59.2582 28.6921 61.9147 28.6921C64.6402 28.6921 66.4342 27.2603 66.4342 24.5003V16.4446H64.2952ZM61.9492 23.1031C60.6037 23.1031 59.6032 22.1371 59.6032 20.5846C59.6032 19.0321 60.6037 18.0661 61.9492 18.0661C63.2947 18.0661 64.2952 19.0321 64.2952 20.5846C64.2952 22.1371 63.2947 23.1031 61.9492 23.1031Z" fill="#0F52FF"></path>
    <path id="Vector_8" d="M67.8418 20.7226C67.8418 23.5171 69.7738 25.2421 72.3268 25.2421C74.8798 25.2421 76.8117 23.5171 76.8117 20.7226C76.8117 17.9281 74.8798 16.2031 72.3268 16.2031C69.7738 16.2031 67.8418 17.9281 67.8418 20.7226ZM70.0153 20.7226C70.0153 19.0666 70.9813 18.1006 72.3268 18.1006C73.6723 18.1006 74.6383 19.0666 74.6383 20.7226C74.6383 22.3786 73.6723 23.3446 72.3268 23.3446C70.9813 23.3446 70.0153 22.3786 70.0153 20.7226Z" fill="#0F52FF"></path>
    <path id="Vector_9" d="M78.5176 13.9601C78.5176 14.8399 79.1906 15.4436 80.0536 15.4436C80.9156 15.4436 81.5886 14.8399 81.5886 13.9601C81.5886 13.0804 80.9156 12.4766 80.0536 12.4766C79.1906 12.4766 78.5176 13.0804 78.5176 13.9601ZM81.1396 16.4441H78.9666V25.0001H81.1396V16.4441Z" fill="#5BD0F4"></path>
    <path id="Vector_10" d="M83.0762 28.4506H85.2502V23.8966H85.4222C85.9052 24.5866 86.7332 25.2421 88.2172 25.2421C90.2522 25.2421 92.0812 23.5171 92.0812 20.7226C92.0812 17.9281 90.2522 16.2031 88.2172 16.2031C86.7332 16.2031 85.9052 16.8586 85.3882 17.6004H85.2152V16.4446H83.0762V28.4506ZM87.5612 23.3791C86.2162 23.3791 85.2152 22.4131 85.2152 20.7226C85.2152 19.0321 86.2162 18.0661 87.5612 18.0661C88.9072 18.0661 89.9072 19.0321 89.9072 20.7226C89.9072 22.4131 88.9072 23.3791 87.5612 23.3791Z" fill="#5BD0F4"></path>
    <path id="Vector_11" d="M93.3481 18.8424C93.3481 20.5329 94.7621 21.1539 96.5561 21.4989L97.0051 21.5851C98.0741 21.7921 98.5571 22.0509 98.5571 22.6029C98.5571 23.1549 98.0741 23.5861 97.0741 23.5861C96.0731 23.5861 95.2631 23.1721 95.0381 21.9301L93.0371 22.4476C93.3311 24.2416 94.8311 25.2421 97.0741 25.2421C99.2471 25.2421 100.662 24.2244 100.662 22.4304C100.662 20.6363 99.2131 20.1534 97.2811 19.7739L96.8321 19.6876C95.9351 19.5151 95.4521 19.2736 95.4521 18.7044C95.4521 18.1869 95.9011 17.8591 96.7291 17.8591C97.5571 17.8591 98.1431 18.2041 98.3501 19.1356L100.317 18.5319C99.9031 17.1519 98.6441 16.2031 96.7291 16.2031C94.6931 16.2031 93.3481 17.1519 93.3481 18.8424Z" fill="#5BD0F4"></path>
    <path id="Vector_12" d="M110.426 25.0013V16.4453H108.253V20.8613C108.253 22.4483 107.477 23.3798 106.148 23.3798C104.975 23.3798 104.32 22.7416 104.32 21.4478V16.4453H102.146V21.5513C102.146 23.6731 103.475 25.1393 105.476 25.1393C107.045 25.1393 107.77 24.4493 108.115 23.7248H108.287V25.0013H110.426Z" fill="#5BD0F4"></path>
    <path id="Vector_13" d="M112.354 16.4427V24.9987H114.528V19.8927C114.528 18.7197 115.08 18.0642 116.08 18.0642C116.943 18.0642 117.46 18.5472 117.46 19.4787V24.9987H119.634V19.8927C119.634 18.7197 120.186 18.0642 121.186 18.0642C122.049 18.0642 122.566 18.5472 122.566 19.4787V24.9987H124.74V19.3752C124.74 17.3052 123.463 16.3047 121.876 16.3047C120.479 16.3047 119.841 16.9257 119.427 17.6502H119.254C118.857 16.8395 118.15 16.3047 116.908 16.3047C115.666 16.3047 114.993 16.8567 114.666 17.5122H114.493V16.4427H112.354Z" fill="#5BD0F4"></path>
  </g>
</svg>
