<?xml version="1.0" encoding="UTF-8"?>
<svg xmlns="http://www.w3.org/2000/svg" width="138" height="36" viewBox="0 0 138 36" fill="none">
  <g id="Logo">
    <path id="Vector" d="M11.3071 32.6553L8.05469 27.0219L12.8278 18.7773L15.8609 24.0312L33.7661 24.0216L28.6854 32.7331L11.3071 32.6553Z" fill="#FFAD64"></path>
    <path id="Vector_2" d="M36.9641 18.4282L33.7117 24.0615L24.1851 24.0503L27.2185 18.7965L18.2576 3.29492L28.3423 3.33917L36.9641 18.4282Z" fill="#ADD4D3"></path>
    <path id="Vector_3" d="M11.8093 3.26367H18.3142L23.0677 11.5197L17.001 11.5194L8.05681 27.0306L3.05273 18.2749L11.8093 3.26367Z" fill="#FB8351"></path>
    <path id="Vector_4" fill-rule="evenodd" clip-rule="evenodd" d="M19.1073 1.95943L19.0879 1.92578H11.0409L1.50781 18.2682L8.05175 29.7182L8.05978 29.7043L10.5337 33.9892L29.4531 34.0738L36.0972 22.6815H36.053L38.5074 18.4304L29.121 2.00336L19.1073 1.95943ZM25.3321 12.8578H25.3823L20.652 4.64234L27.5641 4.67265L35.4213 18.4235L32.962 22.6833L26.517 22.6867L28.7641 18.7948L25.3321 12.8578ZM17.4686 4.60184L20.694 10.1816L16.2282 10.1815L8.58262 23.4404L8.0611 24.3413L4.59797 18.2818L12.578 4.60184H17.4686ZM14.3675 18.7654L17.7741 12.8576L22.2411 12.8578L25.6735 18.7956L23.4259 22.6884L16.6344 22.6921L14.3675 18.7654ZM9.60384 27.0265L10.8999 24.779L12.8272 21.4499L15.0897 25.369L21.8802 25.3653L21.8692 25.3843L31.4164 25.3956L27.9199 31.3909L12.0827 31.32L9.60384 27.0265Z" fill="#333237"></path>
    <path id="Vector_5" d="M87.2464 11.7198C88.1628 11.7198 88.9073 10.9752 88.9073 10.0398C88.9073 9.10436 88.1628 8.37891 87.2464 8.37891C86.311 8.37891 85.5664 9.10436 85.5664 10.0398C85.5664 10.9752 86.311 11.7198 87.2464 11.7198ZM85.7573 22.7543H88.7164V13.2089H85.7573V22.7543Z" fill="#FB8351"></path>
    <path id="Vector_6" d="M90.4375 27.3351H93.3394V21.7987C93.893 22.5242 95.153 23.0205 96.4703 23.0205C99.3148 23.0205 101.033 20.8442 100.957 17.8278C100.88 14.7541 99.1048 12.9023 96.4512 12.9023C95.0957 12.9023 93.8166 13.4941 93.2821 14.3723L93.1294 13.2078H90.4375V27.3351ZM93.3966 17.9805C93.3966 16.5487 94.3512 15.5942 95.7257 15.5942C97.1194 15.5942 97.9976 16.5678 97.9976 17.9805C97.9976 19.3932 97.1194 20.3669 95.7257 20.3669C94.3512 20.3669 93.3966 19.4123 93.3966 17.9805Z" fill="#FB8351"></path>
    <path id="Vector_7" d="M101.271 19.7369C101.347 21.6651 102.875 23.0014 105.28 23.0014C107.59 23.0014 109.194 21.7796 109.194 19.8132C109.194 18.4005 108.354 17.4651 106.788 17.0832L105.089 16.6632C104.478 16.5105 104.096 16.3578 104.096 15.8614C104.096 15.3651 104.497 15.0405 105.089 15.0405C105.757 15.0405 106.196 15.4796 106.177 16.1287H108.831C108.755 14.1432 107.246 12.9023 105.146 12.9023C103.027 12.9023 101.443 14.1623 101.443 16.0714C101.443 17.3505 102.149 18.4005 104.039 18.8969L105.719 19.336C106.215 19.4696 106.425 19.6987 106.425 20.0232C106.425 20.5005 105.986 20.806 105.242 20.806C104.383 20.806 103.925 20.4051 103.925 19.7369H101.271Z" fill="#FB8351"></path>
    <path id="Vector_8" d="M113.695 23.0006C114.859 23.0006 116.024 22.4661 116.616 21.6834L116.807 22.7524H119.575V13.207H116.635V18.1706C116.635 19.6024 116.215 20.3852 114.859 20.3852C113.809 20.3852 113.122 19.9079 113.122 18.1324V13.207H110.182V19.2015C110.182 21.4734 111.442 23.0006 113.695 23.0006Z" fill="#FB8351"></path>
    <path id="Vector_9" d="M124.236 22.7528V17.541C124.236 15.9374 125.095 15.4792 125.935 15.4792C126.871 15.4792 127.482 16.0519 127.482 17.2356V22.7528H130.383V17.541C130.383 15.9183 131.223 15.4601 132.063 15.4601C132.999 15.4601 133.629 16.0328 133.629 17.2356V22.7528H136.492V16.5101C136.492 14.3337 135.347 12.8828 132.884 12.8828C131.51 12.8828 130.383 13.551 129.887 14.5819C129.314 13.551 128.322 12.8828 126.737 12.8828C125.687 12.8828 124.713 13.3601 124.141 14.1237L124.026 13.2074H121.277V22.7528H124.236Z" fill="#FB8351"></path>
    <path id="Vector_10" d="M46.9239 8.62891H43.793V22.7562H52.4603V19.988H46.9239V8.62891Z" fill="#333237"></path>
    <path id="Vector_11" d="M52.7598 17.962C52.7598 20.9783 54.7835 22.9829 57.838 22.9829C60.8735 22.9829 62.8971 20.9783 62.8971 17.962C62.8971 14.9456 60.8735 12.9219 57.838 12.9219C54.7835 12.9219 52.7598 14.9456 52.7598 17.962ZM55.7189 17.9429C55.7189 16.511 56.5589 15.5565 57.838 15.5565C59.098 15.5565 59.938 16.511 59.938 17.9429C59.938 19.3938 59.098 20.3483 57.838 20.3483C56.5589 20.3483 55.7189 19.3938 55.7189 17.9429Z" fill="#333237"></path>
    <path id="Vector_12" d="M63.3701 17.8102C63.3701 20.693 65.2411 22.6402 67.8947 22.6402C69.1738 22.6402 70.2811 22.1821 70.8347 21.4375V22.7548C70.8347 24.0721 70.0138 24.9502 68.5629 24.9502C67.2647 24.9502 66.3674 24.3393 66.3101 23.2511H63.332C63.5992 25.8666 65.6229 27.623 68.3911 27.623C71.6556 27.623 73.7174 25.5039 73.7174 22.1439V13.2093H71.0638L70.9111 14.183C70.3765 13.4002 69.2502 12.8848 67.952 12.8848C65.2792 12.8848 63.3701 14.8893 63.3701 17.8102ZM66.3483 17.7339C66.3483 16.3593 67.2647 15.443 68.4292 15.443C69.7847 15.443 70.7774 16.3402 70.7774 17.7339C70.7774 19.1275 69.8038 20.082 68.4483 20.082C67.2838 20.082 66.3483 19.1275 66.3483 17.7339Z" fill="#333237"></path>
    <path id="Vector_13" d="M74.5742 17.962C74.5742 20.9783 76.5978 22.9829 79.6524 22.9829C82.6878 22.9829 84.7115 20.9783 84.7115 17.962C84.7115 14.9456 82.6878 12.9219 79.6524 12.9219C76.5978 12.9219 74.5742 14.9456 74.5742 17.962ZM77.5333 17.9429C77.5333 16.511 78.3733 15.5565 79.6524 15.5565C80.9124 15.5565 81.7524 16.511 81.7524 17.9429C81.7524 19.3938 80.9124 20.3483 79.6524 20.3483C78.3733 20.3483 77.5333 19.3938 77.5333 17.9429Z" fill="#333237"></path>
  </g>
</svg>
