<?xml version="1.0" encoding="UTF-8"?>
<svg xmlns="http://www.w3.org/2000/svg" width="138" height="30" viewBox="0 0 138 30" fill="none">
  <g id="Logo">
    <path id="Vector" d="M20.989 23.7596L3.04902 11.3846C1.23102 10.1306 1.84902 7.51959 4.11602 6.90559L23.183 1.73059C23.5869 1.58485 24.0197 1.53754 24.4456 1.59259C24.8714 1.64764 25.278 1.80346 25.6316 2.04712C25.9851 2.29078 26.2755 2.61525 26.4785 2.9936C26.6815 3.37195 26.7914 3.79327 26.799 4.22259L25.669 21.7716C25.535 23.8546 22.807 25.0136 20.989 23.7596Z" fill="#E9327C"></path>
    <path id="Vector_2" d="M15.3007 26.8129L4.73171 6.14394C4.49011 5.6711 4.3838 5.14071 4.42449 4.61128C4.46518 4.08185 4.6513 3.57394 4.96231 3.14357C5.27333 2.7132 5.69716 2.37708 6.18707 2.17228C6.67698 1.96748 7.21393 1.90196 7.73871 1.98295L27.3257 5.00594C27.7766 5.07555 28.2046 5.2512 28.5745 5.51845C28.9443 5.78571 29.2454 6.13693 29.4531 6.54324C29.6607 6.94955 29.769 7.39934 29.7689 7.85564C29.7688 8.31193 29.6604 8.7617 29.4527 9.16794L20.4297 26.8139C20.1874 27.2854 19.8198 27.681 19.3673 27.9571C18.9148 28.2333 18.395 28.3793 17.8649 28.3792C17.3348 28.3791 16.815 28.2329 16.3626 27.9566C15.9102 27.6802 15.5428 27.2845 15.3007 26.8129Z" fill="#1DACE3"></path>
    <path id="Vector_3" d="M26.752 4.91716L16.988 3.41016L5 6.66516L9.785 16.0261L20.99 23.7581C21.2372 23.9268 21.5091 24.056 21.796 24.1411L26.052 15.8181L26.752 4.91716Z" fill="#001A49"></path>
    <path id="Vector_4" d="M76.209 7.33304C76.209 6.97011 76.3166 6.61534 76.5182 6.31357C76.7199 6.01181 77.0065 5.77661 77.3418 5.63772C77.6771 5.49884 78.046 5.4625 78.402 5.5333C78.7579 5.60411 79.0849 5.77888 79.3415 6.0355C79.5982 6.29213 79.7729 6.6191 79.8437 6.97505C79.9145 7.33101 79.8782 7.69997 79.7393 8.03527C79.6004 8.37057 79.3652 8.65716 79.0635 8.85879C78.7617 9.06042 78.4069 9.16804 78.044 9.16804C77.5588 9.1631 77.095 8.96818 76.7519 8.62512C76.4089 8.28205 76.2139 7.81818 76.209 7.33304ZM76.515 10.065H79.574V20.259H76.515V10.065Z" fill="#001A49"></path>
    <path id="Vector_5" d="M92.7844 15.1631C92.82 15.8369 92.7219 16.5111 92.496 17.1469C92.27 17.7826 91.9206 18.3675 91.4679 18.8678C91.0151 19.368 90.4679 19.7738 89.8577 20.0619C89.2475 20.3499 88.5864 20.5145 87.9124 20.5461C87.3455 20.5769 86.7788 20.4813 86.2533 20.2662C85.7279 20.051 85.2569 19.7217 84.8744 19.3021V24.3381H81.8164V10.0661H84.8744V11.0241C85.257 10.6046 85.728 10.2755 86.2535 10.0605C86.7789 9.84557 87.3456 9.75011 87.9124 9.7811C88.5864 9.81259 89.2474 9.97703 89.8576 10.2649C90.4678 10.5529 91.015 10.9586 91.4678 11.4588C91.9206 11.959 92.27 12.5437 92.496 13.1795C92.7219 13.8152 92.82 14.4893 92.7844 15.1631ZM89.7264 15.1631C89.7144 14.6858 89.5619 14.2227 89.288 13.8316C89.0141 13.4406 88.6309 13.139 88.1865 12.9647C87.742 12.7903 87.256 12.751 86.7893 12.8515C86.3226 12.952 85.8958 13.1879 85.5625 13.5297C85.2292 13.8715 85.0041 14.3041 84.9154 14.7732C84.8267 15.2423 84.8784 15.7272 85.0639 16.1671C85.2494 16.607 85.5605 16.9824 85.9583 17.2464C86.3562 17.5104 86.823 17.6511 87.3004 17.6511C87.6283 17.6659 87.9555 17.6111 88.2607 17.4905C88.5659 17.3698 88.8421 17.1859 89.0712 16.951C89.3003 16.716 89.4771 16.4353 89.5901 16.1271C89.703 15.819 89.7495 15.4904 89.7264 15.1631Z" fill="#001A49"></path>
    <path id="Vector_6" d="M102.224 17.1996C102.224 19.5446 100.185 20.5436 97.9826 20.5436C97.0931 20.6241 96.1998 20.4358 95.4184 20.0031C94.637 19.5705 94.0035 18.9133 93.5996 18.1166L96.2496 16.6086C96.3574 16.9769 96.5882 17.297 96.9037 17.5154C97.2191 17.7338 97.6 17.8373 97.9826 17.8086C98.7166 17.8086 99.0826 17.5836 99.0826 17.1766C99.0826 16.0546 94.0676 16.6466 94.0676 13.1186C94.0676 10.8966 95.9426 9.77563 98.0676 9.77563C98.8647 9.75061 99.6538 9.93974 100.353 10.3233C101.053 10.7069 101.636 11.2709 102.043 11.9566L99.4336 13.3636C99.3195 13.096 99.1291 12.8679 98.8862 12.7079C98.6432 12.5478 98.3585 12.4629 98.0676 12.4636C97.5376 12.4636 97.2116 12.6636 97.2116 13.0346C97.2086 14.2046 102.224 13.4296 102.224 17.1996Z" fill="#001A49"></path>
    <path id="Vector_7" d="M113.399 10.0664V20.2604H110.341V19.3004C109.988 19.7233 109.539 20.0565 109.032 20.2728C108.526 20.489 107.975 20.5821 107.425 20.5444C105.366 20.5444 103.613 19.0764 103.613 16.3234V10.0664H106.671V15.8774C106.645 16.1204 106.673 16.3661 106.752 16.5973C106.831 16.8285 106.959 17.0398 107.128 17.2164C107.297 17.393 107.502 17.5306 107.729 17.6197C107.957 17.7089 108.201 17.7473 108.445 17.7324C109.566 17.7324 110.345 17.0804 110.345 15.6324V10.0664H113.399Z" fill="#001A49"></path>
    <path id="Vector_8" d="M130.928 13.9988V20.2588H127.87V14.2648C127.87 13.2458 127.38 12.5928 126.402 12.5928C125.382 12.5928 124.812 13.3068 124.812 14.5098V20.2588H121.753V14.2648C121.753 13.2458 121.264 12.5928 120.285 12.5928C119.266 12.5928 118.695 13.3068 118.695 14.5098V20.2588H115.637V10.0648H118.7V10.9988C119.017 10.5829 119.433 10.2531 119.91 10.0394C120.387 9.82578 120.911 9.73514 121.432 9.77579C121.955 9.7502 122.477 9.86064 122.945 10.0964C123.413 10.3321 123.812 10.685 124.103 11.1208C124.442 10.6649 124.891 10.3023 125.408 10.0671C125.925 9.83183 126.494 9.73162 127.06 9.77579C129.4 9.77979 130.928 11.4508 130.928 13.9988Z" fill="#001A49"></path>
    <path id="Vector_9" d="M133.518 10.0029C134.772 10.0029 135.788 8.98658 135.788 7.73289C135.788 6.47921 134.772 5.46289 133.518 5.46289C132.264 5.46289 131.248 6.47921 131.248 7.73289C131.248 8.98658 132.264 10.0029 133.518 10.0029Z" fill="#001A49"></path>
    <path id="Vector_10" d="M34.457 5.37695H37.516V20.26H34.457V5.37695ZM39.248 15.163C39.2447 14.0942 39.5585 13.0485 40.1498 12.1583C40.7411 11.268 41.5833 10.5732 42.5697 10.1619C43.5562 9.75058 44.6424 9.64121 45.6911 9.84765C46.7397 10.0541 47.7035 10.567 48.4604 11.3216C49.2173 12.0761 49.7333 13.0382 49.943 14.0862C50.1527 15.1342 50.0468 16.2208 49.6386 17.2085C49.2304 18.1962 48.5383 19.0406 47.6499 19.6347C46.7615 20.2288 45.7168 20.546 44.648 20.546C43.9382 20.5535 43.234 20.4196 42.5765 20.152C41.9191 19.8844 41.3215 19.4884 40.8188 18.9873C40.316 18.4861 39.9182 17.8898 39.6485 17.2332C39.3788 16.5766 39.2427 15.8728 39.248 15.163ZM46.996 15.163C46.984 14.7019 46.8364 14.2547 46.5715 13.8772C46.3067 13.4997 45.9364 13.2086 45.507 13.0404C45.0775 12.8723 44.6081 12.8344 44.1573 12.9317C43.7065 13.0289 43.2944 13.257 42.9725 13.5872C42.6506 13.9175 42.4333 14.3353 42.3476 14.7884C42.262 15.2416 42.3118 15.7099 42.491 16.1349C42.6701 16.5598 42.9706 16.9225 43.3548 17.1776C43.739 17.4327 44.1899 17.5688 44.651 17.569C44.9668 17.578 45.2811 17.5214 45.5739 17.4029C45.8668 17.2845 46.1319 17.1066 46.3526 16.8805C46.5733 16.6545 46.7448 16.3852 46.8562 16.0896C46.9676 15.7939 47.0166 15.4784 47 15.163H46.996ZM62.245 10.063V19.748C62.245 23.173 59.574 24.62 56.863 24.62C55.9088 24.692 54.9531 24.4999 54.1007 24.0647C53.2484 23.6296 52.5323 22.9681 52.031 22.153L54.64 20.644C54.8506 21.0694 55.1861 21.4204 55.6016 21.6501C56.0171 21.8797 56.4927 21.977 56.965 21.929C57.2665 21.9701 57.5733 21.9431 57.8629 21.8498C58.1525 21.7565 58.4174 21.5995 58.6382 21.3901C58.8589 21.1808 59.0298 20.9246 59.1383 20.6403C59.2468 20.3561 59.2901 20.0511 59.265 19.748V18.81C58.9068 19.248 58.4509 19.596 57.934 19.8261C57.417 20.0562 56.8533 20.162 56.288 20.135C54.9425 20.0931 53.666 19.5292 52.729 18.5626C51.792 17.596 51.268 16.3027 51.268 14.9565C51.268 13.6102 51.792 12.3169 52.729 11.3503C53.666 10.3837 54.9425 9.81977 56.288 9.77795C56.8533 9.75091 57.417 9.85667 57.934 10.0868C58.4509 10.3169 58.9068 10.6649 59.265 11.103V10.063H62.245ZM59.269 14.956C59.2892 14.4636 59.1616 13.9765 58.9027 13.5572C58.6438 13.1379 58.2654 12.8056 57.8161 12.6031C57.3669 12.4006 56.8673 12.3371 56.3817 12.4208C55.8961 12.5045 55.4466 12.7315 55.091 13.0727C54.7354 13.4139 54.49 13.8536 54.3864 14.3353C54.2827 14.8171 54.3255 15.3188 54.5093 15.7761C54.693 16.2333 55.0094 16.6251 55.4176 16.9011C55.8258 17.1771 56.3073 17.3247 56.8 17.325C57.1213 17.3475 57.4438 17.3026 57.7467 17.1931C58.0496 17.0836 58.3262 16.9119 58.5588 16.689C58.7913 16.4662 58.9747 16.1971 59.097 15.8992C59.2193 15.6012 59.2779 15.2809 59.269 14.959V14.956ZM63.977 15.156C63.9737 14.0872 64.2875 13.0415 64.8788 12.1513C65.4701 11.261 66.3123 10.5662 67.2987 10.1549C68.2852 9.74358 69.3714 9.63421 70.4201 9.84065C71.4687 10.0471 72.4324 10.56 73.1894 11.3146C73.9463 12.0691 74.4623 13.0312 74.672 14.0792C74.8817 15.1272 74.7758 16.2138 74.3676 17.2015C73.9594 18.1892 73.2673 19.0336 72.3789 19.6277C71.4905 20.2218 70.4458 20.539 69.377 20.539C68.6678 20.5465 67.9642 20.4128 67.3072 20.1456C66.6502 19.8785 66.0529 19.4831 65.5503 18.9827C65.0476 18.4823 64.6497 17.8869 64.3796 17.231C64.1094 16.5752 63.9726 15.8722 63.977 15.163V15.156ZM71.725 15.156C71.7132 14.6947 71.5656 14.2471 71.3008 13.8692C71.0359 13.4914 70.6654 13.2001 70.2358 13.0317C69.8061 12.8633 69.3364 12.8254 68.8853 12.9227C68.4342 13.0199 68.0218 13.2481 67.6998 13.5785C67.3777 13.909 67.1602 14.3271 67.0746 14.7805C66.9889 15.2339 67.0389 15.7026 67.2182 16.1277C67.3976 16.5529 67.6983 16.9157 68.0828 17.1709C68.4674 17.426 68.9186 17.562 69.38 17.562C69.6949 17.5703 70.008 17.5136 70.2999 17.3953C70.5918 17.277 70.8561 17.0996 71.0763 16.8744C71.2964 16.6492 71.4677 16.3809 71.5793 16.0864C71.691 15.7919 71.7406 15.4775 71.725 15.163V15.156Z" fill="#001A49"></path>
  </g>
</svg>
