<?xml version="1.0" encoding="UTF-8"?>
<svg xmlns="http://www.w3.org/2000/svg" width="55" height="55" viewBox="0 0 55 55" fill="none">
  <g id="Frame" opacity="0.6" clip-path="url(#clip0_839_3943)">
    <g id="Group">
      <path id="Vector" d="M27.484 55C20.1215 54.9844 13.1803 52.0831 7.95479 46.8108C2.77611 41.5854 -0.0471993 34.6909 -0.000404059 27.422C0.0463912 20.0596 2.9321 13.1651 8.11077 8.00199C13.2894 2.83891 20.1683 0 27.4996 0H27.5308C34.8932 0 41.8033 2.87011 46.9976 8.07998C52.1763 13.2742 55.0308 20.1999 54.9996 27.5468C54.9528 42.6773 42.6457 55 27.5464 55H27.484ZM27.4372 2.27737C13.5858 2.32416 2.29256 13.6174 2.27696 27.4688C2.26137 34.1761 4.8975 40.5091 9.67061 45.2978C14.4437 50.0865 20.7611 52.707 27.4684 52.707H27.5152C34.2537 52.6914 40.5711 50.0553 45.3442 45.2666C50.1017 40.4779 52.7222 34.1449 52.7066 27.422C52.6754 13.5706 41.3666 2.27737 27.4996 2.27737H27.4372Z" fill="#13122D"></path>
      <path id="Vector_2" d="M27.6398 45.0808C27.4683 45.0808 27.2967 45.034 27.1251 44.956C26.47 44.644 26.4388 44.1917 26.47 43.8797C26.5948 42.3511 26.002 41.4307 24.4734 40.7912C23.1631 40.2453 21.9308 39.2314 20.7609 38.2643L20.7142 38.2331C20.5426 38.0927 20.4334 37.8899 20.4178 37.6559C20.4022 37.344 20.5114 37.0164 20.7297 36.7824C20.9637 36.5328 21.2445 36.3925 21.5409 36.3925C21.7904 36.3925 22.0556 36.4861 22.2896 36.6732C22.5236 36.8448 22.7419 37.0476 22.9759 37.2504C23.3035 37.5311 23.6311 37.8119 24.0054 38.0771C24.9881 38.7634 26.2048 39.1222 27.4995 39.1222C29.0749 39.1222 30.6191 38.5606 31.7266 37.5779C32.8653 36.564 33.4737 35.2226 33.4425 33.8031C33.3957 32.3837 32.7249 31.0734 31.5239 30.1219C30.1044 28.9988 28.4822 28.7804 27.0939 28.718C24.4266 28.6089 22.2896 27.517 20.7297 25.4892C19.3571 23.6954 18.9359 21.4648 19.5755 19.3434C20.2618 17.0504 22.04 15.2566 24.4422 14.3987C25.1129 14.1647 26.7039 13.6032 26.2828 11.5598C26.2672 11.4818 26.2828 11.3102 26.2828 11.1698V11.0918C26.3296 10.4211 26.7351 9.98435 27.3591 9.96875C27.3747 9.96875 27.3903 9.96875 27.4059 9.96875C28.0454 9.96875 28.4822 10.3899 28.529 11.045C28.5602 11.4662 28.5602 11.9186 28.5446 12.3865C28.5446 12.6049 28.529 12.8233 28.529 13.0416V13.6656L29.1061 13.8995C29.4805 14.0555 29.8236 14.1803 30.1824 14.3207C30.8687 14.5859 31.5239 14.8355 32.0854 15.163C33.0213 15.709 33.8792 16.3797 34.5655 17.0972C34.8151 17.3624 34.9399 17.6588 34.9243 17.9707C34.9087 18.2671 34.7527 18.5635 34.5031 18.7663C34.3004 18.9378 34.082 19.0158 33.8636 19.0158C33.5204 19.0158 33.1461 18.8286 32.8029 18.5011C31.2275 16.9568 29.4337 16.1613 27.4839 16.1613C27.0783 16.1613 26.6727 16.1925 26.2516 16.2549C23.4751 16.7073 21.4005 19.0158 21.5565 21.5116C21.6969 24.0229 23.9118 26.1287 26.7195 26.4407C26.9379 26.4563 27.1407 26.4875 27.3591 26.5031C28.4822 26.6123 29.5429 26.7214 30.51 27.0334C33.5828 28.0161 35.6886 30.777 35.7198 33.8967C35.751 36.954 33.7388 39.7149 30.6815 40.7756C29.1841 41.2904 28.6225 42.1327 28.7161 43.6613C28.7473 44.1137 28.6225 44.5036 28.373 44.7688C28.1702 44.9716 27.9206 45.0808 27.6398 45.0808Z" fill="#13122D"></path>
    </g>
  </g>
  <defs>
    <clipPath id="clip0_839_3943">
      <rect width="55" height="55" fill="white"></rect>
    </clipPath>
  </defs>
</svg>
