<?xml version="1.0" encoding="UTF-8"?>
<svg xmlns="http://www.w3.org/2000/svg" width="47" height="47" viewBox="0 0 47 47" fill="none">
  <g id="Frame" clip-path="url(#clip0_448_623)">
    <g id="Group">
      <path id="Vector" d="M0 12.946C0.0746229 12.3993 0.111934 11.8527 0.211432 11.3184C0.485049 9.97663 1.0696 8.79635 2.02726 7.82728C3.29585 6.53518 4.50225 5.19339 5.87034 4.01311C7.94734 2.21163 10.186 2.22405 12.176 4.08765C14.3027 6.07549 16.33 8.16273 18.3075 10.2872C19.7751 11.8651 19.7626 14.2878 18.3448 15.9029C17.2876 17.108 16.1185 18.2138 14.9868 19.3568C14.7753 19.568 14.7132 19.7171 14.8624 20.0028C16.0066 22.3013 17.611 24.2642 19.3522 26.1278C21.1307 28.0287 23.0958 29.7308 25.3096 31.1471C25.9439 31.5447 26.6155 31.8802 27.312 32.2653C28.0707 31.495 28.8044 30.7372 29.5507 30.0041C30.0482 29.5072 30.5581 29.0102 31.0929 28.563C32.6848 27.2336 35.1101 27.2087 36.615 28.6375C38.8039 30.7247 40.9555 32.8741 43.0325 35.0731C44.5748 36.7007 44.5996 39.1731 43.1072 40.8503C41.7267 42.4033 40.2839 43.9066 38.7417 45.2981C37.1373 46.7517 35.1225 47.1244 32.9958 46.9505C29.0159 46.615 25.4713 44.9999 22.0511 43.099C17.8473 40.7633 14.0913 37.8313 10.8203 34.3028C6.81556 30.0041 3.49484 25.2457 1.41784 19.7046C0.708918 17.8286 0.161683 15.9029 0.0746229 13.8778C0.0746229 13.7784 0.0373115 13.6666 0.0124372 13.5672C0 13.3684 0 13.1572 0 12.946ZM2.69886 13.3311C2.74861 13.8653 2.78592 14.3996 2.84811 14.9214C2.87298 15.1574 2.93517 15.4059 2.98492 15.642C3.70627 18.8846 5.07436 21.8664 6.80312 24.6742C11.4173 32.1535 17.5488 37.9928 25.4713 41.8939C27.909 43.099 30.4213 44.0681 33.1699 44.3042C34.8489 44.4533 36.3289 44.0681 37.5229 42.8257C38.5552 41.7572 39.5999 40.7136 40.6322 39.6452C41.7515 38.4897 41.7515 37.5331 40.6322 36.3901C39.8735 35.6074 39.1024 34.8495 38.3313 34.0792C37.2617 33.0107 36.1921 31.9299 35.1101 30.8738C34.2768 30.0663 33.3689 30.0663 32.4858 30.8117C32.3366 30.9359 32.1998 31.085 32.0505 31.2217C30.9934 32.2653 29.9487 33.3213 28.8915 34.365C28.1577 35.098 27.3369 35.2719 26.4663 34.8371C25.5583 34.3898 24.6629 33.9177 23.8171 33.3835C20.969 31.582 18.5065 29.3084 16.2927 26.7739C14.7505 25.0097 13.3451 23.1337 12.3501 20.9967C11.5666 19.3071 11.6785 18.7853 13.0217 17.4932C14.0789 16.4744 15.136 15.4432 16.1434 14.3747C16.9145 13.5672 16.8897 12.7223 16.1807 11.8651C16.0937 11.7533 16.0066 11.6539 15.9071 11.5545C14.0913 9.74058 12.2755 7.91425 10.4472 6.10034C10.2607 5.91398 10.0243 5.74005 9.78804 5.61581C9.0045 5.20581 8.2334 5.39217 7.42498 6.17489C6.3927 7.18123 5.41016 8.22485 4.36544 9.21877C3.20879 10.3369 2.64911 11.7036 2.69886 13.3311Z" fill="#D6B46F"></path>
      <path id="Vector_2" d="M26.3792 0.000705255C27.4363 0.274033 28.5184 0.510089 29.5631 0.833114C32.9709 1.87673 36.018 3.60367 38.692 5.9518C41.5401 8.44903 43.7415 11.4308 45.2588 14.8971C46.0797 16.7607 46.6518 18.7113 46.9876 20.7239C47.1119 21.4445 46.7015 22.0409 46.0175 22.2148C45.321 22.3888 44.6245 22.0409 44.4255 21.3327C44.1395 20.3512 43.9653 19.3449 43.6668 18.3634C42.3361 13.9653 39.8486 10.3375 36.2916 7.43026C33.3191 4.99515 29.9487 3.42973 26.1678 2.72156C25.1355 2.52278 24.6753 2.05067 24.7002 1.26795C24.725 0.597058 25.1603 0.236761 25.72 -0.0117188C25.9439 0.000705255 26.1553 0.000705255 26.3792 0.000705255Z" fill="#D6B46F"></path>
      <path id="Vector_3" d="M24.3401 9.85263C24.3525 8.99538 25.0863 8.37417 25.9694 8.56053C31.4915 9.6787 35.3843 12.822 37.5857 18.0028C37.9837 18.947 38.2075 19.9782 38.4563 20.9845C38.6553 21.7673 38.2075 22.463 37.4738 22.6494C36.7773 22.8233 36.0932 22.3885 35.8569 21.643C35.546 20.6367 35.3594 19.5806 34.9241 18.6364C33.0834 14.5862 29.9368 12.1262 25.5838 11.2193C24.763 11.0329 24.3277 10.5608 24.3401 9.85263Z" fill="#D6B46F"></path>
    </g>
  </g>
  <defs>
    <clipPath id="clip0_448_623">
      <rect width="47" height="47" fill="white"></rect>
    </clipPath>
  </defs>
</svg>
