<?xml version="1.0" encoding="UTF-8"?>
<svg xmlns="http://www.w3.org/2000/svg" width="23" height="22" viewBox="0 0 23 22" fill="none">
  <g id="Social icon">
    <path id="Vector" d="M7.23557 19.9382C15.9127 19.9382 20.66 13.0602 20.66 7.09738C20.66 6.90402 20.6555 6.70636 20.6465 6.513C21.57 5.87418 22.367 5.0829 23 4.17636C22.1399 4.54239 21.2267 4.78144 20.2917 4.88535C21.2762 4.32084 22.0134 3.43402 22.3666 2.38929C21.4404 2.91435 20.4274 3.28473 19.3712 3.48456C18.6596 2.76127 17.7186 2.28236 16.6939 2.12188C15.6691 1.96141 14.6176 2.1283 13.702 2.59676C12.7864 3.06522 12.0576 3.80915 11.6283 4.71354C11.199 5.61793 11.0931 6.6324 11.3271 7.60011C9.45156 7.51009 7.61677 7.04407 5.94165 6.23226C4.26653 5.42046 2.78846 4.28099 1.60326 2.88773C1.00088 3.88114 0.816554 5.05668 1.08774 6.17542C1.35892 7.29416 2.06527 8.27217 3.06322 8.91066C2.31402 8.88791 1.58123 8.69496 0.925391 8.34777V8.40363C0.924719 9.44614 1.30151 10.4567 1.99171 11.2635C2.68192 12.0704 3.64293 12.6237 4.71141 12.8294C4.01739 13.011 3.28898 13.0375 2.58256 12.9068C2.88406 13.8033 3.47067 14.5875 4.26053 15.1498C5.05039 15.7121 6.00407 16.0246 6.9885 16.0435C5.31724 17.2992 3.25275 17.9803 1.12754 17.9771C0.75065 17.9765 0.374132 17.9544 0 17.9109C2.15899 19.2358 4.67047 19.9394 7.23557 19.9382Z" fill="#D6B46F"></path>
  </g>
</svg>
