<?xml version="1.0" encoding="UTF-8"?>
<svg xmlns="http://www.w3.org/2000/svg" width="67" height="67" viewBox="0 0 67 67" fill="none">
  <g id="Frame" opacity="0.6" clip-path="url(#clip0_839_3914)">
    <path id="Vector" d="M11.1231 31.24C14.1838 31.24 17.0953 31.24 20.1 31.24C20.1 30.1203 20.0627 29.0565 20.1187 27.9927C20.1373 27.6568 20.3053 27.2835 20.5292 27.0409C21.2011 26.2944 21.929 25.6038 22.6382 24.9133C22.8435 24.7267 23.1234 24.596 23.4593 24.3721C23.4593 23.4389 23.4407 22.3565 23.4593 21.2927C23.534 17.3921 25.2323 14.4247 28.5916 12.4278C28.9462 12.2225 29.0582 11.9985 29.0582 11.6066C29.0396 10.8601 29.0022 10.1136 29.0955 9.36707C29.3382 7.61275 30.2526 6.58629 32.3989 5.59715C32.3989 3.74952 32.3989 1.88322 32.3989 -0.0390625C33.1454 -0.0390625 33.8359 -0.0390625 34.5825 -0.0390625C34.6011 0.296871 34.6198 0.632804 34.6384 1.02473C35.7209 1.02473 36.7847 1.02473 37.9045 1.02473C37.9045 1.77124 37.9045 2.48044 37.9045 3.26428C36.8407 3.26428 35.7582 3.26428 34.6571 3.26428C34.6571 4.10411 34.6571 4.85063 34.6571 5.54116C35.2916 5.93308 35.9262 6.23169 36.4487 6.66094C37.6245 7.66874 38.1097 9.03113 37.9604 10.5428C37.8485 11.6439 38.2031 12.2785 39.1735 12.9317C42.029 14.8166 43.4287 17.5974 43.5593 20.9941C43.5967 22.1325 43.5593 23.271 43.5593 24.2788C44.0072 24.6334 44.3805 24.9133 44.7164 25.2306C45.4443 25.9398 46.4334 26.5743 46.8067 27.4515C47.1799 28.3286 46.9 29.4671 46.9187 30.4935C46.9187 30.7175 46.9187 30.9414 46.9187 31.2214C49.9047 31.2214 52.8348 31.2214 55.8209 31.2214C55.8209 32.7144 55.8209 34.1701 55.8209 35.7005C58.8443 35.7005 61.7744 35.7005 64.7791 35.7005C64.7791 45.4052 64.7791 55.0353 64.7791 64.74C65.5256 64.74 66.2348 64.74 67 64.74C67 65.5239 67 66.2331 67 66.9796C44.6604 66.9796 22.3582 66.9796 0 66.9796C0 66.2704 0 65.5799 0 64.8147C0.709192 64.8147 1.41838 64.8147 2.20223 64.8147C2.20223 55.0913 2.20223 45.4426 2.20223 35.7378C5.20696 35.7378 8.11838 35.7378 11.1231 35.7378C11.1231 34.2448 11.1231 32.8077 11.1231 31.24ZM53.5813 50.2389C53.5813 44.64 53.5813 39.0785 53.5813 33.5543C40.1627 33.5543 26.7813 33.5543 13.4187 33.5543C13.4187 39.1345 13.4187 44.6774 13.4187 50.2389C26.8187 50.2389 40.1813 50.2389 53.5813 50.2389ZM53.6 52.5531C40.1813 52.5531 26.8 52.5531 13.4373 52.5531C13.4373 56.659 13.4373 60.7088 13.4373 64.7587C26.856 64.7587 40.2 64.7587 53.6 64.7587C53.6 60.6902 53.6 56.6403 53.6 52.5531ZM41.3198 24.5214C41.3198 23.3083 41.3384 22.1512 41.3198 20.9941C41.2451 17.5601 38.8563 14.5367 35.5903 13.6595C32.1749 12.7451 28.6663 14.1634 26.8187 17.1309C25.3816 19.4451 25.6989 21.9832 25.6989 24.5214C30.9245 24.5214 36.0755 24.5214 41.3198 24.5214ZM22.3209 31.2214C29.8234 31.2214 37.2326 31.2214 44.6791 31.2214C44.6791 30.7361 44.6231 30.2882 44.6978 29.859C44.8657 28.7952 44.4925 28.0114 43.6526 27.3208C43.2234 26.9662 42.8501 26.7983 42.3089 26.7983C36.654 26.8169 30.9992 26.8356 25.3256 26.7796C24.2805 26.7796 23.4593 26.9662 22.8808 27.8247C22.6755 28.1233 22.3769 28.4219 22.3396 28.7205C22.2836 29.5417 22.3209 30.3442 22.3209 31.2214ZM4.47911 37.996C4.47911 42.1019 4.47911 46.1704 4.47911 50.2016C6.71866 50.2016 8.92089 50.2016 11.1045 50.2016C11.1045 46.0958 11.1045 42.0646 11.1045 37.996C8.90223 37.996 6.71866 37.996 4.47911 37.996ZM62.5209 50.2389C62.5209 46.1331 62.5209 42.0646 62.5209 38.0334C60.2813 38.0334 58.0791 38.0334 55.8955 38.0334C55.8955 42.1205 55.8955 46.1704 55.8955 50.2389C58.1164 50.2389 60.3 50.2389 62.5209 50.2389ZM4.47911 52.5345C4.47911 56.6403 4.47911 60.6902 4.47911 64.74C6.71866 64.74 8.92089 64.74 11.1045 64.74C11.1045 60.6529 11.1045 56.603 11.1045 52.5345C8.90223 52.5345 6.71866 52.5345 4.47911 52.5345ZM55.9142 52.5345C55.9142 56.659 55.9142 60.7088 55.9142 64.74C58.1538 64.74 60.356 64.74 62.5396 64.74C62.5396 60.6342 62.5396 56.603 62.5396 52.5345C60.3187 52.5345 58.1538 52.5345 55.9142 52.5345ZM35.7209 11.252C35.7769 10.1509 35.9075 8.93782 34.7131 8.17264C33.9292 7.65007 33.0894 7.65007 32.2869 8.17264C31.0738 8.95648 31.2231 10.1696 31.2978 11.252C32.7908 11.252 34.2279 11.252 35.7209 11.252Z" fill="#13122D"></path>
    <path id="Vector_2" d="M22.377 37.9961C23.1235 37.9961 23.814 37.9961 24.5232 37.9961C24.5232 41.3181 24.5232 44.6214 24.5232 47.9621C23.8327 47.9621 23.1235 47.9621 22.377 47.9621C22.377 44.6774 22.377 41.3741 22.377 37.9961Z" fill="#13122D"></path>
    <path id="Vector_3" d="M31.2234 48.0012C30.4955 48.0012 29.805 48.0012 29.0771 48.0012C29.0771 44.6792 29.0771 41.3758 29.0771 38.0352C29.7677 38.0352 30.4769 38.0352 31.2234 38.0352C31.2234 41.3198 31.2234 44.6418 31.2234 48.0012Z" fill="#13122D"></path>
    <path id="Vector_4" d="M35.7959 37.9961C36.5424 37.9961 37.2329 37.9961 37.9421 37.9961C37.9421 41.3181 37.9421 44.6214 37.9421 47.9621C37.2516 47.9621 36.5424 47.9621 35.7959 47.9621C35.7959 44.6774 35.7959 41.3741 35.7959 37.9961Z" fill="#13122D"></path>
    <path id="Vector_5" d="M44.6414 48.0012C43.8948 48.0012 43.2043 48.0012 42.4951 48.0012C42.4951 44.6792 42.4951 41.3758 42.4951 38.0352C43.1856 38.0352 43.8948 38.0352 44.6414 38.0352C44.6414 41.3198 44.6414 44.6418 44.6414 48.0012Z" fill="#13122D"></path>
    <path id="Vector_6" d="M24.5232 62.5381C23.7767 62.5381 23.0861 62.5381 22.377 62.5381C22.377 59.9626 22.377 57.4058 22.377 54.793C23.0675 54.793 23.7767 54.793 24.5232 54.793C24.5232 57.3498 24.5232 59.9066 24.5232 62.5381Z" fill="#13122D"></path>
    <path id="Vector_7" d="M31.2234 62.5381C30.4955 62.5381 29.805 62.5381 29.0771 62.5381C29.0771 59.9626 29.0771 57.4058 29.0771 54.793C29.7677 54.793 30.4769 54.793 31.2234 54.793C31.2234 57.3498 31.2234 59.9066 31.2234 62.5381Z" fill="#13122D"></path>
    <path id="Vector_8" d="M35.7959 54.7773C36.5424 54.7773 37.2329 54.7773 37.9421 54.7773C37.9421 57.3528 37.9421 59.9097 37.9421 62.5225C37.2516 62.5225 36.5424 62.5225 35.7959 62.5225C35.7959 59.9656 35.7959 57.3902 35.7959 54.7773Z" fill="#13122D"></path>
    <path id="Vector_9" d="M42.4766 62.5038C42.4766 59.9097 42.4766 57.3715 42.4766 54.7773C43.2044 54.7773 43.9136 54.7773 44.6601 54.7773C44.6601 57.3528 44.6601 59.891 44.6601 62.5038C43.9509 62.5038 43.2604 62.5038 42.4766 62.5038Z" fill="#13122D"></path>
    <path id="Vector_10" d="M27.957 22.2816C27.957 21.1619 27.957 20.0981 27.957 19.0156C28.6849 19.0156 29.3568 19.0156 30.1033 19.0156C30.1033 20.0794 30.1033 21.1619 30.1033 22.2816C29.4127 22.2816 28.7035 22.2816 27.957 22.2816Z" fill="#13122D"></path>
    <path id="Vector_11" d="M32.4365 19C33.1457 19 33.8362 19 34.5828 19C34.5828 20.0638 34.5828 21.1462 34.5828 22.266C33.8922 22.266 33.183 22.266 32.4365 22.266C32.4365 21.2022 32.4365 20.1198 32.4365 19Z" fill="#13122D"></path>
    <path id="Vector_12" d="M36.8965 22.2816C36.8965 21.1805 36.8965 20.1167 36.8965 19.0156C37.6243 19.0156 38.3149 19.0156 39.0614 19.0156C39.0614 20.0981 39.0614 21.1805 39.0614 22.2816C38.3335 22.2816 37.6617 22.2816 36.8965 22.2816Z" fill="#13122D"></path>
  </g>
  <defs>
    <clipPath id="clip0_839_3914">
      <rect width="67" height="67" fill="white"></rect>
    </clipPath>
  </defs>
</svg>
