<?xml version="1.0" encoding="UTF-8"?>
<svg xmlns="http://www.w3.org/2000/svg" width="20" height="20" viewBox="0 0 20 20" fill="none">
  <g id="Frame" clip-path="url(#clip0_893_4510)">
    <path id="Vector" d="M10.5875 19.9978C10.1958 19.9978 9.80416 19.9978 9.41249 19.9978C9.36353 19.9856 9.31457 19.9672 9.25949 19.9672C7.69278 19.8571 6.23011 19.4105 4.89596 18.5907C2.31334 17.0061 0.716034 14.7179 0.152999 11.7201C0.0856793 11.3469 0.0489596 10.9614 0 10.5882C0 10.1967 0 9.80511 0 9.41355C0.0122399 9.34625 0.0244798 9.27283 0.0367197 9.20554C0.0979192 8.77727 0.134639 8.33677 0.226438 7.91462C0.746634 5.51633 1.98286 3.54631 3.94125 2.06574C6.37087 0.224196 9.11261 -0.387612 12.1053 0.236432C14.4982 0.738115 16.4443 1.9862 17.9315 3.91952C19.5349 6.00578 20.2081 8.38571 19.9572 10.9981C19.7552 13.1211 18.929 14.9871 17.5153 16.5901C15.967 18.3398 14.0392 19.435 11.7319 19.8449C11.3464 19.9122 10.967 19.9489 10.5875 19.9978ZM8.44553 11.6528C8.07222 11.3163 7.71114 10.9798 7.34394 10.6494C6.79315 10.1477 6.25459 9.62157 5.67932 9.14435C5.14688 8.69774 4.31457 8.9914 4.15545 9.65827C4.05141 10.0865 4.19829 10.4353 4.51652 10.7228C5.59364 11.7017 6.67075 12.6867 7.75398 13.6656C8.26193 14.1306 8.79437 14.1184 9.29009 13.6289C11.3586 11.5732 13.4333 9.52368 15.5018 7.468C15.5569 7.41294 15.612 7.35788 15.661 7.2967C16.0649 6.81337 15.9364 6.09755 15.3917 5.78553C14.9633 5.54081 14.4982 5.62034 14.1004 6.01802C12.2705 7.84732 10.4468 9.67051 8.61689 11.4998C8.55569 11.5426 8.50673 11.5916 8.44553 11.6528Z" fill="#D6B46F"></path>
  </g>
  <defs>
    <clipPath id="clip0_893_4510">
      <rect width="20" height="20" fill="white"></rect>
    </clipPath>
  </defs>
</svg>
