<?xml version="1.0" encoding="UTF-8"?>
<svg xmlns="http://www.w3.org/2000/svg" width="48" height="53" viewBox="0 0 48 53" fill="none">
  <g id="Frame" clip-path="url(#clip0_448_534)">
    <g id="Group">
      <path id="Vector" d="M21.5392 0C21.8079 0 22.0766 0 22.3595 0C22.4443 0.0430661 22.5433 0.0861321 22.6282 0.100488C27.9317 1.23456 33.221 2.35428 38.5245 3.48835C39.4862 3.68933 39.7832 4.07692 39.7832 5.05309C39.7832 8.95774 39.7832 12.848 39.7832 16.7527C39.7832 16.9537 39.7832 17.1547 39.7832 17.3556C41.6783 17.7576 43.5027 18.1452 45.3271 18.5328C46.5292 18.7912 46.7555 19.0496 46.7555 20.3128C46.7555 30.1463 46.7555 39.9797 46.7555 49.8131C46.7555 50.0284 46.7555 50.2581 46.7555 50.4878C47.3353 50.6026 47.7737 50.8323 47.9435 51.3922C48.2263 52.3109 47.5757 53.0143 46.4726 53.0143C31.4956 53.0143 16.5186 53.0143 1.55569 53.0143C1.34355 53.0143 1.11727 53 0.905134 52.9426C0.381858 52.8134 0.0424348 52.354 0.0141496 51.8228C7.01193e-06 51.2773 0.311144 50.8036 0.820278 50.6314C0.961705 50.5883 1.10313 50.5452 1.2587 50.5021C1.2587 50.2581 1.2587 50.0571 1.2587 49.8418C1.2587 38.659 1.2587 27.4762 1.2587 16.3077C1.2587 15.0875 1.54155 14.743 2.74367 14.5133C4.15793 14.2405 5.5722 13.9534 7.01474 13.6663C7.01474 13.4223 7.01474 13.2213 7.01474 13.006C7.01474 10.0775 7.01474 7.13461 7.01474 4.20612C7.01474 3.3448 7.36831 2.88543 8.14615 2.72752C11.3282 2.09588 14.5103 1.4786 17.6924 0.832611C18.9511 0.559859 20.2381 0.272752 21.5392 0ZM13.6618 34.0509C11.0878 34.5821 8.57043 35.1132 6.06719 35.63C5.33177 35.7879 4.79435 35.5008 4.66707 34.8979C4.53978 34.2662 4.90749 33.7925 5.64291 33.6346C6.61875 33.4193 7.60873 33.2183 8.58457 33.0173C10.2817 32.6584 11.9647 32.2996 13.6618 31.9407C13.6618 30.4764 13.6618 29.0409 13.6618 27.591C13.4921 27.6054 13.3365 27.6197 13.1951 27.6484C11.8374 27.9355 10.4655 28.2226 9.10785 28.5097C8.07544 28.7251 7.04303 28.9548 6.01062 29.1557C5.58634 29.2419 5.13377 29.2419 4.90749 28.8399C4.75192 28.5528 4.66707 28.1509 4.72364 27.835C4.80849 27.3613 5.26106 27.2178 5.69948 27.1173C7.89158 26.6579 10.0837 26.1985 12.2758 25.7392C12.7284 25.6387 13.3506 25.6674 13.5628 25.3803C13.8032 25.0645 13.6618 24.4615 13.6759 23.9878C13.6901 23.026 13.6759 22.0642 13.6759 21.0593C12.8556 21.2316 12.1061 21.3751 11.3707 21.533C9.56041 21.9063 7.75016 22.2939 5.9399 22.6671C5.34591 22.7963 4.82264 22.4948 4.69535 21.9781C4.53978 21.4038 4.83678 20.887 5.43077 20.7004C5.64291 20.6286 5.85505 20.5999 6.08133 20.5569C8.48557 20.0544 10.904 19.5376 13.3082 19.0208C13.4496 18.9921 13.6759 18.8342 13.6759 18.7337C13.7042 17.4418 13.6901 16.1498 13.6901 14.8291C13.4921 14.8578 13.3506 14.8578 13.1951 14.8865C10.1968 15.4894 7.1986 16.1067 4.20036 16.6809C3.73366 16.7671 3.6488 16.9537 3.6488 17.3843C3.67709 28.2513 3.67709 39.0753 3.67709 49.9136C3.67709 50.1002 3.67709 50.2868 3.67709 50.4734C7.04303 50.4734 10.3524 50.4734 13.6759 50.4734C13.6759 47.1574 13.6759 43.87 13.6759 40.5539C13.5062 40.5682 13.3789 40.5682 13.2516 40.597C11.7242 40.9128 10.1968 41.2429 8.66943 41.5588C7.72187 41.7597 6.77432 41.9607 5.82676 42.133C5.34591 42.2191 4.94992 42.0181 4.73778 41.5588C4.55393 41.1425 4.62464 40.7262 4.96406 40.4247C5.1762 40.2524 5.45905 40.1376 5.74191 40.0802C7.11374 39.7787 8.49972 39.5059 9.88569 39.2188C11.1444 38.9604 12.4031 38.6877 13.6759 38.4149C13.6618 36.9507 13.6618 35.5295 13.6618 34.0509ZM44.2947 50.4878C44.2947 49.3107 44.2805 48.1622 44.3088 46.9994C44.3229 46.6118 44.2239 46.4396 43.7997 46.3535C35.399 44.5877 26.9841 42.7933 18.5834 41.0133C17.7914 40.841 16.9994 40.6974 16.1933 40.5252C16.1933 43.8987 16.1933 47.1717 16.1933 50.4734C25.5698 50.4878 34.904 50.4878 44.2947 50.4878ZM23.1797 2.77058C23.1656 2.91414 23.1373 3.01463 23.1373 3.10076C23.1373 6.53169 23.1373 9.96262 23.1232 13.3935C23.1232 13.7381 23.2787 13.8099 23.5616 13.8673C27.7337 14.743 31.8916 15.6473 36.0637 16.5374C36.4597 16.6235 36.8698 16.6953 37.2658 16.7671C37.2941 16.6522 37.3082 16.6235 37.3082 16.5948C37.3082 13.0921 37.3082 9.58938 37.3224 6.10103C37.3224 5.7565 37.1385 5.72779 36.8839 5.67037C33.6594 4.99566 30.449 4.30661 27.2245 3.61755C25.8951 3.3448 24.5516 3.05769 23.1797 2.77058ZM16.165 34.0366C16.165 35.3716 16.1792 36.6492 16.1509 37.9125C16.1509 38.2857 16.2499 38.4436 16.6317 38.5154C25.0466 40.2811 33.4756 42.0756 41.8904 43.8556C42.6824 44.0279 43.4602 44.1714 44.2664 44.3437C44.2664 42.8507 44.2664 41.4152 44.2664 39.9797C34.904 38.013 25.5557 36.032 16.165 34.0366ZM16.165 21.1024C16.165 22.4374 16.1792 23.6863 16.1509 24.9496C16.1367 25.3516 16.2499 25.5095 16.66 25.5956C24.198 27.189 31.736 28.7968 39.274 30.419C40.9287 30.7779 42.5834 31.1224 44.3088 31.4813C44.3088 30.1463 44.2947 28.8543 44.3229 27.5623C44.3229 27.189 44.1957 27.0742 43.8421 27.0024C36.4455 25.4377 29.0631 23.8586 21.6806 22.2795C19.8562 21.8776 18.0601 21.5043 16.165 21.1024ZM44.2664 33.5628C34.9181 31.5674 25.5698 29.5864 16.1933 27.5766C16.1933 29.0696 16.1933 30.4908 16.1933 31.955C25.5416 33.9361 34.8898 35.9028 44.2664 37.8981C44.2664 36.4483 44.2664 35.0414 44.2664 33.5628ZM44.2805 20.8296C34.9181 18.8342 25.5698 16.8388 16.1933 14.8434C16.1933 16.279 16.1933 17.6284 16.1933 19.0065C25.5557 21.0019 34.904 22.9973 44.2805 24.9927C44.2805 23.5859 44.2805 22.2365 44.2805 20.8296ZM20.6341 13.25C20.6341 9.71858 20.6341 6.27329 20.6341 2.74187C16.8721 3.48835 13.1526 4.23483 9.44727 4.96695C9.44727 7.72318 9.44727 10.4076 9.44727 13.1352C10.5928 12.9055 11.7101 12.7045 12.8132 12.4605C14.086 12.1733 15.3165 12.0011 16.6176 12.3743C17.9187 12.7619 19.2764 12.9629 20.6341 13.25Z" fill="#D6B46F"></path>
      <path id="Vector_2" d="M34.4373 11.7007C33.6594 11.5428 32.7826 11.3562 31.9057 11.1696C29.9116 10.7533 27.9175 10.3369 25.9234 9.92064C25.2163 9.77709 24.8344 9.30336 24.9334 8.71479C25.0324 8.08315 25.584 7.75298 26.2911 7.89653C28.455 8.34155 30.6046 8.80092 32.7684 9.24594C33.4331 9.38949 34.0978 9.50433 34.7626 9.6766C35.3565 9.83451 35.6252 10.2795 35.5545 10.825C35.4697 11.3418 35.0595 11.7007 34.4373 11.7007Z" fill="#D6B46F"></path>
    </g>
  </g>
  <defs>
    <clipPath id="clip0_448_534">
      <rect width="48" height="53" fill="white"></rect>
    </clipPath>
  </defs>
</svg>
