<?xml version="1.0" encoding="UTF-8"?>
<svg xmlns="http://www.w3.org/2000/svg" width="16" height="14" viewBox="0 0 16 14" fill="none">
  <g id="ELEMENTS">
    <path id="Vector" d="M15.8336 2.01382C15.3191 2.23542 14.7782 2.38973 14.2244 2.47294C14.4833 2.42851 14.8643 1.96198 15.016 1.77315C15.2464 1.48831 15.422 1.16314 15.5339 0.814168C15.5339 0.78825 15.5598 0.751224 15.5339 0.73271C15.5209 0.725581 15.5062 0.721845 15.4914 0.721845C15.4765 0.721845 15.4619 0.725581 15.4488 0.73271C14.8474 1.0587 14.2073 1.3075 13.5437 1.47323C13.5205 1.48031 13.4959 1.48094 13.4725 1.47507C13.449 1.4692 13.4276 1.45704 13.4105 1.43991C13.3588 1.37835 13.3032 1.32022 13.244 1.26589C12.9734 1.02316 12.6663 0.824501 12.334 0.677171C11.8855 0.492994 11.401 0.413232 10.9172 0.443906C10.4477 0.473582 9.98933 0.599615 9.5706 0.814168C9.15826 1.04037 8.79587 1.34767 8.50519 1.71761C8.19944 2.09837 7.97869 2.54025 7.85781 3.01352C7.75813 3.46371 7.74682 3.92899 7.82452 4.38349C7.82452 4.46125 7.82452 4.47235 7.75793 4.46125C5.12031 4.07247 2.9562 3.13571 1.18792 1.12519C1.11023 1.03633 1.06954 1.03633 1.00665 1.12519C0.237191 2.29522 0.610824 4.14652 1.57265 5.06107C1.70213 5.18326 1.8353 5.30174 1.97588 5.41282C1.53489 5.38148 1.10466 5.26187 0.710705 5.06107C0.636719 5.01294 0.596026 5.03885 0.592327 5.12772C0.58184 5.25091 0.58184 5.37478 0.592327 5.49798C0.669516 6.0884 0.901989 6.6477 1.26597 7.1187C1.62996 7.5897 2.1124 7.95549 2.66395 8.17867C2.79841 8.23632 2.93851 8.27975 3.08198 8.30827C2.67373 8.38871 2.25502 8.40122 1.8427 8.34529C1.75392 8.32678 1.72062 8.37491 1.75392 8.46007C2.29772 9.94112 3.4778 10.3928 4.34345 10.6446C4.46183 10.6631 4.5802 10.6631 4.71338 10.6928C4.71338 10.6928 4.71338 10.6928 4.69118 10.715C4.43593 11.1815 3.40382 11.4962 2.9303 11.6591C2.06602 11.9699 1.14453 12.0886 0.229793 12.0072C0.0855188 11.985 0.0522249 11.9887 0.0152316 12.0072C-0.0217617 12.0257 0.0152316 12.0664 0.0559242 12.1034C0.240891 12.2256 0.425857 12.333 0.618222 12.4367C1.1909 12.7493 1.79633 12.9977 2.42349 13.1772C5.67151 14.0732 9.32644 13.4142 11.7643 10.989C13.6806 9.08582 14.3538 6.46066 14.3538 3.8318C14.3538 3.73183 14.4759 3.67259 14.5462 3.62075C15.031 3.24268 15.4584 2.79618 15.8151 2.29522C15.8768 2.22054 15.9085 2.12546 15.9038 2.02863C15.9038 1.97309 15.9039 1.9842 15.8336 2.01382Z" fill="#13122D"></path>
  </g>
</svg>
