<?xml version="1.0" encoding="UTF-8"?>
<svg xmlns="http://www.w3.org/2000/svg" width="9" height="16" viewBox="0 0 9 16" fill="none">
  <path id="Vector" d="M2.51142 9.02941C2.1143 9.02941 1.74438 9.02941 1.3799 9.02941C1.06982 9.02941 0.754296 9.03462 0.444215 9.02941C0.117814 9.02419 0.00901331 8.93035 0.00901331 8.61753C-0.00186672 7.799 -0.00186672 6.98567 0.0035733 6.17235C0.00901331 5.86475 0.123254 5.76569 0.444215 5.76569C1.04806 5.76048 1.6519 5.76569 2.26118 5.76569C2.33734 5.76569 2.40806 5.76569 2.51142 5.76569C2.51142 5.67706 2.51142 5.60407 2.51142 5.52586C2.52774 4.78553 2.4951 4.03999 2.56038 3.29965C2.72902 1.41754 4.22503 0.077644 6.19431 0.0150807C6.99399 -0.0109874 7.79912 0.00465347 8.5988 0.00465347C8.88168 0.00465347 8.99592 0.114139 8.99592 0.385247C9.00136 1.14643 9.00136 1.90762 8.99592 2.67402C8.99592 2.96598 8.88712 3.07025 8.57704 3.08068C8.0276 3.09111 7.47816 3.09111 6.92327 3.10154C6.30311 3.11196 6.04743 3.34136 6.03111 3.92529C6.02023 4.51442 6.02567 5.10878 6.02567 5.72398C6.11815 5.72398 6.18887 5.72398 6.26503 5.72398C6.96679 5.72398 7.66312 5.72398 8.36488 5.72398C8.80552 5.72398 8.90888 5.82304 8.90888 6.24013C8.90888 7.01695 8.90888 7.78857 8.90888 8.5654C8.90888 8.91471 8.81096 9.00334 8.44648 9.00855C7.65224 9.01377 6.85799 9.00855 6.02023 9.00855C6.02023 9.09718 6.02023 9.1806 6.02023 9.25881C6.02023 11.2973 6.02023 13.3358 6.02023 15.3796C6.02023 15.9427 5.96039 16 5.36199 16C4.57863 16 3.8007 16 3.01734 16C2.59846 16 2.4951 15.9009 2.4951 15.5047C2.4951 13.4349 2.4951 11.3599 2.4951 9.29009C2.51142 9.21188 2.51142 9.13368 2.51142 9.02941Z" fill="#13122D"></path>
</svg>
