<?xml version="1.0" encoding="UTF-8"?>
<svg xmlns="http://www.w3.org/2000/svg" width="44" height="42" viewBox="0 0 44 42" fill="none">
  <g id="Social Media / Whatsapp">
    <rect id="Logo Container" width="44" height="42" rx="21" fill="#00D95F"></rect>
    <path id="Vector" d="M11.0001 30.7225L12.5785 25.1202C11.3056 22.9379 10.9011 20.3912 11.4394 17.9476C11.9778 15.504 13.4227 13.3274 15.5092 11.8171C17.5956 10.3068 20.1836 9.56421 22.7983 9.72555C25.4129 9.8869 27.8788 10.9414 29.7434 12.6955C31.6081 14.4496 32.7464 16.7856 32.9496 19.275C33.1527 21.7643 32.407 24.24 30.8493 26.2477C29.2916 28.2554 27.0264 29.6604 24.4694 30.205C21.9123 30.7496 19.235 30.3972 16.9286 29.2124L11.0001 30.7225ZM17.2145 27.116L17.5811 27.3233C19.2517 28.2669 21.2028 28.6573 23.1306 28.4338C25.0583 28.2103 26.8543 27.3854 28.2387 26.0877C29.6232 24.7899 30.5182 23.0921 30.7844 21.259C31.0505 19.4258 30.6729 17.5603 29.7103 15.953C28.7478 14.3457 27.2543 13.087 25.4627 12.3731C23.671 11.6591 21.6819 11.53 19.8053 12.0059C17.9286 12.4817 16.2698 13.5358 15.0874 15.0038C13.905 16.4719 13.2655 18.2714 13.2683 20.122C13.2668 21.6565 13.7121 23.1612 14.5547 24.4688L14.7846 24.8301L13.9022 27.9569L17.2145 27.116Z" fill="white"></path>
    <path id="Vector_2" fill-rule="evenodd" clip-rule="evenodd" d="M26.1132 21.5605C25.8983 21.3953 25.6466 21.279 25.3774 21.2205C25.1082 21.162 24.8285 21.1629 24.5597 21.223C24.1557 21.3828 23.8947 21.9869 23.6337 22.2889C23.5787 22.3613 23.4978 22.4121 23.4063 22.4317C23.3147 22.4514 23.2188 22.4385 23.1366 22.3955C21.6577 21.8436 20.4182 20.8314 19.6192 19.5233C19.5511 19.4417 19.5188 19.3381 19.5293 19.2342C19.5397 19.1304 19.592 19.0345 19.6752 18.9666C19.9663 18.692 20.18 18.3519 20.2966 17.9777C20.3225 17.5649 20.2233 17.1538 20.0107 16.7932C19.8464 16.2878 19.5338 15.8378 19.1096 15.4963C18.8909 15.4026 18.6484 15.3711 18.4113 15.4058C18.1742 15.4405 17.9527 15.5398 17.7736 15.6917C17.4625 15.9475 17.2156 16.2665 17.0511 16.6252C16.8865 16.9839 16.8085 17.3732 16.8228 17.7645C16.8237 17.9842 16.8529 18.203 16.9098 18.4159C17.0541 18.9275 17.276 19.4163 17.5685 19.8668C17.7795 20.2119 18.0098 20.546 18.2583 20.8676C19.0659 21.9241 20.081 22.8211 21.2474 23.5089C21.8327 23.8584 22.4582 24.1425 23.1117 24.3557C23.7905 24.649 24.54 24.7615 25.2805 24.6814C25.7025 24.6206 26.1022 24.4618 26.4446 24.2192C26.7871 23.9765 27.0617 23.6573 27.2443 23.2898C27.3515 23.0677 27.3841 22.8195 27.3375 22.5791C27.2256 22.0876 26.5358 21.7974 26.1132 21.5605Z" fill="white"></path>
  </g>
</svg>
