<?xml version="1.0" encoding="UTF-8"?>
<svg xmlns="http://www.w3.org/2000/svg" width="42" height="42" viewBox="0 0 42 42" fill="none">
  <g id="Group 19388">
    <circle id="Ellipse 159" cx="20.8921" cy="20.8921" r="20.8921" fill="#0180C7"></circle>
    <g id="Group 19387">
      <path id="Vector" d="M10.2807 24.4969C11.7575 24.4969 13.1464 24.4871 14.5254 24.4969C15.2981 24.5067 15.7186 24.8291 15.7969 25.4447C15.8849 26.2166 15.435 26.7345 14.5939 26.7443C13.0094 26.7638 11.4348 26.7541 9.85035 26.7541C9.39067 26.7541 8.94077 26.7736 8.48108 26.7443C7.91382 26.715 7.35633 26.5977 7.08248 26.0114C6.80863 25.4252 7.00424 24.8975 7.37589 24.4187C8.88208 22.5035 10.3981 20.5786 11.914 18.6634C12.002 18.5461 12.0901 18.4289 12.1781 18.3214C12.0803 18.1553 11.9434 18.2335 11.826 18.2237C10.7697 18.2139 9.70364 18.2237 8.64735 18.2139C8.40284 18.2139 8.15833 18.1846 7.9236 18.1357C7.36611 18.0087 7.0238 17.4517 7.15094 16.9046C7.23897 16.5332 7.53238 16.2303 7.90404 16.1424C8.13877 16.0838 8.38328 16.0544 8.62779 16.0544C10.3687 16.0447 12.1194 16.0447 13.8603 16.0544C14.1733 16.0447 14.4765 16.0838 14.7797 16.1619C15.4448 16.3867 15.7284 17.0023 15.4643 17.6472C15.2296 18.2041 14.8579 18.6829 14.4863 19.1617C13.205 20.7936 11.9238 22.4156 10.6426 24.0279C10.535 24.1549 10.4372 24.2819 10.2807 24.4969Z" fill="white"></path>
      <path id="Vector_2" d="M21.6251 19.3571C21.8599 19.0542 22.1044 18.7708 22.5054 18.6926C23.278 18.5363 24.0018 19.0346 24.0116 19.8163C24.0409 21.7706 24.0311 23.7249 24.0116 25.6791C24.0116 26.1872 23.679 26.6367 23.1998 26.7833C22.7108 26.969 22.1533 26.8224 21.8305 26.4022C21.6643 26.197 21.5958 26.1579 21.3611 26.3436C20.4711 27.0667 19.4637 27.1937 18.378 26.8419C16.6371 26.2752 15.9231 24.917 15.7275 23.2656C15.5221 21.4775 16.1188 19.9531 17.7227 19.0151C19.0529 18.2236 20.4026 18.292 21.6251 19.3571ZM18.1629 22.9236C18.1824 23.3536 18.3194 23.7639 18.5736 24.1059C19.1018 24.8095 20.1092 24.9561 20.8231 24.4284C20.9405 24.3405 21.0481 24.233 21.1459 24.1059C21.6936 23.3633 21.6936 22.1419 21.1459 21.3993C20.8721 21.0182 20.4417 20.7935 19.982 20.7837C18.9062 20.7153 18.1531 21.5459 18.1629 22.9236ZM28.403 22.9822C28.3248 20.471 29.9777 18.5949 32.325 18.5265C34.819 18.4483 36.6381 20.1192 36.7164 22.5621C36.7946 25.0342 35.2787 26.7833 32.9411 27.0178C30.3884 27.2719 28.3639 25.4251 28.403 22.9822ZM30.8579 22.7477C30.8383 23.2363 30.985 23.7151 31.2785 24.1157C31.8164 24.8193 32.8238 24.9561 33.528 24.4089C33.6355 24.3307 33.7236 24.233 33.8116 24.1353C34.3789 23.3926 34.3789 22.1419 33.8214 21.3993C33.5475 21.028 33.1172 20.7935 32.6575 20.7837C31.6012 20.7251 30.8579 21.5263 30.8579 22.7477ZM27.5423 21.0377C27.5423 22.5523 27.5521 24.0669 27.5423 25.5814C27.5521 26.2752 27.0044 26.8517 26.31 26.8712C26.1926 26.8712 26.0655 26.8615 25.9481 26.8322C25.4591 26.7051 25.0874 26.1872 25.0874 25.5716V17.8034C25.0874 17.3442 25.0776 16.8947 25.0874 16.4354C25.0972 15.683 25.5764 15.1945 26.3002 15.1945C27.0435 15.1847 27.5423 15.6733 27.5423 16.455C27.5521 17.9793 27.5423 19.5134 27.5423 21.0377Z" fill="white"></path>
    </g>
  </g>
</svg>
