<?xml version="1.0" encoding="UTF-8"?>
<svg xmlns="http://www.w3.org/2000/svg" width="24" height="24" viewBox="0 0 24 24" fill="none">
  <g id="EnvelopeSimple">
    <path id="Vector" d="M21.7492 5.23213C21.7488 5.21826 21.7481 5.20441 21.747 5.19058C21.7462 5.1793 21.7451 5.16809 21.7437 5.15696C21.7421 5.14401 21.7401 5.13112 21.7378 5.11826C21.7357 5.10661 21.7335 5.09505 21.7309 5.0836C21.7281 5.07143 21.7249 5.05937 21.7216 5.0473C21.7183 5.03572 21.715 5.02421 21.7112 5.01286C21.7073 5.00109 21.7029 4.98949 21.6984 4.97791C21.694 4.96676 21.6896 4.9557 21.6847 4.94483C21.6797 4.93346 21.6742 4.92227 21.6685 4.9111C21.663 4.90038 21.6575 4.88979 21.6516 4.8794C21.6455 4.86878 21.6391 4.85834 21.6325 4.84795C21.6257 4.83733 21.6188 4.82689 21.6115 4.81664C21.6047 4.80711 21.5977 4.79778 21.5904 4.78848C21.5822 4.77793 21.5736 4.76768 21.5649 4.75758C21.5607 4.75287 21.5572 4.74786 21.553 4.74321C21.5493 4.73927 21.5454 4.73593 21.5417 4.73211C21.5326 4.72263 21.5232 4.7135 21.5137 4.70451C21.5049 4.69617 21.496 4.68794 21.4869 4.68011C21.4778 4.67239 21.4685 4.66512 21.4592 4.65784C21.4489 4.64987 21.4387 4.64198 21.4281 4.63463C21.419 4.62824 21.4095 4.62231 21.4001 4.61634C21.3889 4.60929 21.3778 4.60226 21.3664 4.59586C21.3563 4.59025 21.346 4.58519 21.3357 4.58002C21.3245 4.57441 21.3134 4.56876 21.3019 4.56372C21.2906 4.55871 21.2789 4.55434 21.2672 4.54987C21.2565 4.54578 21.2457 4.54159 21.2348 4.53799C21.2223 4.53387 21.2095 4.53042 21.1968 4.52696C21.1861 4.52406 21.1754 4.5211 21.1646 4.51868C21.1519 4.51584 21.1389 4.5136 21.126 4.5114C21.1145 4.50945 21.1031 4.50755 21.0916 4.50613C21.0793 4.50462 21.0669 4.50364 21.0544 4.50275C21.0418 4.50183 21.0292 4.5011 21.0165 4.50082C21.011 4.50071 21.0056 4.5 21.0001 4.5H3.00006C2.99494 4.5 2.98999 4.50066 2.98487 4.50078C2.97123 4.50105 2.95768 4.50181 2.94408 4.50284C2.9325 4.50368 2.92101 4.5046 2.90961 4.50598C2.89716 4.50749 2.8848 4.50952 2.87244 4.51165C2.86035 4.51374 2.84827 4.51582 2.83637 4.51845C2.82474 4.52106 2.8133 4.52422 2.80176 4.52738C2.78977 4.53065 2.77777 4.5339 2.76601 4.53777C2.75438 4.54157 2.74303 4.54599 2.73159 4.55036C2.72055 4.55461 2.70948 4.55876 2.69867 4.5635C2.68677 4.56871 2.6751 4.57462 2.66338 4.5805C2.65354 4.58544 2.64369 4.5903 2.63413 4.59568C2.62236 4.60224 2.61092 4.60946 2.59948 4.61671C2.59032 4.6225 2.58112 4.62824 2.57224 4.63445C2.56148 4.64193 2.55105 4.64997 2.54065 4.65809C2.53141 4.66526 2.52225 4.67242 2.51342 4.68C2.50417 4.68789 2.49524 4.6962 2.48632 4.70462C2.4768 4.71357 2.4675 4.72266 2.45844 4.73209C2.45478 4.73594 2.45079 4.73928 2.44718 4.74322C2.44292 4.74786 2.4394 4.75287 2.43527 4.75759C2.42648 4.76768 2.41797 4.77793 2.40968 4.78849C2.40241 4.79778 2.3954 4.80712 2.38863 4.81664C2.38135 4.8269 2.37439 4.83733 2.36766 4.84795C2.36102 4.85834 2.35461 4.86878 2.34857 4.8794C2.34262 4.88979 2.33708 4.90039 2.33163 4.9111C2.32596 4.92227 2.32047 4.93346 2.31538 4.94484C2.31053 4.95571 2.30609 4.96677 2.30174 4.97791C2.29721 4.98949 2.29286 5.0011 2.28897 5.01286C2.28517 5.02421 2.28179 5.03573 2.27853 5.04731C2.27519 5.05937 2.27199 5.07143 2.2692 5.08361C2.26663 5.09505 2.26439 5.10661 2.26233 5.11826C2.26004 5.13113 2.25803 5.14401 2.25642 5.15697C2.25505 5.16811 2.25393 5.17932 2.25308 5.19059C2.25198 5.20444 2.25128 5.21828 2.25098 5.23213C2.25084 5.23813 2.25006 5.24396 2.25006 5.25001V18C2.25052 18.3977 2.4087 18.779 2.6899 19.0602C2.97111 19.3414 3.35238 19.4995 3.75006 19.5H20.2501C20.6477 19.4995 21.029 19.3414 21.3102 19.0602C21.5914 18.779 21.7496 18.3977 21.7501 18V5.25C21.7501 5.24396 21.7493 5.23812 21.7492 5.23213ZM20.2501 18H3.75007V6.95499L11.4932 14.0529C11.6316 14.1797 11.8124 14.25 12.0001 14.25C12.1877 14.25 12.3686 14.1797 12.5069 14.0529L20.2502 6.95485L20.251 18L20.2501 18Z" fill="#D6B46F"></path>
  </g>
</svg>
