<?xml version="1.0" encoding="UTF-8"?>
<svg xmlns="http://www.w3.org/2000/svg" width="131" height="64" viewBox="0 0 131 64" fill="none">
  <g id="Group 19371">
    <g id="Group">
      <path id="Vector" d="M82.8243 8.33692C83.3464 9.10887 83.8332 9.82857 84.3374 10.5739C84.2145 10.6666 84.1334 10.742 84.0393 10.7957C80.9528 12.5595 77.8613 14.3139 74.7843 16.0934C74.4503 16.2866 74.2004 16.2896 73.8739 16.1294C73.4444 15.9184 72.9959 15.7434 72.5474 15.5733C72.1816 15.4348 71.8471 15.5438 71.6774 15.8297C71.5271 16.0825 71.5415 16.328 71.7207 16.5651C71.9287 16.8407 72.1338 17.1182 72.3747 17.4411C71.9048 17.7162 71.4559 17.9843 71.0014 18.2436C67.7572 20.0971 64.5094 21.9451 61.2686 23.8045C60.5329 24.2265 60.6419 24.0318 60.6285 24.9082C60.6225 25.2858 60.6146 25.6644 60.635 26.041C60.6504 26.3249 60.5354 26.4891 60.289 26.6261C59.3792 27.1324 58.4802 27.6583 57.5753 28.1745C54.3584 30.0092 51.1415 31.8434 47.9241 33.6772C47.7544 33.7738 47.5807 33.864 47.3761 33.9754C46.4443 32.7199 45.7361 31.3751 45.1014 29.915C57.6565 22.7333 70.2055 15.5551 82.8248 8.33643L82.8243 8.33692Z" fill="#D6B46F"></path>
      <path id="Vector_2" d="M44.2587 27.3114C43.8401 26.4157 43.423 23.6084 43.4489 22.4184C54.6332 16.021 65.8413 9.60979 77.1092 3.16406C77.8847 3.72355 78.6676 4.28797 79.5018 4.88937C79.3331 5.00915 79.237 5.09049 79.129 5.1521C74.39 7.85935 69.65 10.5646 64.9105 13.2714C62.6846 14.5427 60.4652 15.8258 58.2298 17.0804C57.859 17.2884 57.7072 17.525 57.7401 17.9376C57.7714 18.3295 57.7256 18.7273 57.753 19.1197C57.7789 19.4928 57.644 19.7092 57.307 19.898C55.3589 20.9884 53.4256 22.1054 51.4864 23.2116C49.274 24.473 47.06 25.7325 44.8466 26.992C44.6619 27.097 44.4733 27.1956 44.2592 27.3119L44.2587 27.3114Z" fill="#D6B46F"></path>
      <path id="Vector_3" d="M78.4006 27.7709C78.5529 28.112 78.6823 28.4097 78.8182 28.705C79.0089 29.1186 79.2055 29.2428 79.5733 29.191C79.8968 29.1457 80.0929 28.9416 80.1512 28.5507C80.2238 28.0642 80.3114 27.5757 80.3299 27.0862C80.3428 26.7411 80.4886 26.5627 80.7748 26.401C82.6598 25.3352 84.5363 24.2542 86.4163 23.1791C86.6845 23.0258 86.9553 22.8774 87.2734 22.7C87.2231 23.8234 87.0728 24.8595 86.8732 25.8898C86.8254 26.1358 86.6223 26.2225 86.4372 26.328C85.1161 27.0817 83.7937 27.8325 82.4726 28.5867C78.9984 30.5703 75.5281 32.5603 72.0454 34.5296C71.7035 34.7228 71.5811 34.9407 71.601 35.309C71.6239 35.7349 71.5945 36.1627 71.6074 36.5896C71.6174 36.915 71.5119 37.123 71.2043 37.2965C68.7131 38.7004 66.2328 40.1245 63.7496 41.5427C63.0607 41.9361 62.3699 42.3265 61.686 42.7288C61.4744 42.853 61.2659 42.9042 61.0245 42.8535C59.1529 42.4601 57.3501 41.8686 55.6364 41.0207C55.5946 41 55.5607 40.964 55.4607 40.8871C63.1165 36.5103 70.7389 32.1517 78.4006 27.7714V27.7709Z" fill="#D6B46F"></path>
      <path id="Vector_4" d="M43.5349 19.2784C43.7181 17.6207 44.0446 16.0876 44.5642 14.596C44.7046 14.1932 44.8728 13.7994 45.0067 13.3947C45.1063 13.093 45.3004 12.9007 45.5727 12.7459C48.4178 11.1281 51.2609 9.50583 54.102 7.88059C56.8425 6.31303 59.5806 4.74054 62.3202 3.17101C64.0558 2.17674 65.7934 1.18592 67.5276 0.189191C67.7476 0.0625048 67.9601 -0.0277039 68.2279 0.00778801C69.4125 0.163558 70.5767 0.407072 71.7166 0.761499C71.7459 0.770865 71.7693 0.799456 71.8435 0.855158C71.6633 0.965085 71.503 1.0686 71.3378 1.16325C66.7148 3.80247 62.0917 6.4407 57.4682 9.07943C57.3532 9.14499 57.2442 9.22337 57.1238 9.27612C56.8759 9.38407 56.8007 9.56449 56.8092 9.82624C56.8256 10.3182 56.7987 10.8116 56.8157 11.3041C56.8261 11.5979 56.7315 11.7773 56.4618 11.9296C53.8715 13.3947 51.2897 14.8745 48.7055 16.3494C47.155 17.2342 45.604 18.118 44.0526 19.0014C43.9112 19.0818 43.7654 19.1557 43.5349 19.2789V19.2784Z" fill="#D6B46F"></path>
      <path id="Vector_5" d="M69.9798 24.1382C70.939 24.6499 71.4193 25.3868 71.3536 26.4747C71.2008 26.5674 71.036 26.6724 70.8663 26.769C69.1446 27.7544 67.4269 28.7477 65.6953 29.7153C65.3747 29.8948 65.2513 30.0984 65.2727 30.4533C65.3001 30.895 65.2548 31.3416 65.2891 31.7823C65.3165 32.1342 65.1632 32.2974 64.8705 32.463C62.2658 33.9354 59.6711 35.4256 57.0739 36.9113C55.6961 37.6991 54.3194 38.4888 52.9416 39.276C52.8998 39.3001 52.8496 39.31 52.7659 39.3396C51.4285 38.4222 50.2036 37.355 49.0632 36.096C56.0635 32.0943 63.0319 28.1103 69.9798 24.1382Z" fill="#D6B46F"></path>
      <path id="Vector_6" d="M71.7512 23.3414C73.2529 22.4832 74.7422 21.6324 76.2911 20.747C76.0866 20.577 75.9268 20.4399 75.763 20.3083C74.4052 19.2155 73.2051 17.9723 72.1624 16.5817C72.031 16.4067 71.8035 16.2258 72.0136 15.9798C72.2097 15.7501 72.4406 15.8994 72.6517 15.9803C74.6461 16.7453 76.4703 17.7997 78.1213 19.1469C78.2239 19.2303 78.3274 19.3126 78.4329 19.3919C78.4578 19.4102 78.4941 19.4136 78.5658 19.4373C79.2154 19.0696 79.8903 18.6895 80.5633 18.3055C81.3387 17.8628 82.1068 17.4083 82.8872 16.974C83.8548 16.4358 84.8956 16.1296 86.0071 16.0705C86.139 16.0636 86.2744 16.0582 86.4043 16.0769C86.6516 16.1119 86.7397 16.2721 86.6392 16.4969C86.5924 16.6009 86.5252 16.697 86.46 16.7917C85.7975 17.7573 84.9668 18.5416 83.9365 19.1203C82.6821 19.8242 81.4363 20.5435 80.1875 21.2572C80.0446 21.3391 79.9052 21.4258 79.749 21.5195C79.8112 22.0095 79.8689 22.4945 79.9356 22.9781C80.1531 24.5664 80.1168 26.1541 79.9296 27.7419C79.9008 27.9864 79.854 28.2284 79.8236 28.4725C79.7992 28.6682 79.731 28.8289 79.5135 28.8614C79.2851 28.8954 79.1994 28.7357 79.1228 28.5592C78.636 27.4427 78.2204 26.302 77.9506 25.114C77.7839 24.3805 77.644 23.6411 77.4927 22.9042C77.1458 22.9692 73.5979 24.9509 72.9787 25.4231C73.0026 25.9303 73.0503 26.4361 73.0424 26.9414C73.0369 27.2992 72.9667 27.6576 72.905 28.0125C72.8717 28.2033 72.8244 28.4286 72.569 28.437C72.3435 28.4444 72.2659 28.2427 72.2206 28.0732C72.032 27.3614 71.8224 26.6515 71.695 25.9279C71.5726 25.2309 71.2868 24.6714 70.7309 24.2154C70.1843 23.7668 69.6836 23.263 69.167 22.7794C69.0833 22.7016 68.9893 22.6109 68.9579 22.5083C68.9191 22.3816 68.8957 22.2121 68.9529 22.1085C68.9913 22.0395 69.2048 22.0001 69.3014 22.0395C69.8499 22.2648 70.3954 22.5004 70.9235 22.7686C71.2002 22.9091 71.4392 23.1215 71.7522 23.3414H71.7512Z" fill="#D6B46F"></path>
      <path id="Vector_7" d="M83.8989 33.0664C80.7074 38.5149 73.8799 43.0155 66.2545 43.2097C68.1787 42.0503 70.1349 40.9441 72.0855 39.8291C74.0371 38.7136 75.9893 37.5995 77.9399 36.4825C79.8976 35.362 81.8537 34.2386 83.8989 33.0659V33.0664Z" fill="#D6B46F"></path>
      <path id="Vector_8" d="M62.3517 0.111477C57.6112 2.81823 52.8707 5.52449 48.1307 8.23125L48.075 8.13561C51.7637 3.60891 56.5196 0.913003 62.3263 0.0183105C62.3348 0.049366 62.3432 0.0804215 62.3522 0.110984L62.3517 0.111477Z" fill="#D6B46F"></path>
    </g>
    <g id="Group_2">
      <path id="Vector_9" d="M7.3168 62.9912L6.24168 59.7969H2.16518L1.14978 62.9912H0L3.41949 52.6394H4.95751L8.48152 62.9912H7.3168ZM4.18103 53.4528L2.46382 58.8801H5.94304L4.18103 53.4528Z" fill="#D6B46F"></path>
      <path id="Vector_10" d="M24.0851 52.6394V53.4823L18.5751 62.0743H24.2046V62.9912H17.3358V62.1187L22.8458 53.5415H17.5747V52.6394H24.0851Z" fill="#D6B46F"></path>
      <path id="Vector_11" d="M46.9305 57.4754V62.9914H46.0196L45.93 61.8971C45.1734 62.745 44.1979 63.1689 43.0033 63.1689C41.958 63.1689 41.1119 62.8386 40.4648 62.1781C39.8177 61.5175 39.4942 60.6204 39.4942 59.4866V56.662C39.4942 55.4001 39.8451 54.3846 40.5469 53.6156C41.2487 52.8467 42.2218 52.4622 43.4662 52.4622C44.9096 52.4622 46.0146 52.9748 46.7811 54.0001L46.0345 54.5473C45.7359 54.153 45.3875 53.8572 44.9893 53.66C44.5911 53.4628 44.0834 53.3642 43.4662 53.3642C42.5304 53.3642 41.8211 53.6551 41.3383 54.2368C40.8555 54.8184 40.6141 55.617 40.6141 56.6325V59.4422C40.6141 60.3197 40.8406 61.0098 41.2935 61.5126C41.7465 62.0154 42.3911 62.2668 43.2273 62.2668C44.392 62.2668 45.263 61.7837 45.8404 60.8176V58.3775H43.0779V57.4754H46.9305Z" fill="#D6B46F"></path>
      <path id="Vector_12" d="M58.8025 62.0448H63.327V62.9912H57.6826V52.6394H58.8025V62.0448Z" fill="#D6B46F"></path>
      <path id="Vector_13" d="M76.3771 52.4622C77.7309 52.4622 78.7463 52.8516 79.4232 53.6304C80.1002 54.4093 80.4386 55.4346 80.4386 56.7064V58.9838C80.4386 60.2162 80.0977 61.2218 79.4158 62.0006C78.7339 62.7795 77.721 63.1689 76.3771 63.1689C75.0332 63.1689 74.0203 62.7795 73.3383 62.0006C72.6564 61.2218 72.3155 60.2162 72.3155 58.9838V56.7064C72.3155 55.4248 72.6564 54.397 73.3383 53.623C74.0203 52.8491 75.0332 52.4622 76.3771 52.4622ZM76.3771 53.3642C75.3915 53.3642 74.6549 53.6649 74.1671 54.2663C73.6793 54.8677 73.4354 55.6762 73.4354 56.6916V59.0134C73.4354 59.9796 73.6793 60.7633 74.1671 61.3647C74.6549 61.9661 75.3915 62.2668 76.3771 62.2668C77.3626 62.2668 78.0993 61.9661 78.587 61.3647C79.0748 60.7633 79.3187 59.9796 79.3187 59.0134V56.6916C79.3187 55.686 79.0773 54.88 78.5945 54.2737C78.1117 53.6674 77.3725 53.3642 76.3771 53.3642Z" fill="#D6B46F"></path>
      <path id="Vector_14" d="M95.6561 57.6674C96.2036 57.7266 96.6889 57.9336 97.112 58.2885C97.535 58.6435 97.7466 59.1512 97.7466 59.8117V60.4476C97.7466 61.2265 97.4007 61.8451 96.7088 62.3036C96.0169 62.762 95.0687 62.9912 93.8642 62.9912H91.0868V52.6394H93.9687C95.0239 52.6394 95.8626 52.8538 96.4848 53.2827C97.107 53.7116 97.4181 54.3203 97.4181 55.1091V55.7597C97.4181 56.2921 97.2463 56.7259 96.9029 57.0611C96.5595 57.3963 96.1389 57.5984 95.6411 57.6674H95.6561ZM93.9986 53.5119H92.2216V57.3273H94.4316C94.999 57.3273 95.452 57.1868 95.7905 56.9058C96.1289 56.6249 96.2982 56.2379 96.2982 55.7449V55.1682C96.2982 54.626 96.0916 54.2144 95.6785 53.9334C95.2653 53.6524 94.7054 53.5119 93.9986 53.5119ZM96.6267 60.4033V59.8117C96.6267 59.3089 96.4301 58.9146 96.0368 58.6287C95.6436 58.3428 95.1285 58.1998 94.4913 58.1998H92.2216V62.1187H93.8941C94.78 62.1187 95.457 61.9733 95.9248 61.6825C96.3927 61.3916 96.6267 60.9652 96.6267 60.4033Z" fill="#D6B46F"></path>
      <path id="Vector_15" d="M114.277 62.9912L113.202 59.7969H109.125L108.11 62.9912H106.96L110.379 52.6394H111.917L115.441 62.9912H114.277ZM111.141 53.4528L109.424 58.8801H112.903L111.141 53.4528Z" fill="#D6B46F"></path>
      <path id="Vector_16" d="M126.476 62.0448H131V62.9912H125.356V52.6394H126.476V62.0448Z" fill="#D6B46F"></path>
    </g>
  </g>
</svg>
